<?xml version="1.0" encoding="utf-8"?>
<!-- Generator: Adobe Illustrator 27.2.0, SVG Export Plug-In . SVG Version: 6.00 Build 0)  -->
<svg version="1.1" id="Layer_1" xmlns="http://www.w3.org/2000/svg" xmlns:xlink="http://www.w3.org/1999/xlink" x="0px" y="0px"
	 viewBox="0 0 321.1 321.1" style="enable-background:new 0 0 321.1 321.1;" xml:space="preserve">
<style type="text/css">
	.st0{fill:#FE8E69;}
</style>
<path id="Arkansas_00000135691212212841100100000000015972774292775330_" class="st0" d="M218.4,139.4c-0.5-0.2-1.3-0.4-1.2-1.3
	l-5.3,0.3l-6.2,0.3l-1.3,0.1l-0.4,0c0,0,2.2-3.8,2.6-4.6c0.1-0.1,0.1-0.2,0.2-0.3c0.5-0.6,1.2-0.9,2.1-1.7c1-0.9,0.9-2.2,0.8-2.9
	c-0.1-0.7-1.2-2.1-1.8-2.8c-0.3-0.4-0.9-0.5-1.5-0.5c-0.4,0-0.8,0-0.8,0c-1.6,0.2-3.7,0.5-6.1,0.7c-1.3,0.1-2.7,0.2-4.2,0.3
	c-2,0.1-4.2,0.3-6.5,0.4c-1.7,0.1-3.4,0.2-5.2,0.3c-0.4,0-0.7,0-1.1,0.1c-1.4,0.1-2.8,0.1-4.2,0.2c-2.9,0.1-5.9,0.2-8.9,0.3
	c-0.1,0-0.2,0-0.3,0c-2.4,0.1-4.8,0.2-7.2,0.2c-1.6,0-3.3,0.1-4.9,0.1c-0.5,0-1,0-1.5,0c-2.8,0.1-5.6,0.1-8.2,0.2
	c-0.2,0-0.5,0-0.7,0c-1.7,0-3.4,0.1-5,0.1c-1.8,0-3.6,0.1-5.2,0.1c-1.4,0-2.8,0.1-4,0.1c-4.8,0.1-8.6,0.1-10.9,0.2l0,0.4l1.3,8.1
	l0.3,1.6h0.1l1.3,8.1c0,0,0,0-0.1,0l0.5,2.8l0.7,4.2l0.2,1.2v1.2v10.8h0.1v4.5h-0.1v5.7v7.4v6.1v7.2v0.9c0,0,1.9,1.6,2.5,1.5
	c0.6-0.1,1.6-1.1,2.2-1.2c0.6-0.1,3.6-0.1,3.9,0.7c0,0,0,0.1,0,0.1c0.1,0.6,0.2,3.2,0.3,6.7c0.1,1.9,0.1,4,0.2,6.1l4-0.1l6.3-0.2
	l0.6,0l5.1-0.1l4.8-0.1l5.6-0.2l12.9-0.4l12.3-0.4l0.6,0l3.2-0.1l2.3-0.1c0.2-0.2,0.3-0.4,0.5-0.6c0.2-0.4,0.4-0.8,0.5-1.3
	c0.2-1.5,0.5-3.2,0.2-3.8c-0.3-0.6-2.1-4.2-2.1-4.5c0-0.2,1.2,0.2,1.3-0.3c0.1-0.4-1.5-1.5-2.1-2.2c-0.2-0.2-0.3-0.4-0.3-0.5
	c0.1-0.5,1.6-0.7,1.8-1.2c0.1-0.5-1.5-0.2-0.7-2.4c0.8-2.2,1-5.8,1.5-6.3c0.5-0.6,2.8-1,3.3-1.7c0.5-0.7,0.6-1,0-1.5
	c-0.3-0.3-0.6-0.5-0.7-0.7c-0.1-0.2-0.1-0.5,0.1-0.9c0.5-0.9,2.6-5.1,3.1-5.5c0.4-0.4,2.6,0.1,3.2-1.1c0.3-0.6,0.3-1.6,0.2-2.7
	c-0.1-1-0.2-2.1-0.1-2.7c0-0.1,0-0.2,0-0.3c0.2-1.1,2.6-4.1,2.8-4.5c0-0.1,0.1-0.1,0.2-0.2c0.5-0.4,1.9-0.7,2-0.9c0,0,0-0.1,0-0.3
	c-0.1-0.6-0.4-2.1-0.5-3c0-0.3,0-0.5,0-0.6c0.2-0.8,1.2-0.1,1.6-0.4c0.4-0.3,0.5-1.4,0.8-1.9c0.3-0.5,0.9,0.2,1.6,0.1
	c0.7-0.1,1-0.7,1-1.1c-0.1-0.4-1-0.6-1-1s0.8-1.4,0.2-1.6c-0.6-0.3-2.1-0.6-1.6-1c0.6-0.4,1.3-0.4,1.1-1.1c-0.1-0.4-0.4-1.3-0.5-1.9
	c-0.1-0.4-0.1-0.7,0-0.9c0.2-0.4,0.8,1.6,1.3,1.6c0.2,0,0.4-0.2,0.5-0.5c0.2-0.5,0.2-1.1,0.1-1.4c-0.1-0.4-0.4-1.3,0-1.7
	c0.4-0.3,0.8,0.6,1.1,0.7c0.3,0.1,1.3,0.4,0.9-0.5c-0.1-0.3-0.3-0.5-0.4-0.7c-0.3-0.5-0.6-0.8-0.5-0.9c0.1-0.2,1.1-0.2,1.4-0.9
	c0.4-0.6,0.4-1.2,0.2-1.3c-0.2-0.1-0.7,1.1-1.1,0.6c-0.4-0.6-0.7-1.6-0.3-1.9c0.4-0.3,0.5,0.3,1.3-0.2c0.8-0.5,1-0.7,1.4-1.1
	c0.3-0.3,0.4,0,1-0.3c0.6-0.3,1-1.4,0.4-1.5c-0.6-0.1-1.1-0.4-1.1-0.7c0.1-0.3,0.4-0.7,1.2-0.4c0.7,0.3,1.3-0.1,1.3-0.4
	C218.7,139.5,218.6,139.4,218.4,139.4z"/>
</svg>
