<?xml version="1.0" encoding="utf-8"?>
<!-- Generator: Adobe Illustrator 27.2.0, SVG Export Plug-In . SVG Version: 6.00 Build 0)  -->
<svg version="1.1" id="Layer_1" xmlns="http://www.w3.org/2000/svg" xmlns:xlink="http://www.w3.org/1999/xlink" x="0px" y="0px"
	 viewBox="0 0 321.1 321.1" style="enable-background:new 0 0 321.1 321.1;" xml:space="preserve">
<style type="text/css">
	.st0{fill:#FE8E69;}
</style>
<path id="Arizona_2_" class="st0" d="M217.3,107c-4.9-0.8-9.7-1.5-14.3-2.3c-3.6-0.6-7.1-1.2-10.5-1.7c-8.3-1.4-16-2.7-22.8-4
	c-2.5-0.5-4.9-0.9-7.2-1.3c-9.1-1.7-16.3-3.1-21.2-4.1c-0.3,1.7-0.6,3.3-0.9,4.8c-1.6,8.5-2.6,13.8-2.6,14c0,1-0.9,1.3-2,3.6
	c-1.1,2.3-2.6,1.1-3.2,0.5c-0.6-0.6-0.8-2.2-1.1-2.5c-0.3-0.3-3.2-1.2-3.9-1.3c-0.7-0.1-3.4,0.2-4,0.6c-0.6,0.5-1,13.6-0.8,14.6
	c0.1,1,0.6,7.8-0.5,9c-0.6,0.7-1.1,1.8-1.5,3c-0.3,0.9-0.5,1.8-0.6,2.3c-0.1,1.2,1,3,1.8,4c0.8,1,1.2,6.3,2.1,7.8
	c0.7,1.2,2.2,2.6,2.8,3.8c0.2,0.3,0.3,0.6,0.3,0.9c0.2,1.4-5.8,2.8-7.1,3.6c0,0,0,0,0,0c-1.2,0.8-2.1,2.8-2.7,6
	c-0.6,3.2-2.1,6.1-2.9,7.5c-0.4,0.8-1,1-1.6,1c-0.5,0.1-0.9,0-1.3,0.2c-0.7,0.4-1.5,5.8-1.2,7.9c0.4,2.1,2.9,1.2,3.6,1.9
	c0.1,0.1,0.2,0.2,0.3,0.4c0.4,0.8,0.2,2,0,3.2c-0.2,1.4-3.1,2.8-3.9,3.1c-0.4,0.1-1.3,0.2-2.2,0.2c-0.2,0.5-1.1,1.6-1.5,1.7
	c-0.5,0.1-0.8,0-0.8,0.4s-0.7,2.2-0.3,2.7c0.1,0.2,12.6,7.7,27,16.2c13.8,8.2,29.3,17.3,37.3,21.7c2.9,1.6,4.8,2.6,5.3,2.8
	c0.9,0.3,5.8,1,12.5,2c8.4,1.3,19.6,2.8,28.9,4.1l3.6-26l1.2-8.4l1.5-10.4l1.9-13.6l2.7-18.9l1.3-9l3.5-24.7l3.5-24.7
	C229.1,108.8,223.1,107.9,217.3,107z"/>
</svg>
