<?xml version="1.0" encoding="utf-8"?>
<!-- Generator: Adobe Illustrator 27.2.0, SVG Export Plug-In . SVG Version: 6.00 Build 0)  -->
<svg version="1.1" id="Layer_1" xmlns="http://www.w3.org/2000/svg" xmlns:xlink="http://www.w3.org/1999/xlink" x="0px" y="0px"
	 viewBox="0 0 321.1 321.1" style="enable-background:new 0 0 321.1 321.1;" xml:space="preserve">
<style type="text/css">
	.st0{fill:#FE8E69;}
</style>
<path id="Colorado_2_" class="st0" d="M239.2,127.2c-1.1-0.1-4.7-0.3-9.9-0.7c-0.3,0-0.6,0-0.9-0.1c-3.7-0.3-8-0.6-12.8-0.9
	c-1.1-0.1-2.3-0.2-3.5-0.2c-2.8-0.2-5.7-0.4-8.7-0.6c-5.4-0.4-10.9-0.7-16.3-1.1c-1.3-0.1-2.5-0.2-3.7-0.2c-0.6,0-1.1-0.1-1.8-0.1
	c-4.4-0.3-10.2-0.9-16.7-1.6c-0.7-0.1-1.5-0.2-2.2-0.3c-3.2-0.4-6.5-0.8-10-1.2c-2.7-0.3-5.4-0.7-8.1-1c-3.6-0.5-7.2-0.9-10.8-1.4
	c-6.7-0.9-13.3-1.8-19.6-2.7l-1.1,8.1l-1.5,10.7l-1.9,13.7l-0.5,3.6l-0.5,3.2l-2.9,20.7h0l-1.2,8.6l0,0l-0.9,6.3l-1.3,9.5l-1.6,11.2
	c4,0.6,8,1.1,12.1,1.7c5.7,0.8,11.5,1.6,17.4,2.3c0.5,0.1,1.1,0.1,1.6,0.2c5.6,0.7,11.4,1.4,17.2,2.1c2.9,0.3,5.8,0.7,8.8,1
	c1.7,0.2,3.4,0.4,5.1,0.6c3.2,0.3,6.4,0.7,9.6,1c0.6,0.1,1.1,0.1,1.7,0.2c7.3,0.7,14.5,1.3,21.8,1.9c0.5,0,0.9,0.1,1.4,0.1
	c5.4,0.4,10.7,0.8,15.9,1.2c0.3,0,0.5,0,0.8,0.1c6.5,0.4,12.9,0.8,19.2,1.2l0.6-9l0.4-6.4l0.2-2.5l0.8-12.4l0.5-8.4l0.1-2.1l0.5-8.6
	l0.1-1.9l0.6-10.5l0.7-11.3c0,0,0,0,0,0l0,0c0,0,0,0,0,0c0,0,0,0,0,0c0,0,0,0,0,0l0.5-7.3l0.2-2.4l0.4-6l0.1-1.4l0.4-5.9l0-0.7
	C239.5,127.2,239.4,127.2,239.2,127.2z"/>
</svg>
