<?xml version="1.0" encoding="utf-8"?>
<!-- Generator: Adobe Illustrator 27.2.0, SVG Export Plug-In . SVG Version: 6.00 Build 0)  -->
<svg version="1.1" id="Layer_1" xmlns="http://www.w3.org/2000/svg" xmlns:xlink="http://www.w3.org/1999/xlink" x="0px" y="0px"
	 viewBox="0 0 321.1 321.1" style="enable-background:new 0 0 321.1 321.1;" xml:space="preserve">
<style type="text/css">
	.st0{fill:#FE8E69;}
</style>
<path id="Delaware_2_" class="st0" d="M168.3,167.1c-0.2-0.5-0.3-0.1-0.4,0.1c-0.1,0.2-0.7,0.2-1.1,0.1c-0.4-0.2-3.2-1.9-3.3-2.6
	c0-0.1,0-0.3-0.1-0.5c-0.1-0.6-0.2-1.1-0.6-1.5c-0.6-0.4-1.6-0.6-1.8-1.5c-0.2-0.9-0.1-2.1-0.4-2.9c-0.3-0.9-0.4-1.9-1.7-2.4
	c-0.4-0.2-0.9-0.5-1.3-0.8c-1-0.8-1.9-1.9-1.9-2.3c0-0.6-0.2-0.7,0-1.1c0.2-0.4,0.1-1.2-0.1-1.3s-1.2-0.4-1-0.9
	c0.1-0.5,0.4-1.4,0.7-1.1c0.1,0.1,0.1,0.1,0.1,0.2c0-0.4,0.1-0.8,0.4-1.3c0.4-0.5,0.7-1.2,1-1.9c0.2-0.4,0.4-0.8,0.5-1.1
	c-1-0.2-2.5-0.3-3.7,0c-0.2,0.1-0.5,0.1-0.7,0.2c-1.1,0.5-1.9,1.9-2.4,3.1l0.3-0.1l2.9,10.2l0.4,1.4l0.7,2.4l2,7l1.3,4.6l0.5,1.7
	l0.6,2.2l6.2-1.3l5.4-1.1C170.2,173.2,168.5,167.5,168.3,167.1z"/>
</svg>
