<?xml version="1.0" encoding="utf-8"?>
<!-- Generator: Adobe Illustrator 27.2.0, SVG Export Plug-In . SVG Version: 6.00 Build 0)  -->
<svg version="1.1" id="Layer_1" xmlns="http://www.w3.org/2000/svg" xmlns:xlink="http://www.w3.org/1999/xlink" x="0px" y="0px"
	 viewBox="0 0 321.1 321.1" style="enable-background:new 0 0 321.1 321.1;" xml:space="preserve">
<style type="text/css">
	.st0{fill:#FE8E69;}
</style>
<g id="Hawaii_00000095299912005066423010000018270297701348485567_">
	<g>
		<path class="st0" d="M111.3,139c-0.7-0.2-1,0.3-1.6,1.2c-0.5,1-2.2,1.2-2.4,1.3c-0.6,0.1,0,2.3,0.5,2.7s0.6-1,0.9-1.6
			c0.4-0.6,1.6-0.4,1.8-0.7C110.9,141.5,112,139.2,111.3,139z"/>
		<path class="st0" d="M126.6,132.7c-0.6-0.2-4.9-0.3-5.4,0.2c-0.5,0.6-1.3,1.4-2.3,2c-1,0.6-1.8,1.9-1.9,2c-0.3,0.4-0.1,1,0,1.5
			c0.1,0.5,1.9,1.1,2.6,1.2c0.7,0.1,1.2,0.8,1.7,1.4c0.5,0.6,3.2,0.3,3.6,0.5c0.4,0.2,2.3-1.9,2.4-2.3c0.1-0.4,0.2-1.6,0.2-2.3
			c0-0.7,0.7-1.7,0.7-2.5C128,133.6,127.2,132.8,126.6,132.7z"/>
		<path class="st0" d="M165.4,152.2c-0.6-0.1-0.6-0.4-0.8-0.9c-0.2-0.5,0-0.8-0.6-0.9c-0.6,0-0.2-0.4-0.1-1c0.1-0.7-0.7-0.4-1-0.2
			s0.1,0.7-0.3,0.9c-0.5,0.2-1.4-1.4-1.5-1.8c-0.1-0.4,0.3-0.7,0.2-1c0-0.4-0.4-0.4-0.9-0.5c-0.5-0.1-0.4-0.9-1-2.3
			c-0.6-1.3-1.3-1.2-1.9-1.1c-0.6,0.2-2.2,2.4-2.8,3c-0.6,0.7-3.6,0.6-3.6,0.6c-0.3,0,1,0.9,1.1,1.2c0.1,0.3-0.1,0.8,0,1
			c0.1,0.2,1.2,1,1.2,1.6c0,0.6,0.5,0.8,1.1,1.1c0.6,0.4,0.5,1.5,0.9,1.7c0.4,0.2,4.4-0.7,5-0.7c0.6,0,1.3,0.8,1.7,1
			c0.5,0.2,1.5-0.5,1.7-0.6c0.2-0.1,0.2,0,0.3,0.5c0.1,0.5,0.8-0.7,1.4-1C166.4,152.5,166,152.3,165.4,152.2z"/>
		<path class="st0" d="M184.9,154.1c-0.9,0.1-1.4,0.7-3.4,0.5c-2-0.2-6.5-0.7-6.9-0.5c0,0-1.3,2.6-1,3c0.3,0.3,4-0.4,5.7-0.2
			c1.6,0.2,4,0.8,4.7,0.8c0.7,0,3.1-1.9,3.2-2.9C187.4,153.7,185.8,153.9,184.9,154.1z"/>
		<path class="st0" d="M183.8,160.8c-1.1-0.4-3.8,0.3-3.8,0.3c-0.3,0.1-0.1,0.9,0.5,1.3c0.6,0.4,1.2,2.5,1.5,3.1
			c0.3,0.6,3.2-0.7,3.6-1.6C186.1,163,184.9,161.2,183.8,160.8z"/>
		<path class="st0" d="M204.4,162.7c-0.7-0.7-2.1-0.5-3.1-1.2c-1-0.7-2.9-2.3-2.9-2.4c-0.1-0.1-1.7-0.3-2.1,0
			c-0.4,0.3-2.1,1.7-3,1.5c-0.9-0.2-0.8-2.2-1.8-2.6s-1.9-0.9-2.2-0.5c-0.3,0.4-1.2,1.4-1.2,2.1c0,0.7,0.2,1.7,1,2.5
			c0.8,0.7,2.2,1.8,2.5,1.8c0.3,0,0.8-0.9,1.1-0.9c0.2,0,0.9-0.2,1,1.9c0.1,2.1,0.3,3.4,1,3.4c0.7,0,3.8-0.4,5.1-1
			c1.3-0.6,3.4-1.1,4-1.8C204.4,164.6,205.1,163.4,204.4,162.7z"/>
		<path class="st0" d="M191.7,168c-0.5-0.1-2.2,0.9-2.7,1c-0.3,0.1-1.2,0.7-0.7,1.1c0.4,0.3,1.3,0.4,2,0.3s2.2-0.3,2.1-1.2
			C192.2,168.3,192.2,168.1,191.7,168z"/>
		<path class="st0" d="M233,190.5c-0.7-0.2-3.2-1.2-3.4-2.1c-0.2-0.9-0.3-2.2-0.8-2.5c-0.5-0.3-1.9,0.9-2-0.1
			c-0.1-1,0.1-2.5-0.7-3.1c-0.8-0.6-2.8-3.1-4.6-3.4c-1.8-0.3-2.6-1.6-5.7-1.9c-3.1-0.2-4.4-1.1-4.8-1.8c-0.4-0.7-1.1-1-2-1.1
			c-0.8-0.1-1.2,0-1.6,0.2c-0.2,0.1-0.7,1.4-0.4,2.4c0.3,1,1.7,2.3,1.9,3s0,2.1-1.4,3.4c-1.4,1.3-3.2,2.7-3.3,3.8
			c-0.1,1,1,1.8,1.6,2.8c0.6,1.1,3.1,5.3,3.1,6.5c0.1,1.2-0.7,5-0.3,5.7c0.4,0.7,0.5,2,1.6,2.2c1.1,0.2,3.3,0.7,3.7,1.3
			c0.4,0.7,0.2,0.9,0.9,0.4c0.7-0.4,2.1-4.1,3-4.9c0.9-0.8,4.8-3.1,5.1-3.6s1.9-0.1,3.1-0.6c1.3-0.6,3.4-2.2,3.6-2.5
			c0.2-0.2,3.3-2.5,3.4-3.2C233.1,191,233.7,190.7,233,190.5z"/>
	</g>
</g>
</svg>
