<?xml version="1.0" encoding="utf-8"?>
<!-- Generator: Adobe Illustrator 27.2.0, SVG Export Plug-In . SVG Version: 6.00 Build 0)  -->
<svg version="1.1" id="Layer_1" xmlns="http://www.w3.org/2000/svg" xmlns:xlink="http://www.w3.org/1999/xlink" x="0px" y="0px"
	 viewBox="0 0 321.1 321.1" style="enable-background:new 0 0 321.1 321.1;" xml:space="preserve">
<style type="text/css">
	.st0{fill:#FE8E69;}
</style>
<path id="Idaho_2_" class="st0" d="M225.7,200.6c-0.7-1.2-1.9-4.5-3-5.2c-0.1,0-0.1-0.1-0.2-0.1c-0.8-0.4-1.4,0.1-2,0.6
	c-0.1,0.1-0.2,0.1-0.3,0.2c-0.6,0.3-1.2,1.6-2.1,2.4c-0.1,0.1-0.1,0.1-0.2,0.2l0.2-0.2c-0.3,0.3-0.6,0.5-1,0.6
	c-1.6,0.6-7.3-1.6-9.1-1.6c-1.8,0-2.1,0.9-3.6,0.9c-1.5,0-5.5-1.5-6.9-1.2c-1.1,0.3-0.7,1.5-1,2.2l0,0c-0.1,0.1-0.2,0.2-0.3,0.3
	c-0.9,0.4-1.3-0.9-2.1-1.8c-0.3-0.3-0.4-0.8-0.4-1.3c0-1.2,0.4-2.7,0.4-4.1c0-1.9-1.2-2.9-1.7-4c-0.5-1.1-0.9-0.4-1.5-0.8
	c-0.5-0.3-1.4-1.5-2.1-2.5c-0.6-1-2.2-7.9-2.9-10.4c-0.7-2.6-0.2-6.5-0.8-8c-0.3-0.7-0.6-1.1-1-1.3c-0.5-0.2-1-0.2-1.5-0.1
	c-0.9,0.3-2.3,2.2-2.9,2.6c-0.6,0.4-3.3,1.4-3.9,0.9c-0.6-0.5-0.6-1.6-1.2-2.4c-0.5-0.8-1.4-0.1-1.7-0.5c0,0,0,0,0,0
	c0,0,0-0.1,0-0.1c-0.1-0.7,0.8-3.1,0.8-4.3c0-0.1,0-0.2,0-0.2l0,0c0,0,0,0,0,0c-0.1-1.2,5.5-13.4,6.8-16.3c0.5-1.3,0.8-2.2,0.8-2.8
	c0-0.2,0-0.3,0-0.5c-0.1-0.4-0.4-0.6-0.8-0.6c-0.9-0.1-1.3,0.2-2.4,0c-0.3,0-0.6-0.2-0.8-0.3c-0.6-0.4-0.8-1.2-0.8-1.6
	c0-0.5-0.7-0.7-1.6-0.7c-0.3,0-0.5-0.2-0.7-0.5c-0.4-0.6-0.6-1.6-1-2.3c-0.6-1.1-0.5-2.2-0.6-2.9c0,0,0-0.1-0.1-0.3
	c-0.5-1.4-3.3-7.7-3.6-8.4c-0.3-0.8-2.6-1.2-3.3-1.8s-2.7-3.5-2.7-4.6c0,0,0,0,0,0c0,0,0,0,0,0c0-0.3,0.1-0.7,0.2-1.2
	c0.4-1.4,1-3.4,1-4.1c0-1-3.2-6.5-3.7-7.7c0,0,0-0.1,0-0.3c0,0,0-0.1,0-0.1c0-0.8,0.4-2.9,0.9-5.5c0.4-2,0.9-4.3,1.4-6.6
	c1-4.6,2.1-9.3,2.7-11.7c-5.2-1.1-10.4-2.2-15.6-3.4c-0.2,0.8-0.5,2.1-0.8,3.6c-1,4.4-2.6,11.3-4.3,18.8c-0.1,0.5-0.2,1-0.3,1.5
	c-1.1,4.7-2.2,9.7-3.3,14.4c-0.2,0.8-0.4,1.6-0.6,2.4c-0.2,1-0.4,1.9-0.6,2.8c-1.3,5.7-2.4,10.6-3.1,13.8c-0.3,1.4-0.5,2.4-0.7,3.1
	c-0.1,0.5-0.2,0.8-0.2,0.8c0.1,0.4,1.6,4.1,1,5.6c-0.5,1.3-1.3,0.4-1.1,3.6c0.3,0.1,0.4,0.1,0.4,0.2c0.2,0.4,0.3,2.8,1.1,3.6
	c0.1,0.1,0.1,0.1,0.2,0.2c0.8,0.7,2.1,1.7,2.8,2.4c0.8,0.8,1.2,3.8,1.2,4.4c0,0.6-3.9,4.1-5.1,6.3c-0.2,0.4-0.4,0.7-0.6,1.1
	c-0.9,1.6-1.9,3.4-2.6,4.1c-0.1,0.2-0.3,0.3-0.4,0.3c-0.8,0.5-1.2,1.7-1.1,2.1c0.1,0.3-0.6,1.8-1.2,2.5c-0.1,0.1-0.1,0.2-0.2,0.2
	c-0.7,0.7-2.7,1.1-3.2,1.7c-0.5,0.5-4,4.8-4.1,5.9c-0.1,1-0.6,3-0.5,3.9c0,0,0,0.1,0,0.1c0.2,0.8,1.2,1.5,2,1.6
	c0.8,0.1,1.9,0.8,1.9,1.8c0,0.4-0.1,0.7-0.3,1.1c-0.3,0.5-0.6,1-0.7,1.5c-0.1,0.7,0.2,1.6-0.5,2.5c-0.2,0.3-0.6,1-1,1.8
	c-0.7,1.6-1.5,3.8-1.7,4.7c0,0.1,0,0.1,0,0.2c-0.5,2.5-4.6,19.5-4.6,20.1c0,0.5-3.3,14.2-4.6,19.5c0.2,0,0.3,0.1,0.5,0.1
	c0.3,0.1,0.7,0.2,1,0.2c12.1,2.7,23.2,5,33.1,7.1c4.7,1,9.1,1.9,13.3,2.7c1.4,0.3,2.8,0.6,4.1,0.8c6.6,1.3,12.6,2.5,18,3.5
	c5.5,1,10.5,1.9,14.9,2.7c0.3,0,0.6,0.1,0.9,0.1c3.9,0.7,7.3,1.2,10.4,1.7c3.2,0.5,5.9,0.9,8.3,1.3l2-12.4l2-12.4l1.1-7.2l0.6-4
	l1.9-11.8l1.8-11.6C226.5,201.8,226,201.2,225.7,200.6z"/>
</svg>
