<?xml version="1.0" encoding="utf-8"?>
<!-- Generator: Adobe Illustrator 27.2.0, SVG Export Plug-In . SVG Version: 6.00 Build 0)  -->
<svg version="1.1" id="Layer_1" xmlns="http://www.w3.org/2000/svg" xmlns:xlink="http://www.w3.org/1999/xlink" x="0px" y="0px"
	 viewBox="0 0 321.1 321.1" style="enable-background:new 0 0 321.1 321.1;" xml:space="preserve">
<style type="text/css">
	.st0{fill:#FE8E69;}
</style>
<path id="Illinois_00000013169887590924469470000011998379625593986465_" class="st0" d="M207.9,190.3c-0.1-0.2-0.3-0.5-0.4-0.8
	c-0.1-0.3-0.2-0.6-0.3-0.9c0-0.3-0.1-0.5,0-0.7c0.2-0.6-0.8-2.7-1.3-3.3c-0.3-0.4-0.8-0.9-0.9-2c-0.1-0.6-0.1-1.5,0.2-2.6
	c0-0.2,0.1-0.4,0.1-0.6c0.3-1.4,0.5-2.9,0.5-4.3c0-1.5,0-2.9-0.1-3.7c0-0.4,0-0.7,0-0.8c0-0.1-0.2-2.3-0.5-5.8
	c-0.2-1.8-0.3-4-0.5-6.4c-0.2-2.4-0.4-5.1-0.7-7.8c0-0.1,0-0.2,0-0.3c-0.2-1.9-0.3-3.8-0.5-5.7c-0.2-2.2-0.4-4.3-0.5-6.5
	c-0.1-1.5-0.2-2.9-0.4-4.3c-0.1-1-0.2-1.9-0.2-2.8c-0.1-1.5-0.2-3-0.4-4.3c-0.2-2.2-0.4-4.2-0.5-5.9c-0.1-0.1-0.1-0.1-0.1-0.1
	c-0.3-0.7-2.2-2.5-2.2-3.8c0-1.3-1.1-3.9-1.3-4.2c-0.1-0.1-0.8-1.1-1.6-2.2c-0.6-0.9-1.3-1.9-1.5-2.3c-0.4-0.9-0.3-2.2,0-2.6
	c0.2-0.3,0.2-2.1,0.1-3.4c-2.1,0.1-5.3,0.4-9.1,0.6c-2.1,0.1-4.4,0.3-6.9,0.5c-0.5,0-1,0.1-1.6,0.1c-0.9,0.1-1.8,0.1-2.7,0.2
	c-2.4,0.2-4.9,0.3-7.4,0.5c-0.3,0-0.6,0-0.8,0.1c-2.6,0.2-5.1,0.3-7.6,0.5c-0.5,0-0.9,0.1-1.4,0.1c-3.4,0.2-6.5,0.4-9.2,0.5
	c-1.4,0.1-2.6,0.1-3.7,0.2c0,0.2,0.1,0.5,0.1,0.6c0.2,0.5,2.3,1.3,3.5,2.3c0.3,0.3,0.6,0.6,0.7,0.9c0.5,1.3-0.4,1.5,0.5,2.4
	c0.9,0.9,0.9,0.4,1.6,1.1c0,0,0.1,0.1,0.2,0.2c0.9,0.8,3,3,3.2,3.8c0,0,0,0,0,0c0.1,0.4-0.1,1.3-0.3,2.2c-0.2,1.1-0.6,2.2-0.7,2.6
	c-0.1,0.3-0.3,0.6-0.6,0.9c-0.4,0.5-0.9,1.1-1,1.4c0,0.1-0.1,0.3-0.1,0.5c0,0.7,0.2,1.9-0.2,2.5c-0.6,0.8-2.4,2.9-3,3
	c-0.6,0.1-3,1.2-3.9,1.2c-0.2,0-0.5,0-0.8,0c-1.3,0.1-3.5,0.3-3.9,0.8c-0.3,0.3-0.7,1.3-1.1,2.3c-0.4,1-0.6,2.1-0.5,2.4
	c0.2,0.6,1.2,1.2,2,1.9c0.8,0.7,1.4,1.3,1.3,2.1c0,0.1,0,0.1,0,0.2c-0.1,0.9-0.1,2.9-0.3,3.3c-0.2,0.4-2.1,1.6-2.1,2.5
	c0,0.9,0.2,2,0,2.8c-0.1,0.2-0.2,0.4-0.3,0.6c-0.3,0.5-0.6,0.9-1,1c-0.3,0.1-1.1,0.1-1.8,0.3c-0.5,0.1-1.1,0.4-1.4,0.9
	c-0.7,1.1-0.8,1.2-0.6,1.7c0.2,0.4,1,2.7,0.5,3.2c-0.2,0.2-0.6,0.6-1,0.8c-0.2,1-0.8,2.1-1.1,3.3c0,0.2-0.1,0.3-0.1,0.5
	c0,0.2,0,0.4,0,0.6c0,1.8,1.2,4.1,1.2,5.3c0,0.2,0.1,0.5,0.1,0.8c0.3,1.2,1.2,3,1.9,4.4c0.3,0.6,0.7,1.2,0.9,1.5
	c0.1,0.1,0.2,0.2,0.3,0.3c0.6,0.6,1.3,1.1,2.2,1.8c0.5,0.4,0.9,0.8,1.4,1.3c0.8,0.9,1.8,2.2,3,3.4c0.8,0.8,1.7,1.6,2.7,2.2
	c1.1,0.6,1.6,1.3,2,2c0.4,0.9,0.5,1.7,0.9,2.4c0.6,1.3-0.3,1.2-0.4,2.1c-0.1,0.8,0.3,1.5,1.1,2c0.1,0.1,0.2,0.1,0.3,0.2
	c0.9,0.5,1.2-0.8,3.1-0.9c0.1,0,0.1,0,0.2,0c1.3,0,2.7,0.6,3.8,1c0.5,0.2,0.9,0.4,1.3,0.4c1,0.2,1.4,0.9,1.4,1.7c0,0.2,0,0.3,0,0.5
	c-0.1,1.1-1.1,0.9-1.4,1.5c0,0.1-0.1,0.2-0.1,0.2c0,0.5,0.6,1,0.6,1.7c0,0.1,0,0.2-0.1,0.4c-0.2,0.7-0.6,2-1.1,3.2
	c-0.4,1.1-0.9,2.2-1.1,2.7c0,0.1,0,0.1-0.1,0.2c-0.4,1.2-0.7,2-0.4,3.9c0.1,0.8,1.1,1.9,2.2,2.8c0.3,0.3,0.6,0.5,1,0.8
	c1.2,0.9,2.3,1.7,2.9,2.1c0.7,0.5,1.6,1.6,2.7,2.4c0.8,0.5,1.7,1,2.8,1.1c1,0.1,1.6,0.4,2,0.7c0.8,0.6,0.9,1.5,1.3,2.1
	c0.5,0.7,1.4,2.2,1.9,3.5l0.2,0l-0.2,0.2c0.1,0.2,0.1,0.4,0.2,0.6c0.3,1.4,2.1,2.5,2.1,3.7c-0.1,1.2-0.8,0.4-1.1,1c0,0,0,0.1,0,0.1
	c-0.1,0.5-0.1,1.3,0.3,2c0.1,0.2,0.2,0.4,0.4,0.6c0.7,0.8,1.5,3.6,2.7,4.5c0,0,0.1,0.1,0.1,0.1c0.9,0.5,2.7,0.6,3.8,0.6
	c0-0.1-0.1-0.2-0.1-0.3c-0.5-1.1-1-1.4-0.8-1.8c0,0,0.1-0.1,0.1-0.2c0.7-0.8,3.6-3.8,4.1-4c0,0,0,0,0.1,0c0.8,0,6.1,2.7,7.7,3.1
	c0.2,0,0.3,0.1,0.4,0c0.2,0,0.4-0.1,0.5-0.1c0.6-0.2,1-0.7,0.8-1.8c-0.3-1.3-2-2.4-1.9-3.1c0.1-0.7,0.4-3.1,1.1-3.4
	c0.3-0.1,0.5-0.1,0.6,0c0.2,0.1,0.3,0.2,0.8,0c0.2-0.1,0.4-0.2,0.6-0.4c0.4-0.3,0.8-0.7,1.6-1c1.2-0.4,3.1-0.4,3.4-0.9
	c0.1-0.2-0.1-0.4-0.3-0.7c-0.4-0.4-0.9-0.9-1.2-1.5c0-0.1-0.1-0.2-0.1-0.3c-0.2-1.2-0.2-2.2,0.3-2.8c0.4-0.6,1.2-1,1.3-2.1
	c0-0.2,0-0.5,0-0.6c-0.1-0.7-0.6-1.2-0.6-1.6c0-0.1,0-0.1,0.1-0.2c0.1-0.1,0.3,0,0.5,0c0.2,0,0.5,0.1,0.5-0.2
	c0.1-0.4-0.4-6.4,0.2-8.2l-0.1-0.1l0.2,0c0-0.1,0.1-0.1,0.1-0.2c0.8-1,2.7-2.8,3.6-4.7c0.1-0.2,0.1-0.3,0.2-0.5c0.4-1,0.6-2.2,1-3.1
	c0.3-1,0.8-1.8,1.4-2.3C208.3,193.3,208.3,191,207.9,190.3z"/>
</svg>
