<?xml version="1.0" encoding="utf-8"?>
<!-- Generator: Adobe Illustrator 27.2.0, SVG Export Plug-In . SVG Version: 6.00 Build 0)  -->
<svg version="1.1" id="Layer_1" xmlns="http://www.w3.org/2000/svg" xmlns:xlink="http://www.w3.org/1999/xlink" x="0px" y="0px"
	 viewBox="0 0 321.1 321.1" style="enable-background:new 0 0 321.1 321.1;" xml:space="preserve">
<style type="text/css">
	.st0{fill:#FE8E69;}
</style>
<path id="Indiana_2_" class="st0" d="M199.2,187.5c-0.4-0.9-1.6-2.4-1.8-2.9c0,0,0-0.1,0-0.1c-0.1-0.3,0.5-1.3,0.9-1.8
	c0.2-0.2,0.3-0.4,0.3-0.4l-0.6-4.5l-0.6-5.1l-0.1-1.1l-0.5-3.8l-0.6-4.8l-0.3-2.1l-0.9-7.3l-0.1-1.1l-0.6-5.1l-0.5-4l-0.6-4.6
	l-0.2-1.6l-0.8-6.2l-0.1-0.6l-0.5-3.9l-0.3-2.2l-0.5-4.2l-0.1-0.5l-0.1-1l-6.4,0.6l-1.9,0.2l-6.6,0.6l-2.5,0.2l-4.4,0.4l-3.2,0.3
	l-5.1,0.5l-5,0.5c-1.5,0.9-1.3,1.3-2.3,2c-0.2,0.2-0.6,0.3-1,0.6c-2.1,1-3.5,1.7-3.9,1.8c0,0,0,0,0,0c-0.2,0-4.5-0.8-5.3-1.5
	c0.1,1.7,0.3,3.7,0.5,5.9c0.1,1.4,0.2,2.8,0.4,4.3c0.1,0.9,0.2,1.9,0.2,2.8c0.1,1.4,0.2,2.8,0.4,4.3c0.2,2.1,0.4,4.3,0.5,6.5
	c0.2,1.9,0.3,3.8,0.5,5.7c0,0.1,0,0.2,0,0.3c0.2,2.8,0.5,5.4,0.7,7.8c0.2,2.4,0.4,4.6,0.5,6.4c0.3,3.5,0.5,5.7,0.5,5.8
	c0,0.1,0,0.4,0,0.8c0.1,0.8,0.1,2.2,0.1,3.7c0,1.4-0.2,2.9-0.5,4.3c-0.1,0.2-0.1,0.4-0.1,0.6c-0.2,1.1-0.2,2-0.2,2.6
	c0.2,1.1,0.7,1.6,0.9,2c0.4,0.6,1.5,2.8,1.3,3.3c-0.1,0.2-0.1,0.4,0,0.7c0.1,0.3,0.2,0.6,0.3,0.9c0.1,0.3,0.3,0.6,0.4,0.8
	c0.4,0.7,0.4,3-0.8,4c-0.6,0.5-1,1.4-1.4,2.3c-0.3,1-0.6,2.1-1,3.1c-0.1,0.2-0.1,0.3-0.2,0.5c-0.9,1.9-2.8,3.8-3.6,4.7
	c0,0.1-0.1,0.1-0.1,0.2c0,0,0,0.1-0.1,0.1c-0.6,1.7-0.1,7.7-0.2,8.2c0,0.2-0.3,0.2-0.5,0.2l-0.5,0c-0.1,0-0.1,0.1-0.1,0.2
	c0,0.4,0.4,0.9,0.6,1.6c0.3,0,0.6,0,0.9,0.1c0.6,0.1,0.9,0.5,1.1,0.4c0.2-0.2,0.4-0.8,0.3-1.3c-0.1-0.5-0.7-1.5-0.4-1.7c0,0,0,0,0,0
	c0.4-0.1,2.7-0.1,3.9-0.2c0.1,0,0.1,0,0.2,0c1.1-0.1,0.9,0.3,0.7,1.1c-0.2,0.9,0.6,0.7,0.8,0.7c0.2,0,1-0.7,1.1-1
	c0-0.3-1-1.2-1.1-1.5c0-0.3,0.3-1.3,0.6-1.2c0.3,0.1,1,1.1,1.7,0.8c0.3-0.1,0.6-0.1,0.9-0.1c0.5,0,1,0.2,1.7,0.2
	c0.3,0,0.6,0.1,1,0.4c0.2,0.1,0.4,0.2,0.7,0.4c1.2,0.8,2.6,1.9,2.9,1.9c0.5,0,1.1-1.8,1.3-2.4c0-0.1,0.2-0.3,0.5-0.5
	c0.9-0.9,2.9-2.3,3.5-2.4c0.1,0,0.1,0,0.1,0c0.5,0.1,2.1,2.2,3.1,3c0.3,0.2,0.5,0.3,0.7,0.3c0.8-0.2,1.2-2.3,1.4-2.7
	c0.2-0.4-0.1-1.5,0.2-1.9c0.1-0.1,0.2-0.2,0.4-0.4c0.2-0.1,0.4-0.3,0.6-0.5c0.7-0.5,1.8-1.2,2.7-1.8c0.3-0.2,0.5-0.3,0.6-0.4
	c0.8-0.4,0.3,0.4,0.2,0.9c-0.1,0.7,1,1.4,1.5,1.7c0.5,0.2,2.4,0.2,3.6,0.1c0.3,0,0.6-0.1,0.7-0.1c0.1,0,0.2-0.1,0.3-0.3
	c0.4-0.7-0.1-2.7,0.2-3.5c0-0.2,0.1-0.4,0.2-0.6c0.3-0.8,0.9-1.7,1.3-2.4c0.1-0.2,0.4-0.6,0.9-1c0.6-0.6,1.3-1.3,2.1-2.1
	c1.1-1.1,2.3-2.2,2.8-2.6c0.6-0.5,0.8-0.9,0.8-1.3c0.1-0.4,0-0.7,0-1.1c0-0.1,0-0.1,0-0.2c0.2-1,0.9-3.8,1.2-4.1
	c0.1-0.1,0.2,0,0.4,0c0.6,0.1,1.5,0.5,2.2,0.6c0.2,0,0.4,0,0.5,0c0.3-0.1,1.4-0.9,2.7-1.8c1.3-0.9,2.8-2,3.5-2.7
	c0.3-0.3,0.5-0.5,0.5-0.6C199.4,187.8,199.3,187.7,199.2,187.5z"/>
</svg>
