<?xml version="1.0" encoding="utf-8"?>
<!-- Generator: Adobe Illustrator 27.2.0, SVG Export Plug-In . SVG Version: 6.00 Build 0)  -->
<svg version="1.1" id="Layer_1" xmlns="http://www.w3.org/2000/svg" xmlns:xlink="http://www.w3.org/1999/xlink" x="0px" y="0px"
	 viewBox="0 0 321.1 321.1" style="enable-background:new 0 0 321.1 321.1;" xml:space="preserve">
<style type="text/css">
	.st0{fill:#FE8E69;}
</style>
<path id="Kansas_2_" class="st0" d="M240.6,200.1l0-0.7l0-6.5l0-1l0-2.1c0,0,0-2.8-0.1-6.5c0-0.3,0-0.5,0-0.8c0-2.4-0.1-5.2-0.1-7.9
	c0-0.7,0-1.4,0-2.1c0-2.5,0-4.7,0-6.3c0-1,0-1.8,0.1-2.1c0-0.3,0.1-0.6,0.1-1c0.1-1.2,0.1-2.9,0-4.5c-0.1-0.7-0.1-1.4-0.3-2
	c0-0.1-0.1-0.2-0.1-0.3c-0.2-0.6-0.4-1.1-0.7-1.1c-0.9-0.2-1.6-0.4-2.3-0.7c-0.3-0.1-0.5-0.3-0.8-0.4c-1.1-0.6-1.8-2.6-2.5-4.2
	c-0.1-0.1-0.1-0.2-0.2-0.4c-0.6-1.2-1.5-2-2-2.7c-0.2-0.3-0.3-0.5-0.4-0.7c-0.1-0.5,0.2-1.1,0.6-1.6c0.2-0.4,0.5-0.7,0.7-1.1
	c0.5-0.9,1.9-1,2.3-2.1c0.2-0.4,0-0.9-0.2-1.4c-0.3-0.8-1-1.5-1.1-2c-0.1-0.2-0.2-0.3-0.3-0.4c-0.2,0-0.5,0.4-0.6,0.7
	c-0.2,0.5-0.9,0.6-2.4,0c-0.8-0.3-2.1-1.8-3.1-3.3c-0.2-0.2-0.3-0.4-0.4-0.6v0.6c-2.3,0-5,0.1-8.2,0.1c-1.3,0-2.6,0-4,0
	c-1.4,0-2.9,0-4.4,0c-1.3,0-2.6,0-4,0c-1.9,0-3.9,0-6,0c-0.7,0-1.4,0-2.2,0c-2.7,0-5.5,0-8.4,0c-2.7,0-5.4,0-8.3-0.1
	c-0.6,0-1.2,0-1.8,0c-2.1,0-4.2,0-6.4-0.1c-1.3,0-2.7,0-4,0c-1.3,0-2.6,0-3.9,0c-0.2,0-0.3,0-0.5,0c-2,0-3.9-0.1-5.8-0.1
	c-0.8,0-1.7,0-2.5-0.1c-2.7-0.1-5.4-0.2-8-0.3c-3.5-0.1-6.9-0.3-10.1-0.5c-3.5-0.2-6.8-0.4-10-0.6c-0.1,0-0.3,0-0.4,0
	c-3.8-0.3-7.3-0.5-10.5-0.8c-0.5,0-1-0.1-1.5-0.1c-4.6-0.4-8.5-0.8-11.6-1.1c0,0,0,0,0,0l0,0c0,0,0,0,0,0c0,0,0,0,0,0l-0.7,11.3
	l-0.6,10.5l-0.1,1.9l-0.5,8.6l-0.1,2.1l-0.5,8.4l-0.8,12.4l-0.2,2.5l-0.4,6.4l-0.6,9c0.2,0,0.4,0,0.5,0c2.9,0.2,5.8,0.3,8.6,0.5h0.1
	c3.2,0.2,6.3,0.3,9.4,0.5v0c0.6,0,1.3,0.1,1.9,0.1c2,0.1,4,0.2,6,0.3h0.1c3.5,0.2,7,0.3,10.5,0.4v0c3.6,0.1,7.1,0.3,10.5,0.4
	c0.3,0,0.7,0,1,0c3.1,0.1,6.2,0.2,9.2,0.3c2.9,0.1,5.7,0.2,8.5,0.2c1.3,0,2.6,0.1,3.9,0.1c1.5,0,2.9,0.1,4.3,0.1c2,0,4,0.1,6,0.1
	c2.2,0,4.4,0.1,6.5,0.1c2.1,0,4.2,0.1,6.2,0.1c2.5,0,4.9,0.1,7.3,0.1c1.5,0,2.9,0,4.4,0c3.5,0,6.8,0.1,10,0.1c0.2,0,0.5,0,0.7,0
	c1.3,0,2.5,0,3.7,0c1.6,0,3.1,0,4.6,0c0.8,0,1.6,0,2.4,0c2.2,0,4.2,0,6.1,0c0.5,0,1,0,1.5,0c2.7,0,5.2,0,7.3,0l0-1.2L240.6,200.1z"
	/>
</svg>
