<?xml version="1.0" encoding="utf-8"?>
<!-- Generator: Adobe Illustrator 27.2.0, SVG Export Plug-In . SVG Version: 6.00 Build 0)  -->
<svg version="1.1" id="Layer_1" xmlns="http://www.w3.org/2000/svg" xmlns:xlink="http://www.w3.org/1999/xlink" x="0px" y="0px"
	 viewBox="0 0 321.1 321.1" style="enable-background:new 0 0 321.1 321.1;" xml:space="preserve">
<style type="text/css">
	.st0{fill:#FE8E69;}
</style>
<path class="st0" d="M190.6,167.1c0,0.4-0.1,2.2,0,2.4s0.7-0.1,0.7-0.9c0-0.8,0.2-3.2-0.3-4.1c-0.5-0.9-1.2-3.6-2.4-4.6
	s-1.4-1.6-2.1-1.9c-0.7-0.3-2.1-0.4-2.6-0.3c-0.5,0.1-0.9,0.6-0.7,0.9c0.2,0.3,1.2,1.4,1.4,0.8c0.1-0.6-0.1-1,0.3-1s1.4,0.1,1.7,1.4
	c0.3,1.3,0.4,2.5,0.8,2.3c0.3-0.2,0.5-0.1,0.3-0.7c-0.2-0.7,0.1-0.8,0.3-0.5s1,2.1,1,2.5s-0.9,1.2-1.8,1.6c-0.9,0.4-1.4,1.2-1.7,1.4
	s-0.1,0.2-0.5,0s-0.5-0.2-0.8-0.1c-0.3,0.1-0.4,0.3-1.1,0.3c-0.7-0.1-1.3,0.2-2-0.2s-1.2-0.1-1.1-0.6c0.1-0.6,0.3-1.2-0.4-1.8
	s-0.7-1.1-1.2-1.2c-0.5-0.1-0.4,0.4-1.3,0c-0.9-0.4-1.3-0.4-1.2-0.6c0.1-0.2,0.4-0.2,0.4-0.7s0.2-0.6,0.2-1s-0.9-1.1-1.2-1.5
	c-0.2-0.3-1.3-1.4-1.9-2c-0.2-0.2-0.4-0.3-0.5-0.3c-0.3,0-0.7,0.1-1.1,0.1c-0.2,0-0.3,0-0.4-0.1c-0.3-0.3-0.4-0.5-0.7-0.5
	c-0.1,0-0.2,0-0.3,0l0,0c-0.3,0-0.5,0-0.6,0.1s0.3,0.2,0.5,0.5c0,0,0,0.1,0.1,0.1c0,0.1,0,0.3,0.1,0.4c0,0,0,0-0.1,0
	c-0.3,0-0.9,0.4-1.1-0.1h-0.1c0,0,0,0,0-0.1c-0.1-0.6,0.5-1.1,0.1-1.8c0,0,0-0.1-0.1-0.1c-0.3-0.6-0.7-0.2-0.7-0.7
	c0-0.2,0-0.3,0-0.4c0-0.2,0-0.4,0.2-0.4c0.2-0.1,0,0.2,0.4,0.4s0.8,0.1,0.8,0c0.1-0.2-0.1-0.3-0.4-0.7c-0.4-0.4-0.3-0.3-0.1-0.4
	c0.2-0.1,0.3-0.7,0.7-0.8s0.5-0.1,0.5-0.4c0-0.3-0.2-0.5-0.5-0.7c-0.3-0.1-0.5-0.4-0.3-0.5s0.3,0.2,0.7-0.2s1.5-1.3,1.8-1.4
	c0.3,0,0.4,0.3,0.7,0.1c0.3-0.3-0.2-0.9,0.2-1.2s0.7-0.2,0.6-0.7c-0.1-0.5-0.3-0.6-0.5-0.5s-0.2,0.2-0.3-0.2
	c-0.2-0.4-0.2-0.6-0.3-0.5c-0.1,0.2-0.1,1.2-0.8,1.1c-0.7,0-1.5,0.3-2.2-1.4c-0.6-1.7-1-1.6-1-2.9c-0.7,0-1.5,0-1.9,0
	c-0.7-0.1-1.5,0.8-1.9,1.5s0.4,1.4-0.4,1.6c-0.8,0.2-1.6-0.1-1.9,0.6c-0.3,0.7,0.4,1.4,0.3,1.4c0,0,0,0-0.1,0
	c-0.2,0-0.9-0.1-0.9-0.1l-0.2,0.6l-0.2,0.7l-10.2,2.2l-0.7,0.1l-5.8,1.3l-3.3,0.7l-8,1.7l-1.8,0.4l-4.4,1c0.2,0.2,0.3,0.4,0.3,0.4
	s0,2.4-0.1,5.4c-0.1,4.5-0.1,10.3,0.1,10.9c0,0.1,0.1,0.3,0.1,0.6l7.6-1.7l0.8-0.2l3.1-0.7l0.6,1.3l0.6-0.2V171l4-0.9l6.9-1.5
	l0.7-0.2l5.1-1.1c0,0,0.1,0.2,0.1,0.5l5-1.6h0.1l2.1-0.7l0.2,0.5l-0.1,0.1l0.6,2.2l0.8-0.3c0,0,0.3,0.6,0.5,1.2
	c0.1,0.3,0.2,0.6,0.2,0.8c0.2,0.9,0.3,1,1,1c0.3,0,0.4,0.1,0.5,0.3c0.1,0,0.3,0,0.3,0.1s0,0.1-0.1,0.2c0.1,0.1,0.3,0.2,0.7,0.3l0,0
	c0-0.3,0.2-0.3,0.4-0.2c0.1,0.1,0.1,0.2,0,0.3c0.9,0.2,1.3,0.3,1.7,1c0.2,0.4,0.7,1.9,1.1,3.3c0.4-0.1,0-0.4,0.3-0.6
	c0.3-0.2,0.6,0.2,1-0.1s1.5-1.3,1.6-1.3c0,0-0.5-0.1-0.5-0.6c0-0.6-0.1-1.2,0.4-1.3c0.5-0.2,0.7,0.1,1.1-0.1c0.1,0,0.1,0,0.2-0.1
	c0.3-0.2,0.7-0.5,0.6-0.7c-0.1-0.2-0.6-0.4-0.3-0.5c0.2-0.2,0.5,0.2,0.7,0c0.3-0.1-0.1-0.6,0-0.9c0.1-0.3,0.2-0.2,0.4-0.3
	s0-0.3-0.1-0.5c0-0.2-0.2-0.4,0.3-0.4s0.9-0.1,0.9,0.1c0,0.2-0.5,0-0.4,0.4s0.6,0.4,0.7,1.3c0.1,0.9,0.3,1.2,0.3,1.6
	c0,0.3,0.2,0.2-0.4,0.9c0,0,0,0-0.1,0.1c-0.6,0.6-0.5,0.9-0.9,1.3c-0.4,0.4-1.4,1.6-1.8,1.8c-0.4,0.2-0.6,0.2-0.8,0.3
	s-0.4,0.7-0.1,0.8c0.3,0.1,0.5-0.1,0.9-0.2c0.4-0.1,0.9-1,1.4-1.2s0.9-0.4,1.2-0.8c0.1-0.3,0.5-0.9,0.9-1.5c0.3-0.4,0.5-0.7,0.7-0.8
	c0.5-0.2,1.8-0.4,2.2-0.8c0.3-0.4,0.2-1.2,0.5-1.5s1.2-0.7,1.4-0.9c0.1-0.2-0.2-0.4,0.4-0.5c0.7-0.1,0.9,0.2,1.1,0.3
	c0.3,0.2,0.2-0.4,0.3-0.6c0.1-0.2,2.9-1.9,3.3-2C190.1,166.4,190.5,166.7,190.6,167.1z M183.8,174.2c-0.3,0.2-0.2,0.6-0.3,0.8
	s-1-0.4-1.3-0.7s-0.3-0.8-0.3-0.9c-0.1-0.1-0.4,0.2-0.6,0.2c-0.2,0-0.2-0.2-0.4-0.1c-0.1,0.1-1.4,1.5-1.6,2.2
	c-0.2,0.7-0.2,1.2-0.5,1.6c-0.3,0.4-1,0.2-1.1,0.2c-0.4-0.1,0,0.3,0,0.6s1.5,0.6,1.7,0.4c0.2-0.2,0.3-0.9,0.7-1.1
	c0.4-0.2,0.8-0.1,1.2-0.2c0.4-0.1,0.8-0.4,1.6-0.7c0.8-0.2,1.7-0.4,1.8-0.6s-0.3-0.7-0.3-1.1C184.2,174.4,184.1,173.9,183.8,174.2z
	 M191.5,172.8c-0.3-0.2-0.7-0.1-0.3,0.3c0.4,0.3,0.5,1.3-0.2,2.1s-3.3,0.6-3.3,0.6c-0.9,0,0.7,0.8,2.3,1.1c1.7,0.3,3.6-0.7,3.7-1.3
	C193.9,174.9,191.8,173,191.5,172.8z"/>
</svg>
