<?xml version="1.0" encoding="utf-8"?>
<!-- Generator: Adobe Illustrator 27.2.0, SVG Export Plug-In . SVG Version: 6.00 Build 0)  -->
<svg version="1.1" id="Layer_1" xmlns="http://www.w3.org/2000/svg" xmlns:xlink="http://www.w3.org/1999/xlink" x="0px" y="0px"
	 viewBox="0 0 321.1 321.1" style="enable-background:new 0 0 321.1 321.1;" xml:space="preserve">
<style type="text/css">
	.st0{fill:#FE8E69;}
</style>
<path class="st0" d="M203.7,166.1c0-0.1-0.1-0.1-0.1-0.3l-5.4,1.1l-6.2,1.3l-0.6-2.2l-0.5-1.7l-1.3-4.6l-2-7l-0.7-2.4l-0.4-1.4
	l-2.9-10.2l-0.3,0.1l-5.2,1l-3.2,0.6l0,0l-5.4,1l-3.8,0.7l-3.8,0.7l-3.9,0.7h-0.1l-4.6,0.9l-10.9,2.1l-4.2,0.8l-0.7,0.1l-8.1,1.5
	l-2,0.4l-8.9,1.7l-1.4,0.3c0.5,3,1.5,10,1.8,12.1c0.1,0.3,0.1,0.5,0.1,0.6c0.1,0.1,0.3,0.1,0.5-0.1c0.6-0.4,1.7-1.5,1.9-1.9
	c0.1-0.1,0.4-0.6,0.9-1.2c1.2-1.7,3.3-4.4,3.3-4.4s0.1,0,0.2,0c0.5,0.1,1.6,0.3,1.8,0.2c0.2-0.1,2.6-3.7,2.9-3.9
	c0.3-0.1,0.8,0.8,1.7,0.8c0.1,0,0.3,0,0.5,0c1.2,0.1,3.2,0.2,3.6-0.3c0,0,0,0,0,0c0.3-0.6,1.3-2.6,1.7-3c0.1-0.1,0.3-0.1,0.5-0.1
	c0.3,0.1,0.6,0.3,0.8,0c0.4-0.5,0.4-1.5,1.1-1.9c0.7-0.4,2.2-0.3,2.7,0.3c0.3,0.3,0.4,0.7,0.6,1c0.1,0.2,0.3,0.3,0.6,0.3
	c0.8,0,2.2-0.5,2.6-0.4c0.4,0.1-0.6,1.6,0.4,1.9c0.2,0.1,0.5,0.1,0.6,0.2c0.6,0.1,0.9,0.2,0.9,0.7c0,0.7,0,1.1,0.6,1
	c0.6-0.1,0.3,0.2,0.5,1.1c0.1,0.5,0.3,0.8,0.6,1c0.2,0.1,0.4,0.2,0.8,0.2c0.1,0,0.3,0,0.5,0c1.1,0,1.8-0.5,1.9-0.1
	c0.2,0.5,0.4,1.1,1.3,1.2c0.1,0,0.3,0.1,0.4,0.1c0.5,0.2,0.4,0.7,0.1,1.1c-0.4,0.5-0.9,0.7-0.3,1.6c0.6,0.9,1.5,1.4,2.6,1.2
	c0.6-0.1,1-0.3,1.3-0.4c0.3-0.1,0.6,0,1,0.3c0.9,0.7,0.1,1.1,1,1.4c0.6,0.2,1.5-0.1,2.3,0.3l1-1.5l1,0.6l1.9,1.2l-1.9,3.3
	c0,0,0,0,0,0c0,0.5-0.1,0.9-0.3,1.3c-0.1,0.2-0.2,0.4-0.3,0.7c-0.4,0.8-1.1,1.9-1.5,2.5c0.2,0.2,0.4,0,0.6-0.1
	c0.2-0.1,0.5,0.2,0.2,0.5c-0.3,0.3-1.1,1.5-1.2,2.1c-0.1,0.7,0.1,2.3,0.3,2.6c0.3,0.4,0.7,1.1,1.1,1.1c0.3,0,1.2-0.9,1.6-1.3
	c0.5-0.4,0.6-0.4,0.8-0.7c0.2-0.3,0.7-0.8,0.8-0.8c0.2,0,0.8,1.6,1.1,2c0.4,0.4,1.1,1.1,1.5,1.3c0.4,0.2,1.1,0.6,1.4,0.8
	c0.2,0.2,0.4-0.1,0.4-0.4c0,0,0,0,0,0c0-0.3,0.1-0.4,0.3-0.2c0.2,0.3,0.4,0.9,1,0.9c0.6,0,0.9-0.5,1.7-0.5s1.8,0.2,2.1,0.6
	c0.3,0.4,1.7,1.5,2.1,1.6c0.4,0.1-0.3-0.6,0.2-0.7s1.6,0.6,1.8,0.9c0.2,0.3,1,0.8,1.2,0.8c0.2,0,0.1-0.5-0.2-0.9
	c-0.3-0.5-0.5-0.9-0.3-1.2c0.1-0.3,0.1-0.4-0.7-1.1c-0.7-0.7-1.6-2.2-1.6-2.9c0,0,0,0,0,0c0-0.8,0.5-1.4-0.2-1.9
	c-0.7-0.4-3.1-2.2-3.2-3.1c-0.1-0.9-0.9-3.2-0.8-3.6c0-0.1,0-0.1,0-0.2c0-0.3-0.4-0.5-0.5-0.8c-0.2-0.4-0.5-0.8,0.1-1.3
	c0.6-0.5,0.9-1,0.6-1.2c-0.2-0.2-0.4-0.3-0.5-0.5c0-0.2,0.4-1.1,0.6-1.5c0.2-0.4-0.3-1.6,0.2-1.9c0.4-0.3,0.8-0.5,0.4-0.8
	c-0.3-0.3-1-0.4-1-0.7c0.1-0.2,0.1-0.9-0.2-1.3c-0.3-0.3-1.9-1.1-2.3-1.5c-0.1-0.1-0.1-0.1-0.1-0.1c0-0.2,0.1-0.4,0.3-0.4h0.1
	c0.1,0,0.2,0,0.2,0c0.4,0.1,1.2,0.3,1.5,0c0.4-0.3,0.8-1.1,0.5-1.4c-0.2-0.3-0.6-0.4-0.4-0.9c0.2-0.4,0.5-0.2,0.8-0.4
	c0.3-0.2-0.1-0.7-0.1-1.1c0-0.1,0-0.2,0-0.3c0-0.2,0.1-0.3,0.2-0.2c0.2,0.1,0.4,1,0.8,1.3c0.3,0.2,0.2-0.5,0.4-0.8s2.8-3,2.8-3.4
	c0.1-0.5-0.1-0.8-0.5-0.9s-0.7,0-0.5-0.5c0.1-0.2,0.2-0.5,0.4-0.7l0,0c0.2-0.3,0.6-0.7,1.1-0.7c0.9-0.1,0.9,0.3,0.8,0.8
	c-0.1,0.5-0.6,0.9-0.4,1.4c0.2,0.5,0.3,0.3,0.5,0.4c0.2,0.1-0.6,0.8-0.6,1.2c0,0.3,0,0.3,0.3,0.4c0.3,0.1,0.8,0.2,0.2,0.3
	c-0.6,0.1-1.9,0-2.3,0.9c-0.4,0.9-1.7,4-1.4,4.9c0.3,0.9,1.1,1.2,1.2,1.9c0.1,0.8-0.4,1.2,0.1,1.4c0.5,0.2,0.7,0.3,0.7,0
	c0-0.3-0.4-0.7-0.2-1.3c0.2-0.6,0.4-1,0.6-0.7c0.1,0.1,0,0.3,0,0.6c0,0.1-0.1,0.3,0,0.5c0.1,0.5,0.3,0.5,0.3,0.8
	c0.1,0.3-0.3,1-0.6,1c-0.4,0-1.1,0.3-1.3,0.1c-0.2-0.2-0.2-0.8-0.5-1.1c-0.3-0.3-0.2,0.6-0.4,1.3c-0.2,0.7-0.6,0.7-0.5,1.4
	c0.2,0.7,0.5,1,0.6,1.7c0,0.7-0.4,1.3,0,1c0.4-0.3,0.7-0.6,0.6-1.2c-0.1-0.5-0.3-0.7-0.1-0.9c0.3-0.2,0.6,0.3,0.7,0.1
	c0.1-0.2-0.3-0.7-0.1-0.8c0.2-0.1,0.5,0,0.7,0c0.3,0,0.1-0.1,0.2-0.4c0.1-0.3,0.5,0,0.6,0.4c0.1,0.3,0.3,0.8,0.4,1.2
	c0,0.2,0.1,0.4,0.1,0.6c0,0.5-0.2,0.6-0.5,0.5c-0.3-0.1-0.6-0.6-0.7-0.6c-0.1,0-0.6,0.7-0.7,1.1c-0.1,0.3-0.3,2.7,0,3.3
	c0.3,0.6,0.9,0.4,0.8,0c-0.1-0.3-0.5-0.3-0.4-0.7c0.1-0.4,0.2-0.7,0.5-0.4c0.3,0.3,0.6,0.3,0.6,0c0-0.3-0.1-0.5,0.1-0.5
	c0.2,0,0.5,1.1,0.9,1.3c0.5,0.2,0.7-0.1,1,0.2c0.3,0.2,0.5,0.6,0.1,0.6c0,0-0.1,0-0.2,0c-0.7,0-1.5,0.3-1.8,0.8
	c-0.3,0.4-0.7,0.8-0.3,1.2c0.3,0.4,1,0.3,1,0.6c0,0.3-0.1,0.6-0.6,0.8c-0.5,0.2-1.2,0.3-0.8,0.6c0.4,0.4,1.7,1.4,1.6,1.9
	c0,0.4-0.1,0.8,0.3,0.8c0.3,0,0.7-0.2,0.8,0c0.1,0.2-0.7,0.3-0.6,0.6c0.1,0.3,0,0.7,0.6,0.8c0.6,0.1,0.7,0,0.8,0.3
	c0.1,0.3,0.8,1.2,1.3,1.1c0.5-0.1,0.9-0.3,0.5-0.5c-0.3-0.2-1-0.1-1-0.5c0-0.4,0.1-0.7,0.6-0.6s0.4,0.5,0.7,0.8
	c0.3,0.3,0.9,0.2,1.2,0.4c0.3,0.1,0.4-0.5,0.2-0.9c-0.2-0.4-0.9-0.3-0.7-0.8c0.2-0.5,0.6-0.2,0.6-0.7c0.1-0.6-0.5-1.2-0.1-1.2
	c0.3-0.1,1.3,0.2,1.3,0.7c0,0.5-0.7,0.5-0.8,0.9c-0.1,0.4,0.7,1.1,0.9,1.3c0.2,0.2,0.3-0.3,0.7-0.3c0.1,0,0.3,0,0.5,0.1
	c0.3,0.1,0.5,0.2,0.7,0.3c0.4,0.2,0.5,0.4,0.5,0.5c-0.1,0.2-1.5,0.2-1.6,0.5c-0.1,0.3-0.2,1.2-0.1,1.6c0.2,0.4,0.6,0.4,0.9,0
	c0.3-0.4,0.6-0.6,0.9-0.6c0.3,0,0.9-0.1,0.5,0.4c-0.4,0.5-0.8,0.5-0.7,0.9c0.1,0.4,0.1,0.9,0.4,0.7c0.2-0.2,0.3-0.7,0.6-0.7
	c0.3,0,0.6,0.2,0.4,0.5c-0.2,0.3-0.7,0.4-0.7,0.8c0,0.5-0.5,0.8-0.5,1.1c0,0.3,0.4,0.4,0.4,0.8c0,0.4-0.4,0.9,0,0.9
	c0.4,0,1.2-1.1,1.7-1.4c0.4-0.3,1.4-0.4,1.8-0.3c0.4-0.2,0.8-0.5,1-0.9c0.1-0.1,0.2-0.2,0.4-0.3c0.8-0.5,2.7-1.1,4.6-1.7
	c0,0,0-0.1,0-0.1c-0.1-0.8-0.3-1.3,0-1.6c0.3-0.3,0.7-0.5,0.8-1.1s0.2-2.3,0.7-2.8c0.4-0.5,0.5-0.9,0.6-0.6c0.1,0.3,0,0.9,0.2,0.8
	c0.3-0.1,0.3-0.7,0.5-0.5s-0.1,3-0.3,3.4c-0.1,0.1-0.4,1-0.8,2c-0.6,1.4-1.3,3-1.4,3.2c-0.3,0.4-0.5,0.7-0.3,1
	c0.3,0.3,0.7,0.7,1.1,0.4c0.4-0.3,0.6-2.3,1-3.2c0.1-0.3,0.3-0.9,0.5-1.6c0.3-1.4,0.7-3.1,0.7-3.5
	C203.3,172.7,204,166.8,203.7,166.1z"/>
</svg>
