<?xml version="1.0" encoding="utf-8"?>
<!-- Generator: Adobe Illustrator 27.2.0, SVG Export Plug-In . SVG Version: 6.00 Build 0)  -->
<svg version="1.1" id="Layer_1" xmlns="http://www.w3.org/2000/svg" xmlns:xlink="http://www.w3.org/1999/xlink" x="0px" y="0px"
	 viewBox="0 0 321.1 321.1" style="enable-background:new 0 0 321.1 321.1;" xml:space="preserve">
<style type="text/css">
	.st0{fill:#FE8E69;}
</style>
<path class="st0" d="M195.3,156.3c-0.5-1-4.4-6.1-5-6.2c-0.6-0.1-2.3-0.2-2.4-0.1c-0.2,0.1,0.2,0.7-0.1,1.2s-0.3,1-0.9,0.5
	c-0.6-0.5-2.9-2.2-2.9-2.6c0.1-0.4,0.3,0,0.5-0.4c0.1-0.5,0.1-1.6-0.3-2.9c-0.4-1.3-1-3.7-1.4-4c-0.3-0.3-0.3-0.4-0.6-0.4
	c-0.2,0-0.1,0.4-0.6,0.3c-0.5,0-5.4,0.1-5.6-0.2l0,0c-0.2-0.4-0.8-2.2-0.7-2.5s0.5-0.5,0.4-0.7c-0.1-0.3-7.8-28-9.1-28.8
	s-7.3-4.4-9.6-4.2c-2.3,0.2-7.1,6.9-8.4,6.8c-1.3-0.1-2.4,0.2-2.9-0.9c-0.6-1-1-1.8-1-2.4c0.1-0.6,0.3-1.1,0-1.5s-3.1-0.2-3.2-0.1
	c-0.2,0.1-7.4,20.2-7.4,21c0,0.7,0.3,2.4,0.4,3.3c0,0.1,0,0.2,0,0.2c0.1,0.8,0.6,2.9,0.4,3.6c-0.2,0.7-1.2,1.2-1.6,1.7
	c-0.4,0.5-0.5,1.6-0.6,2.2c-0.1,0.6-0.2,2.4,0,3.4s0.5,3.7,0.9,4s1.1-0.1,1.3,0.5s-0.7,3.4-1,4s-0.9,2.6-1.3,2.9
	c-0.1,0.1-0.4,0.5-0.8,0.9c-0.6,0.8-1.5,2-1.7,2.5c-0.2,0.7-0.3,5.5-0.5,7.6c0,0.6-0.1,1-0.1,1c-0.3,0.2-1.3,0-1.9-0.7
	c-0.6-0.6-1.1-0.7-1.5-0.6c-0.2,0.1-0.6,0.2-1,0.4c1.2,3.7,4.9,15.5,7.9,24.9c1.4,4.2,2.6,7.9,3.3,10.2c0.4,1,0.6,1.8,0.7,2.1
	c0.6,1.5,0.9,2.8,1.2,4c0.2,1.2,0.3,2.2,0.3,3c0.1,1.7,3.5,2.2,3.7,2.3c0.1,0.1,0.8,2.6,1,3c0,0,0,0,0,0.1c0.3,0.3,1.8,0.9,2.6,1.1
	c0.3-0.4,0.5-0.6,0.6-0.3c0.2,0.3,0.4,0.3,0.4,0.1c0.1-0.2,1.3-3.6,1-3.9c-0.3-0.4-0.7,0.2-0.7-0.5c-0.1-0.7,0.1-2,0.5-2.3
	c0.4-0.2,0.9,0,1-0.4c0.1-0.3,1.2-2.4,1-2.8c-0.2-0.4-0.8-0.5-0.8-1c0.1-0.5-0.2-1.2,0.3-1.5l0,0c0.5-0.3,2.7-1.2,2.6-1.6
	c0-0.4-2-1.7-2-2.2c0.1-0.6,0.6-2,0.9-2.5c0.3-0.4,1.3-2.6,1.5-2.7c0.2-0.1,0.5,0.7,0.6,1.2c0,0.5-0.4,2.1-0.4,2.2s1-0.7,1.2-0.9
	c0.1-0.2,0.7-1.2,1-1.3c0,0,0,0,0.1,0c0.2,0.1,0.7,1.3,1.1,1.3c0.5,0,1.2-0.6,1.4-1.4c0.2-0.8,0-1.4,0.2-1.6c0,0,0,0,0.1,0
	c0.3-0.1,3-1,3.2-1.4s0.3-1.9,0.3-2.3c0-0.4-0.4-1,0.1-1.3c0.4-0.3,0.4,0,1,0c0.1,0,0.2,0,0.2,0c0.8-0.1,0.7-0.3,1-0.3
	s0.5,0.6,0.9,0.6s1-0.7,1.1-0.9s-0.3-0.3-0.2-0.6s1.5-1.8,1.6-2.1s-0.3-0.4,0-0.7s0.4-0.4,0.3-0.8c-0.2-0.4-0.2-0.3-0.3-0.2
	c-0.2,0.1-0.4,0.4-0.5,0.2c-0.1-0.3-0.2-0.9-0.3-1.3c-0.1-0.4,0.2,0,0.3-0.3s0-0.3-0.1-0.8c-0.1-0.3-0.2-0.5-0.2-0.6s0-0.2,0.1-0.3
	c0.3-0.3,0.8-1.4,0.7-2.3c0-0.9-0.2-1.1-0.6-1.3c-0.3-0.2-0.5-0.4-0.5-0.7c0-0.2,0.7-0.5,0.7-0.7s-0.1-0.2,0.1-0.3
	c0.2-0.1,0.2,0.1,0.6,0.2c0.3,0.1,0.7-0.8,1-1.1c0-0.1,0.1-0.1,0.1-0.1c0.2-0.1,0.4,0.3,0.3,0.6c-0.2,0.3-0.5,0.1-0.3,0.8
	s0.4,0.9,0.4,1.3c0,0.5-0.2,0.8,0.1,1s1.1,0.1,1.3-0.3c0.2-0.4,0.8-0.4,1-0.3s2.6,0.7,2.8,0.9s0.7,0.2,0.7-0.1s-0.3-1.3-0.7-1.4
	c-0.3-0.2-0.5,0.3-0.7-0.2s-0.2-1.2-0.3-1.6c-0.1-0.5,0.1-0.6,0.3-0.6c0.2-0.1,0.2-0.3,0.3-0.5s0.4,0.1,0.6,0.6
	c0.2,0.4,0.4,0.7,0.5,0.4s-0.3-0.7-0.3-1.2s0.1-0.7,0.3-0.6c0.2,0.1,0,0.9,0.4,1s0.6-0.5,0.9-0.7c0.3-0.3,1.2-0.7,1.4-1.1
	c0.1-0.4-0.2-1,0.1-1.1s0.8,0,1.3-0.1c0.4-0.1,0.6-0.3,0.9-0.3c0.3,0,0.1,0.4,0.4,1.1c0.2,0.7,1.3,2,1.9,2c0.6,0-0.1-1.2,0.1-1.6
	c0.2-0.4,0.8,0.4,1,0c0.1-0.4-0.1-0.2-0.1-0.6c0-0.1,0.1-0.1,0.1-0.2c0.3-0.2,0.9-0.1,1.1-0.3c0.3-0.3,0.1-1,0-1.7s-0.6-1.6-0.4-1.9
	c0.2-0.4,1.6,0.8,2.1,0.7s0.1-0.4,0.4-0.8c0.3-0.4,0.9-0.3,1.3-0.5c0.5-0.2,0.7-0.5,0.7-0.9s-0.5-1-0.4-1.4c0.2-0.4,0.4-0.9,0.8-0.6
	c0.4,0.3,0.4,0.7,1,0.5c0.6-0.1,1-1.1,1-1.6c-0.1-0.5-0.5-0.6-0.5-1c-0.1-0.4,0.5-0.7,0.6-0.7s0.2,0.4,0.5,0.9
	c0.3,0.4,0.5,0.5,0.5,0.7c0,0.1-0.6,0.3-0.4,0.6c0.1,0.3,0.8,0.2,1.1,0c0.2-0.1,2-2.8,2.3-3.9C194.6,158.4,195.8,157.3,195.3,156.3z
	 M170.8,188.1c-0.1,0-0.2,0.4-0.2,0.4c-0.1,0.2,0.3,1,0.6,1.3s0.4-0.5,0.4-0.8c0-0.2-0.1-0.1-0.2-0.5
	C171.2,188.1,170.9,188,170.8,188.1z M170.4,182c0-0.2,0.9-0.1,0.8-0.3c0-0.2-0.3-0.2-0.8-0.4s-0.6-0.5-0.8-0.4s-1.3,1.6-1.4,1.8
	c-0.1,0.2-0.1,0.5-0.1,0.8c0,0.2,0.4,0.1,0.8,0.3s0.6,1.1,1.1,1.4c0.6,0.3,1.5-1.4,1.5-1.7c0-0.4-0.5-0.9-0.7-1.1
	C170.6,182,170.4,182.1,170.4,182z M173.8,181.4c-0.2,0-0.7,0.9-0.7,0.9c-0.2,0.3,0.3,0.6,0.5,1.1s0,0.8,0.2,0.8s0.3-0.4,0.6-0.4
	c0.2,0,0.3,0.2,0.4-0.3c0.1-0.5-0.1-1.4-0.2-1.7C174.3,181.5,174,181.4,173.8,181.4z M173.4,180.1c0.1-0.4-0.2-1.3-0.5-1.6
	c-0.2-0.3-1.3-0.5-1.5-0.3s0.1,0.2,0.1,0.6c0,0.3-0.4,0.4-0.5,0.4s-0.1,0.1-0.1,0.4c0,0.3,0.3,0.4,0.3,1c0,0.5,0.1,0.4,0.5,0.6
	c0.4,0.1,0.5,0.4,0.8,0.4s0-0.3,0.2-0.5C173,180.7,173.4,180.5,173.4,180.1z M167.7,178c0-0.3,0.5-0.2,0.4-0.8
	c-0.1-0.5-0.7-1-0.9-0.8c0,0-0.5,0.4-0.4,0.7s0.2,1.1,0.3,1.6c0,0.5-0.2,0.9-0.2,1.2s0.1,1,0.5,0.9s0.2-0.2,0.4-0.7
	c0.3-0.4,0.4-1.1,0.3-1.4C168.1,178.4,167.7,178.2,167.7,178z M173.6,174.7c-0.2-0.2-0.5-0.2-0.4,0.1c0.1,0.1,0.4,0.6,0.4,0.9
	c0,0.3,0,0.6,0.3,0.5c0.4,0,0.8-0.3,0.5-0.6C174.3,175.3,173.8,174.9,173.6,174.7z M175.8,178.5c-0.1-0.3-0.8-1-0.8-0.7
	c0,0.1,0,0.9,0.3,1C175.5,178.8,175.9,178.8,175.8,178.5z M175.3,180.5c0,0-0.3,0.3,0,0.6s0.4,0.5,0.5,0.1
	C175.9,180.8,175.5,180.3,175.3,180.5z M176.3,178.3c0,0-0.7,0.6-0.9,0.8c-0.2,0.3-0.5,0.8-0.1,0.8s0.5-0.5,0.7-0.1
	c0.2,0.3-0.1,0.9,0.5,0.5c0.6-0.3,0.9-0.5,0.6-1C176.9,178.8,176.5,178.2,176.3,178.3z M178,178.5c0-0.4,0.1-0.9-0.2-0.8
	c-0.1,0-0.7,0.2-0.7,0.4c0,0.3,0.1,0.7,0.5,0.8S178,178.9,178,178.5z M177.6,179.8c-0.1,0.1,0,0.4,0.1,0.6c0.1,0.3,0.8-0.2,1.1-0.4
	s-0.4-0.3-0.7-0.5C177.7,179.2,177.6,179.8,177.6,179.8z M178.9,173.2c-0.3-0.2-1.5-0.2-1.9,0.1s-1.1,0.9-1.1,1
	c-0.3,0.3-0.3,1.2-0.3,1.8s0.5,1.2,1.6,1.4s1-0.4,1-0.7c0-0.2-0.2-0.5-0.1-0.8c0.1-0.3,0.7-0.4,1.1-0.5c0.4-0.1,0.5-0.6,0.5-1.1
	C179.6,173.9,179.1,173.4,178.9,173.2z M178.3,176.3c0,0-0.1,0.2-0.1,0.4c0,0.3,0.7,0.1,1-0.2s0.3-0.5,0-0.8
	C179,175.6,178.6,176.2,178.3,176.3z"/>
</svg>
