<?xml version="1.0" encoding="utf-8"?>
<!-- Generator: Adobe Illustrator 27.2.0, SVG Export Plug-In . SVG Version: 6.00 Build 0)  -->
<svg version="1.1" id="Layer_1" xmlns="http://www.w3.org/2000/svg" xmlns:xlink="http://www.w3.org/1999/xlink" x="0px" y="0px"
	 viewBox="0 0 321.1 321.1" style="enable-background:new 0 0 321.1 321.1;" xml:space="preserve">
<style type="text/css">
	.st0{fill:#FE8E69;}
</style>
<path class="st0" d="M242.1,198c-0.3-0.2-1.1-1.3-1.5-2.2c-0.1-0.3-0.3-0.7-0.4-1c-0.3-0.7-0.6-1.6-0.7-2.5
	c-0.1-1.3-0.2-2.7-0.4-3.5s-2.3-3.6-2.3-4.2c0-0.3-0.1-1.2-0.3-2.1c-0.2-0.9-0.3-1.8-0.5-2c-0.3-0.5-2-4.5-3-5c-1-0.4-2-1.5-3.3-1.4
	s-4.9,2.9-5.4,3.1c-0.4,0.2-2.6,4.4-2.7,5.1c-0.1,0.7,0.1,1-0.3,1.3c0,0,0,0-0.1,0.1c-0.5,0.5-2.8,3.2-3.3,3.3c-0.1,0-0.1,0-0.1,0
	c-0.4,0.1-0.6,0-1.2-0.2c-0.7-0.2-3.5-2.4-3.4-2.8c0.1-0.4-0.1-2.5,0-3.6c0-0.2,0.1-0.4,0.1-0.6c0.3-0.6,0.6-1.2,0.9-1.5
	c0.3-0.2,1.6,0,2.4-0.4c0.8-0.4,1.5-1.1,1.7-1.9c0.1-0.4,0-1.5,0-2.5c0-0.9-0.1-1.7,0-1.9c0.2-0.5,0.7-1.2,1.1-1.1
	c0.4,0.1,0.4,0.3,0.6,0.1c0.3-0.1,1.3-1,1.5-1.6c0.1-0.6,0.2-2.2,0.2-2.6c0-0.2,0-1,0-1.9c0-1.5-0.1-3.3,0-3.8
	c0.1-0.8-0.7-4-1.1-4.3c0,0-0.1-0.1-0.2-0.1c-0.7-0.4-2.4-1.1-2.5-2c-0.1-1-0.4-1.7-0.2-2.1c0.2-0.4,0.6-0.7,0.9-0.5
	c0.4,0.1,0.6,0.7,1.5,0.8c0.8,0.1,1.2,0.1,0.8-0.6c-0.4-0.7-1.3-2.7-2-3.2c-0.2-0.1-0.4-0.3-0.6-0.6c-0.5-0.6-1-1.5-1.1-1.9
	c-0.1-0.5-1-1.5-1.2-1.5c-0.3-0.1,0,0.4-1.1,0.4s-1.7-0.1-2.2-0.4s-2.8-1-3.9-1.4s-2.4-0.9-3-1.2c-0.6-0.2-1.4-0.4-2.4-1.8
	c-0.7-1-0.8-0.9-1.2-0.8c-0.2,0-0.4,0.1-0.6,0c-0.9-0.3-1-0.2-1.3,0s-1.1,0.6-1.8,0.3c-0.6-0.3-4.1-1.9-4.3-2.2
	c-0.1-0.2,0-0.4-0.4-0.5l0,0c-0.4-0.1-1.4,0-1.4,0.2s0.3,0.3,0.4,0.5c0.1,0.3,0.1,0.5-0.3,0.4c-0.4-0.1-2.8-0.2-3-0.1
	c-0.2,0.1,0.4,0.6,0.6,1s0.1,0.6-0.3,1c-0.5,0.3-1.7,2.1-1.8,2.7s0,1.6,0.5,2.3c0.5,0.6,0.8,1.1,1.4,1.2c0.7,0.1,1.8-0.1,2,0.2
	s-0.2,0.9-0.9,1.1c-0.3,0.1-1,0.1-1.6,0.1c-0.7,0-1.3,0.1-1.5,0.1c-0.4,0.1-3.4,2.5-3.6,3c-0.1,0.3,0,0.8,0.1,1.4
	c0.1,0.6,0.3,1.3,0.5,1.7c0.4,0.7,0.2,3.1,0.3,3.6c0,0.5,0,2.5-0.4,2.9l0,0c-0.4,0.4-1.2,1.2-1.3,1.5s-0.4,1.3-0.5,1.5
	s-0.4,0.2-0.4,0.1c0-0.1-0.1-0.7,0.1-1.2c0.2-0.5,0.4-0.7,0.6-1.1c0.2-0.4-0.1-1.1,0-1.5s-0.1-0.7,0.2-0.9c0.2-0.3-0.3-0.9-0.6-1.1
	c-0.2-0.1,0,0.2-0.1,0.6c-0.1,0.4-0.5,1.3-0.6,1.6s-0.1,0.5,0.1,0.6c0.3,0.1,0.5,0.1,0.3,0.3c-0.1,0.2-0.4-0.1-0.3,0.3
	c0.1,0.4,0.2,0.6,0,0.7s-0.4,0-0.5,0.5s0,1.1-0.2,1c-0.1-0.1-0.3-0.2-0.4-0.4c-0.2-0.2-0.3-0.6-0.3-1c-0.1-0.8-0.2-1.2,0-1.7
	s0.4-0.7,0.1-1.2c-0.3-0.5-0.4-1.2-0.2-1.5s0.5-1.4,0.3-1.7c-0.3-0.3-0.6-0.5-0.5-1.1s0.2-0.7,0.6-1c0.4-0.3,0.8-0.5,0.5-0.9
	s-0.2-0.4-0.7-0.2c-0.5,0.3-0.9,0.5-1,0.9c-0.2,0.4-0.3,1.2-0.4,1.8c-0.1,0.7-0.5,1.3-1,1.5s-0.6,0.3-0.6,0.7s0.2,0.5-0.2,1
	s-0.8,1.4-1.2,1.3c-0.3-0.1-0.3-0.5-0.7-0.5c-0.4-0.1-1,0.3-1,0.4c0,0.1,0.1,0.9-0.2,1.1c-0.2,0.2-0.6,0.7-0.7,0.4
	c-0.1-0.3-0.2-0.5-0.4-0.5s-0.4,0.1-0.3,0.4c0,0.3,0.3,1.5,0.2,2.5c0,0.5-0.1,0.9-0.3,1.1c-0.5,0.6-2.5,0.9-2.7,1.3
	c-0.2,0.4,0,1.5,0.2,1.9c0.2,0.3,0.7,1.1,0.7,1.9c0,0.1,0,0.3,0,0.5c-0.1,1.5-0.3,5.1-0.4,5.5c-0.1,0.3-0.5,1.9-0.9,3.2
	c-0.2,0.6-0.4,1.1-0.5,1.4c-0.5,0.9-1.5,1.8-1.5,2.1s1.2,1.4,1.5,2.1c0.2,0.5,0.6,2,0.7,3.1c0,0.4,0,0.7,0,0.9
	c-0.2,0.7-1.6,2.2-1.5,3.2s1.3,3.1,1.5,3.5c0.1,0.1,0.2,0.3,0.3,0.7c0.7,1.5,2.1,4.6,2.4,5.1c0.3,0.6,1.7,2.5,1.9,3.1l0,0
	c0.2,0.6,1.9,7,1.8,7.5c0,0.1,0,0.3,0,0.6c-0.1,1.8-0.1,6.8-0.2,8.5c0,0.3,0,0.5-0.1,0.6c-0.1,0.4-0.7,2.7-1,3.6
	c-0.1,0.2-0.1,0.3-0.1,0.3c-0.2,0.2-2.3,4.6-2.5,5.2c-0.2,0.7-0.5,2.7-0.8,3.1c-0.3,0.3-1.3,2.4-3.2,3.5c0,0-0.1,0-0.1,0.1l5-0.5
	l5.1-0.5l3.2-0.3l4.4-0.4l2.5-0.2l6.6-0.6l1.9-0.2l6.4-0.6l0.1,1l0.1,0.5l7.5-1.3l0.8-0.1l8.4-1.5l2-0.4l5.6-1c0-0.1,0-0.2,0-0.3
	c0-0.7-0.1-1.2,0.1-1.4c0.2-0.2,1-2.1,1.4-2.6c0.3-0.4,1.6-1.7,2.1-2.5c0.1-0.1,0.2-0.3,0.2-0.4c0.2-0.6-0.1-0.8,0.2-1.2
	s0.1-0.9,0.2-1.6c0.1-0.7-0.2-2.5,0.1-2.9c0.2-0.4,0.2-1.6,1.3-1.9c1.1-0.3,1.8-0.7,2.1-1.5c0.1-0.4,0.2-1.2,0.4-1.9
	c0.1-0.8,0.3-1.7,0.4-1.9c0.2-0.4,1-2.2,1-2.9c0-0.4,0.1-0.7,0.2-0.9c0.1-0.1,0.2-0.2,0.4-0.3c0.4-0.1,1.4,0.2,1.4,0.4
	s0.1,0.6-0.2,0.7c-0.3,0.1-0.6-0.1-0.7,0.2c-0.2,0.2-0.7,0.6-0.5,1s0.6,1.2,1.2,1.3c0.6,0,0.5-0.2,0.9-0.3c0.4,0,1.2-1.1,1.3-1.6
	s0.2-2.2,0.3-2.6c0.1-0.4,0.1-0.8,0.1-1C242.1,204.4,242.4,198.3,242.1,198z M173.7,135.6c0.8-0.2,0.4-0.4,1-0.5c0,0,0,0,0.1,0
	c0.6-0.1,2.3,0.2,2.9-0.1c0.6-0.3,0.8-1.6,1.2-2.1c0.5-0.5,0.7-1.7,2.1-1.8c1.4,0,7.3,0.9,7.9,1.3c0.6,0.5,3.7,3.4,4.1,3.3
	c0.5,0,0.9-0.3,0.9-0.7s-0.7-1-0.4-1.8s-0.1-2.4,0.4-2.4c0.5-0.1,5,1.6,6.4,1.5c0.9-0.1,1.9-0.5,2.6-0.8c0.3-0.1,0.6-0.2,0.8-0.2
	c0.7,0.1,0.3,0.5,1.9,0.4c1.6,0,2,0,2.2-0.2s-0.2-1.3-0.9-1.8c-0.6-0.5-0.7,0-1.2-0.2s-1.4-0.6-1.3-1.2c0.1-0.6,0.5-0.6,0.6-0.9
	s-2-0.7-2.4-0.9c-0.4-0.2-1,0.1-1.2,0s-0.4-0.5-0.4-0.7c0.1-0.2,1.2-0.7,1.1-1.2c-0.1-0.4-0.7-0.5-0.8-0.9s-0.3-0.9-0.3-1.2
	c0-0.3-0.4-0.4-0.6-0.7c-0.1-0.4,0.1-1.3-0.6-1.9c-0.7-0.6-0.7-0.9-1.3-0.9c-0.7-0.1-1.9,0.6-1.7,1c0.1,0.4,0.3,0.8,0.1,0.9
	c-0.3,0.1-0.5-0.1-0.8,0c-0.3,0.2-0.5,0.6-0.9,0.5s-0.3-0.5-0.6-0.8s-0.1-0.6-1.2-0.6c-1.1,0-1.6,1.3-2.2,1.3
	c-0.6,0-0.2-0.2-0.8-0.4c-0.6-0.3-1.1,0.1-1.4-0.2c-0.2-0.4-0.2-0.3-0.4-0.1c-0.2,0.1-0.5,0.5-0.9,0.4s-0.8-0.4-0.7-1.4
	c0-1.1-0.2-3.5,0-4c0.2-0.4,0.6-1.2,0.8-1.6s0-0.3-0.5,0s-0.7,0.6-1.3,0.6s-1.8-0.1-2.7,0.2h-0.1c-0.9,0.4-3.1,2.4-4.5,2.5
	s-4.2,0.2-5.1,0.3c-0.1,0-0.2,0-0.4,0c-1.3,0.2-4.6,1-5.1,1.2c-0.6,0.3-2.5,2.2-3.4,2.6s-2.4,1-2.5,1.3s-0.1,0.4-0.4,0.5
	c-0.3,0.1-0.4,0.3-0.4,0.5s0.1,0.7-0.3,0.8c-0.3,0.1-0.4,0.1-0.3,0.4c0,0.3,0.1,0.7-0.2,0.6c-0.3,0-0.5-0.4-0.6-0.4
	c-0.1-0.1-0.7,0.3-0.9,0s-0.1-0.7-0.8-0.8c-0.7-0.1-0.7,0.4-0.8,0.7c-0.1,0.3-0.5,0.5-0.7,0.3c-0.2-0.3-1.2-0.8-1.3-1.4
	s-0.3-0.7-0.9-0.7c-0.7,0-0.4,0.4-1.3,0.7c-0.1,0-0.1,0.1-0.2,0.1c-0.7,0.3-1,0.6-2.6,0.6c-1.7,0-2.2-0.4-2.9-1.5
	c-0.7-1.2-2.8-2.9-2.9-3.5c-0.1-0.6,0.2-1-0.3-1.5s-3-2-4.3-2.3s-2.3,0.2-3.2-0.2c0,0-0.1,0-0.1-0.1c-0.9-0.4-1.5-1.1-1.7-1.1
	s-3.3,3-3.7,3.9c-0.4,1-0.7,1.2-1,0.9c-0.3-0.3-0.6-0.5-0.4-1.9c0.1-0.5,0.2-1.1,0.3-1.7c0.1-0.4,0.2-0.7,0.3-1
	c0.2-0.6,0.4-1.1,0.6-1.3c0.4-0.4,1.5-3.1,2.1-3.9c0.1-0.1,0.2-0.2,0.3-0.3c0.5-0.2,2.3-2,3-3.3c0.7-1.2,1.1-1.4,2.2-1.5
	c1-0.1,2.8-0.3,2.8-0.8s-0.2-1.2-1.4-1.3s-4.4-0.1-6.4,0.6s-4.4,2.9-4.6,3.4c-0.1,0.3-0.3,0.8-0.5,1.2c-0.1,0.2-0.3,0.4-0.5,0.5
	s-1.4,1-2.5,1.9c-1.4,1.1-2.8,2.3-3,2.6c-0.3,0.5-0.2,1-0.6,1.6c0,0,0,0.1-0.1,0.1c-0.5,0.6-6.2,4.9-7.2,5c-1.1,0.2-3.2,0.7-4.5,0.6
	c-1.2-0.1-2.3,0.6-3.1,1.1c-0.1,0.1-0.2,0.2-0.3,0.2c-0.7,0.6-0.4,2.2-2.2,2.8c-1.7,0.5-4.8,2-5.8,2.6c-0.1,0.1-0.2,0.1-0.2,0.1
	c0.8,0.6,1.5,1.1,1.7,1.4c0.5,0.6,2.2,3.6,2.9,4c0.2,0.1,1.6,0.4,3.6,0.8c4.9,1,13.2,2.4,14.2,2.7c0.6,0.2,1.3,0.6,1.9,0.9
	c0.3,0.2,0.7,0.4,0.9,0.5c0.3,0.2,0.7,0.3,0.9,0.4c0.9,0.2,2.5,0.2,2.9,0.5c0.2,0.2,0.5,0.5,0.7,0.8c0.2,0.2,0.4,0.4,0.6,0.4
	c0.5,0,0.9-1,3.2-0.7c1.6,0.2,4.1,0.6,5.4,1c0.6,0.2,0.9,0.4,1,0.6c0,0.8-1.3,1.6-0.9,2.2c0.2,0.3,0.6,0.5,1.3,0.6
	c0.8,0.2,1.8,0.4,3,0.7c0.4,0.1,0.6,0.2,0.9,0.4c1.2,0.9,0.9,2.5,0.9,4c0,1.8-1.8,4.2-1,4.5c0.7,0.3,1.4,0.6,2,0.3s0.3-1.1,1-0.9
	c0.8,0.1,1.3,1.2,0.9,1.6c-0.4,0.4-1.6,2.1-0.9,3.2c0.7,1.1,0.9,1.6,1.8,1.8c0.3,0.1,0.6,0.2,0.9,0.2c0.3-0.6,0.8-2.8,1.1-3.4
	c0.3-0.7,2.4-3.9,2.6-4.8c0.1-0.4,0.5-1.9,0.9-3.2s0.9-2.5,1.1-2.7c0.4-0.3,1.1-0.4,1.4-1.1c0.3-0.6,0.9-1.2,0.7-1.5
	c-0.1-0.3-0.8-0.7-0.6-1.1c0.2-0.4,0.9-0.8,1-1.2s0-1.3,0.3-1.5c0.2-0.2,0.3,0.1,0.4,0.4c0.1,0.3-0.3,0.9-0.4,1.1
	c-0.1,0.2,0,0.3,0.3,1.1s-0.1,3.1,0.3,3.1c0.4,0,0.8-0.5,1.6-1.2s1.4-1.5,1.4-2.2s-0.3-1.3-0.1-1.6c0.3-0.2,0.6-0.3,1,0.1
	c0.4,0.4,0.8,0.3,1.2,0.2s0.5-1,1-1.3c0.5-0.4,0.7-0.4,0.9,0.2c0.1,0.6-0.1,0.9-0.4,1.4c-0.3,0.5-0.3,0.6-0.1,0.8
	c0.2,0.1,0.1,0.3-0.4,0.3c-0.6,0-0.4,0-0.7,0.5c-0.2,0.5-0.2,1-0.3,1.2c-0.2,0.3-0.4,0.1-0.5,0.4c-0.1,0.3-0.1,0.9,0.4,1.4
	c0.5,0.4,0.5,0.5,1.1,0.5s0.6,0.1,0.3-0.5s-0.5-1-0.1-0.9s0.7,0.4,0.7-0.2c-0.1-0.6-0.7-1.2-0.1-1.1c0.7,0.1,0.9,0.6,0.8-0.1
	c-0.1-0.7-0.5-1.2,0.2-1c0.2,0,0.4,0.1,0.6,0.1c0.3,0,0.5-0.1,0.6-0.5c0.1-0.6,0.2-0.4,0.7-0.4c0.6,0,0.6-0.4,0.7-1.7
	c0-1.3-0.2-2.1,1.7-2.5C170.6,135.6,172.9,135.8,173.7,135.6z"/>
</svg>
