<?xml version="1.0" encoding="utf-8"?>
<!-- Generator: Adobe Illustrator 27.2.0, SVG Export Plug-In . SVG Version: 6.00 Build 0)  -->
<svg version="1.1" id="Layer_1" xmlns="http://www.w3.org/2000/svg" xmlns:xlink="http://www.w3.org/1999/xlink" x="0px" y="0px"
	 viewBox="0 0 321.1 321.1" style="enable-background:new 0 0 321.1 321.1;" xml:space="preserve">
<style type="text/css">
	.st0{fill:#FE8E69;}
</style>
<path id="Mississippi_2_" class="st0" d="M203,213.8c-0.2-2.1-0.4-4.2-0.7-6.4c-0.1-1-0.2-1.9-0.3-2.9c-0.3-2.6-0.6-5.2-0.8-7.6
	c-0.3-2.4-0.5-4.6-0.7-6.4c-0.3-2.5-0.5-4.3-0.6-4.9c0,0,0,0,0,0c-0.1-0.5-0.1-3.4-0.1-7.7c0-0.7,0-1.4,0-2.1c0-2,0.1-4.2,0.1-6.6
	c0-2.6,0.1-5.4,0.2-8.3c0-0.6,0-1.2,0-1.7c0.1-2.3,0.1-4.7,0.2-7c0-2,0.1-4,0.1-5.9c0-1.7,0.1-3.4,0.1-5.1c0.1-2.6,0.1-5.2,0.2-7.6
	c0-0.3,0-0.6,0-0.9c0-1.8,0.1-3.6,0.1-5.2c0-1.4,0.1-2.7,0.1-4c0-1,0.1-1.9,0.1-2.8c0.1-4.3,0.2-7,0.2-7l-0.2-0.2l-2.5-2.7
	c-0.9,0.1-1.8,0.1-2.7,0.2c-0.1,0-0.2,0-0.3,0c-2.7,0.2-5.4,0.4-8,0.6c-0.3,0-0.5,0-0.8,0.1c-1.2,0.1-2.4,0.2-3.5,0.3
	c-1.2,0.1-2.5,0.2-3.7,0.3c-1,0.1-2,0.1-3,0.2c-2,0.1-3.9,0.3-5.7,0.4c-0.6,0-1.1,0.1-1.7,0.1c-4.6,0.3-8.5,0.6-11.3,0.7
	c0.1,0.9,0.4,2.3,0.5,3c0,0.2,0,0.3,0,0.3c-0.1,0.2-1.5,0.5-2,0.9c-0.1,0.1-0.2,0.1-0.2,0.2c-0.3,0.4-2.6,3.4-2.8,4.5
	c0,0.1,0,0.2,0,0.3c0,0.7,0.1,1.7,0.1,2.7c0.1,1.1,0.1,2.1-0.2,2.7c-0.7,1.2-2.8,0.8-3.2,1.1c-0.4,0.4-2.6,4.6-3.1,5.5
	c-0.2,0.4-0.2,0.7-0.1,0.9c0.1,0.2,0.4,0.4,0.7,0.7c0.6,0.5,0.6,0.8,0,1.5c-0.5,0.7-2.8,1.2-3.3,1.7c-0.5,0.6-0.7,4.1-1.5,6.3
	c-0.8,2.2,0.9,1.9,0.7,2.4c-0.2,0.5-1.6,0.7-1.8,1.2c0,0.1,0.1,0.3,0.3,0.5c0.7,0.7,2.3,1.8,2.1,2.2c-0.1,0.5-1.3,0.1-1.3,0.3
	c0,0.2,1.9,3.9,2.1,4.5c0.3,0.6,0,2.3-0.2,3.8c-0.1,0.5-0.2,0.9-0.5,1.3c-0.1,0.2-0.3,0.4-0.5,0.6c-0.3,0.3-0.5,0.6-0.7,1.1
	c-0.4,1,0.9,5.3,0.9,6.6c0,1.3,1.2,2.1,1.7,2.5c0,0,0,0,0,0c0.2,0.2,0.2,0.3,0.1,0.6c-0.1,0.4-0.4,0.8-0.6,1.3
	c-0.2,0.7,2.5,3.1,2.5,3.1l0.1,3.3l-2.2,0.1l-0.3,0c0,0,2.4,2.6,2.4,2.7c0,0,0,0-0.1,0.1c-0.4,0.6-2.7,4-4.5,6.5
	c-0.8,1.2-1.6,2.2-1.9,2.7c-0.1,0.1-0.1,0.2-0.2,0.2c-0.7,1-2.1,3.9-2.5,4.6c-0.3,0.4-0.9,4.8-1.3,8.4c-0.3,2.6-0.6,4.8-0.6,4.8h0
	l9.3-0.4l2.1-0.1l5.4-0.2l5.1-0.2l0.4,0l4.2-0.2l1.9-0.1l8.4-0.4l2.4-0.1c0,0,0,0.1,0,0.1c0.1,0.7-0.5,1.8-0.9,2.3
	c-0.4,0.4-0.9,4.1-0.7,5.5c0,0.1,0,0.1,0,0.2c0.1,0.8,1.8,3.2,3.1,5c0.7,1.1,1.3,2,1.4,2.4c0.2,1,0.1,1.3,0.9,2.7
	c0.4,0.8,1.2,1,1.8,1.1c1.2-0.7,3-2.4,3.1-2.7c0.1-0.4,0.1-2,0.4-2l0,0c0.3,0,1,0.9,1.5,0.8c0.5-0.1,7.1-2.5,8.4-2.5
	c0,0,0.1,0,0.1,0c1,0.2,1.7,1.1,2.2,1.2c0.5,0.1,5.3,0.4,5.8,0.2c0.3-0.1,0.9-0.4,1.3-0.7C203.7,220.4,203.3,217.2,203,213.8z"/>
</svg>
