<?xml version="1.0" encoding="utf-8"?>
<!-- Generator: Adobe Illustrator 27.2.0, SVG Export Plug-In . SVG Version: 6.00 Build 0)  -->
<svg version="1.1" id="Layer_1" xmlns="http://www.w3.org/2000/svg" xmlns:xlink="http://www.w3.org/1999/xlink" x="0px" y="0px"
	 viewBox="0 0 321.1 321.1" style="enable-background:new 0 0 321.1 321.1;" xml:space="preserve">
<style type="text/css">
	.st0{fill:#FE8E69;}
</style>
<path class="st0" d="M251.5,134.9c-5.5-0.6-11.1-1.2-16.7-1.8c-5.5-0.6-11-1.3-16.7-2c-5.6-0.7-11.3-1.4-17-2.2
	c-6.5-0.9-13.1-1.8-19.8-2.8c-6.5-1-13.1-2-19.8-3c-2.7-0.4-5.5-0.9-8.3-1.3c-4.8-0.8-9.7-1.6-14.7-2.5c-9.7-1.7-19.6-3.5-29.7-5.5
	c-3.4-0.7-6.8-1.3-10.2-2c-6.8-1.4-13.7-2.8-20.6-4.3c-0.6,2.4-1.6,7.1-2.6,11.7c-0.5,2.3-1,4.6-1.4,6.6c-0.5,2.6-0.9,4.6-0.9,5.5
	c0,0,0,0.1,0,0.1c0,0.1,0,0.2,0,0.2c0.4,1.2,3.7,6.7,3.7,7.7c0,0,0,0,0,0c0,0,0,0,0,0c0,0.7-0.7,2.7-1,4.1c-0.1,0.5-0.2,0.9-0.2,1.2
	c0,1.1,2,3.9,2.7,4.6c0.7,0.6,3,1,3.3,1.8c0.3,0.8,3.2,7.1,3.6,8.4c0,0.1,0.1,0.2,0.1,0.2c0,0.6,0,1.8,0.6,2.9
	c0.4,0.7,0.7,1.8,1,2.3c0.2,0.3,0.4,0.4,0.7,0.4c0.9,0,1.6,0.2,1.6,0.7c0,0.4,0.3,1.2,0.9,1.6c0.2,0.2,0.5,0.3,0.7,0.3
	c1.1,0.2,1.4-0.1,2.4,0c0.4,0,0.7,0.2,0.8,0.7c0,0.1,0,0.3,0,0.5c0,0.6-0.3,1.5-0.8,2.8c-1.3,2.9-6.9,15.1-6.8,16.3
	c0,0.1,0,0.1,0,0.2c0,1.2-0.9,3.6-0.8,4.3c0,0,0,0.1,0,0.1c0,0,0,0,0,0c0.2,0.4,1.1-0.3,1.6,0.5c0.5,0.8,0.6,1.9,1.2,2.4
	c0.3,0.2,1.1,0.1,1.9-0.1c0,0-0.1,0-0.1,0v0c0.9-0.2,1.8-0.6,2.1-0.9c0.6-0.4,2-2.3,2.9-2.6c0.2-0.1,0.4-0.1,0.7-0.1
	c0,0-0.1,0-0.1,0c0.1,0,0.2,0,0.4,0c-0.1,0-0.1,0-0.2,0c0.1,0,0.2,0,0.3,0c0.1,0,0.3,0,0.4,0.1c0.4,0.2,0.8,0.6,1.1,1.3
	c0.2,0.5,0.3,1.2,0.3,2c0,0.9,0.1,2,0.1,3c0.1,1.1,0.2,2.1,0.4,3c0.7,2.6,2.3,9.4,2.9,10.4c0.6,1,1.5,2.2,2.1,2.5
	c0.5,0.3,1-0.4,1.5,0.8c0.5,1.1,1.6,1.9,1.7,3.6c0,0.1,0,0.2,0,0.3c0,0.2,0,0.3,0,0.5c-0.1,1.1-0.3,2.3-0.4,3.3c0,0.1,0,0.3,0,0.4
	c0,0.5,0.1,0.9,0.4,1.2c0.9,0.9,1.3,2.2,2.1,1.8c0.9-0.4,0-2.1,1.3-2.5c1.3-0.4,5.4,1.1,6.9,1.2c1.5,0,1.8-0.9,3.6-0.9
	c1.8,0,7.4,2.2,9.1,1.6c1.6-0.6,2.4-2.6,3.2-3.1l0.3-0.2l0,0c0.6-0.4,1.2-1,2.1-0.6c0.1,0,0.1,0.1,0.2,0.1c1.1,0.6,2.2,4,3,5.2
	c0.4,0.6,0.8,1.2,1.4,1.7l0.7-4.6l1.2-7.7c0.1,0.1,0.2,0.1,0.3,0.2c1.8,0.7,9.8,2,20.8,3.5c5.9,0.8,12.7,1.7,19.9,2.5
	c2,0.2,4.1,0.5,6.1,0.7c2.1,0.2,4.1,0.5,6.2,0.7c9.2,1.1,18.6,2.2,27.4,3.2c1.4,0.2,2.7,0.3,4,0.5c5.5,0.6,10.7,1.2,15.3,1.7
	c0.5,0.1,0.9,0.1,1.4,0.2c7.6,0.8,13.6,1.5,16.7,1.8l0.5-5.6l1.3-15.8l0.1-0.9l0.7-8.3l0.6-6.6l0.2-2.5l1.4-16.3l0.1-1.7l1.2-13.8
	l0.8-9.7l0.5-5.7l0.7-8.3C262.3,136,256.9,135.4,251.5,134.9z M90.1,195.7c0.1,0,0.2-0.1,0.3-0.1c-0.1,0-0.1,0-0.2,0.1
	C90.2,195.7,90.2,195.7,90.1,195.7z M90.7,195.5C90.7,195.5,90.7,195.5,90.7,195.5c0.1-0.1,0.3-0.1,0.4-0.2c0,0,0,0,0,0
	C91,195.4,90.9,195.4,90.7,195.5z M91.2,195.3c0.1,0,0.1,0,0.2-0.1C91.4,195.2,91.3,195.2,91.2,195.3
	C91.3,195.3,91.3,195.3,91.2,195.3z M91.8,195C91.8,195,91.7,195,91.8,195C91.7,195,91.8,195,91.8,195z M96.4,192.4L96.4,192.4
	L96.4,192.4C96.9,192.2,96.9,192.2,96.4,192.4z"/>
</svg>
