<?xml version="1.0" encoding="utf-8"?>
<!-- Generator: Adobe Illustrator 27.2.0, SVG Export Plug-In . SVG Version: 6.00 Build 0)  -->
<svg version="1.1" id="Layer_1" xmlns="http://www.w3.org/2000/svg" xmlns:xlink="http://www.w3.org/1999/xlink" x="0px" y="0px"
	 viewBox="0 0 321.1 321.1" style="enable-background:new 0 0 321.1 321.1;" xml:space="preserve">
<style type="text/css">
	.st0{fill:#FE8E69;}
</style>
<path class="st0" d="M247.7,167.2c-0.1,0.1-2.2,3.4-2.3,3.6c-0.1,0.2-1.3,2.1-1.5,2.4c-0.2,0.4-1,1.9-1.2,1.8
	c-0.2,0-0.7-0.3-0.5-0.7c0.1-0.4,0.3-0.8,0.7-0.7c0.3,0.1,1.3-1,1.5-1.6c0.2-0.6,0-1.7-0.7-2c-0.7-0.3-1.5-0.6-1.7-0.6
	c-0.2,0,0.2,0.4,0.4,0.7c0.2,0.3,0.8,0.6,0.6,0.8c-0.2,0.2-0.8,0.4-1.1,0.1c-0.3-0.3-1.8-2.2-1.9-2.2c-0.1,0,0.1,1.7-0.2,1.9
	c-0.3,0.2-0.9,0.9-1.5,1c-0.4,0-0.7,0-0.9-0.1c-0.1-0.1-0.2-0.2-0.1-0.4c0.1-0.4,1.3-2,1.3-2.5c0-0.5,0.6-2.8,0.7-3.2
	c0.1-0.4,0.1-1.7-0.5-2c-0.5-0.2-1.5,0.2-2,0.1c-0.1,0-0.2-0.1-0.2-0.2c0-0.5,0.2-1,0.6-1.1l0,0c0.4-0.1,1.9,0.4,3,0.3
	c1.1-0.1,3.4-0.3,4.4-0.4c1-0.1,2.3-2.2,2.5-2.7s0-1.5,0.3-2.1c0.3-0.7,1.1-2.3,1.5-2.4c0.1,0,0.1,0,0.2,0c0.5,0,1.4,0.2,1.9-0.5
	c0.6-0.8,0.7-2.6,0.5-3.2c-0.1-0.6-1.5-4.1-2.4-4.8c-0.9-0.7-0.9-1.2-1.9-1.2c-1,0-1.9,1.1-2.1,1.6c-0.1,0.3-0.3,0.5-0.4,0.5
	c0,0-0.1,0-0.1-0.1c-0.1-0.2-0.4-1.5-0.9-1.5c-0.5-0.1-0.9,0.2-2.2,0.3c-1.3,0.1-2.9,1.7-3.3,1.8c0,0-0.1,0-0.1,0
	c-0.3,0-0.5-0.4-0.9-0.5c-0.4-0.1-1.3,0.6-2,0.9c-0.6,0.4-2.9,1.6-3.4,1.2c0,0-0.1-0.1-0.1-0.1c-0.4-0.4-0.4-1.3,0-1.7l0,0
	c0.4-0.4,0.9-0.6,1.3-0.4c0.4,0.2,0.6,0.5,1.1,0.4c0.5-0.1,1.1-1.4,1.6-1.7c0.1-0.1,0.3-0.2,0.6-0.3c0.9-0.5,2.5-1.4,3.1-1.6
	c0.2-0.1,0.5-0.3,0.8-0.5l0,0c0.8-0.7,1.8-1.8,2.3-2l0,0c0,0,0.1,0,0.1,0c0.4,0,1.9-0.2,2.7-0.2c0.2,0,0.4,0,0.4,0.1
	c0.1,0.2,1.1,1.6,1.6,1.7c0.5,0.1,0.9,0.4,0.8-0.1c-0.1-0.5-0.8-1.8-0.9-2.3c-0.1-0.5-2.3-3.2-2.6-3.5c-0.2-0.4-0.6-1.5-0.6-2
	s-0.4-0.7-0.6-0.3c-0.2,0.3,0.3,1.6,0,1.5c-0.3,0-0.9-0.3-0.7-0.7c0.2-0.4,0.6-0.3,0.4-0.6c-0.2-0.3-0.3-0.6-0.6-0.4
	c-0.3,0.1-0.5,0.2-0.7-0.3c-0.1-0.3-0.6-1-0.9-1.6c-0.5,0.1-1.1,0.3-1.7,0.4c-0.9,0.2-1.9,0.5-2.9,0.7c-1.2,0.3-2.5,0.6-3.8,0.9
	c-0.1,0-0.1,0-0.2,0v0c-0.2,0-0.3,0.1-0.5,0.1l0,0c-2.2,0.5-4.6,1-7,1.5c-0.5,0.1-1,0.2-1.5,0.3c-1.3,0.3-2.6,0.5-3.9,0.8
	c-0.8,0.2-1.6,0.3-2.4,0.5c-2.8,0.6-5.8,1.1-8.7,1.7c-0.8,0.1-1.6,0.3-2.3,0.4c-0.9,0.2-1.8,0.3-2.7,0.5c-1.7,0.3-3.5,0.6-5.2,0.9
	c-1.1,0.2-2.2,0.4-3.3,0.6c-1.7,0.3-3.3,0.6-5,0.9c-0.3,0-0.6,0.1-0.9,0.1c-2.1,0.4-4.3,0.7-6.4,1.1c-0.6,0.1-1.1,0.2-1.7,0.3
	c-0.7,0.1-1.4,0.2-2.1,0.3c-0.9,0.1-1.7,0.3-2.6,0.4c-0.3,0.1-0.7,0.1-1,0.2c-1.2,0.2-2.4,0.4-3.7,0.6c-2,0.3-4,0.6-5.9,0.9
	c-0.2,0-0.3,0.1-0.5,0.1c-2.6,0.4-5.1,0.8-7.5,1.2c-1.1,0.2-2.2,0.3-3.3,0.5c-1.5,0.2-2.9,0.4-4.3,0.7c-0.4,0.1-0.7,0.1-1.1,0.2
	c-3.4,0.5-6.4,1-8.8,1.3c-2.8,0.4-4.8,0.7-5.7,0.8c-0.3,0.9-0.4,3.1-0.5,4.6c-0.1,0.7-0.2,1.3-0.3,1.3c-0.5,0.3-0.6-0.8-1.3-0.5
	c-0.6,0.2-1.4,1.2-1.6,2c0,0.1,0,0.2-0.1,0.2c0,0.2-0.1,0.5-0.3,0.9c-0.5,1.2-1.3,3-1.6,3.7c0,0.1-0.1,0.1-0.2,0.2
	c-0.7,0.4-2.5-0.9-3.2-0.8c0,0-0.1,0-0.1,0c-0.7,0.2-1.7,1.5-2.5,2c-0.1,0.1-0.2,0.2-0.3,0.2c-0.6,0.4-0.8,0.7-1.1,1.6
	c-0.3,0.6-0.4,0.9-0.6,1c-0.1,0.1-0.2,0.1-0.4,0.2c-0.4,0.1-0.7,0.7-1.3,0.9c-0.6,0.2-0.6-0.5-0.6-1.4c0-0.4-0.1-0.7-0.2-0.9
	c-0.2-0.3-0.4-0.4-0.6-0.2c-0.4,0.3-4.2,3-4.7,3.7c0,0,0,0,0,0c-0.3,0.5-0.5,2.4-0.7,3.3c0,0.2-0.1,0.3-0.2,0.4
	c-0.3,0.2-3.9,1.8-4.6,2.2c-0.1,0.1-0.2,0.1-0.3,0.2c-0.2,0.2,0.1,0.3,0.1,0.7c0,0.4-3.7,3.3-4.3,3.6c-0.5,0.3-2.4,0.2-3.3,0.4
	c-0.2,0-0.3,0.1-0.4,0.1c-0.6,0.3-3.3,1.7-4.4,2.6c-0.2,0.2-0.4,0.3-0.5,0.4c0,0.1-0.1,0.1-0.1,0.2c-0.3,0.9-0.6,3-0.9,4.1
	c0,0.1-0.1,0.3-0.1,0.4c-0.4,0.9-1.1,0.8-2.3,0.8c-1.2,0-1.7,0.7-2.2,1.3c0,0-0.1,0.1-0.1,0.3c-0.3,1-0.2,4-0.1,5.6
	c1.1-0.1,2.3-0.3,3.3-0.4c1.4-0.2,2.7-0.4,4.1-0.6c2.8-0.4,5.3-0.8,7.6-1.2c3.1-0.5,5.8-1.1,8-1.6c0,0,0.2,0.1,0.4,0.4
	c0.1-0.1,0.2-0.1,0.3-0.2l0,0c0.6-0.3,3.1-1.4,3.7-1.6c1.1-0.4,2-0.8,2.6-1c0,0,0.1,0,0.1,0c0.8-0.2,2-1.1,3.2-2
	c1.6-1.3,3.3-2.6,4-2.6c0,0,0,0,0.1,0c0.2,0,1.3,0,2.8-0.2c1.3-0.1,2.9-0.3,4.7-0.4c0.6-0.1,1.3-0.1,1.9-0.2c0.7-0.1,1.3-0.1,2-0.2
	c2.7-0.3,5.5-0.6,7.7-0.8c0.3,0,0.6-0.1,0.9-0.1c1.9-0.2,3.3-0.3,3.8-0.4c0.8,0,1.3,0,1.7,0c0.7,0.1,0.7,0.3,0.4,0.8
	c-0.4,0.6-0.2,1.6,0.2,1.8c0.4,0.2,1.6-1.7,2-1.8c0.1,0,0.2,0.1,0.5,0.3c0.4,0.3,1,0.9,1.5,1.5c0.7,0.7,1.3,1.5,1.4,1.7
	c0.3,0.5-0.7,2.1,0,2.4c0.2,0.1,1.9-0.1,4.3-0.5c1.4-0.2,3.1-0.5,4.8-0.7c2.8-0.4,5.6-0.9,7.9-1.3c2.4-0.4,4.1-0.7,4.1-0.7l0.4,0.3
	l4.8,3.4l0.6,0.4l8.5,6l9.9,6.9l2.7,1.9c1.3-0.8,2.5-1.6,3.5-1.9c1.7-0.4,3.8-1.1,4.9-1c1.1,0.1,1.6,0.6,1.9,0.8
	c0.4,0.3,0.9,0.1,1-0.5c0-0.2,0.1-1,0.1-1.9c0.1-1.3,0.3-2.9,0.5-3.5c0.3-1,0.4-2.2,0.8-3.1c0.2-0.4,0.7-1.3,1.1-2.2
	c0.4-0.8,0.9-1.6,1.3-1.9c0.5-0.4,1.3-1.6,2.1-2.5c0.5-0.6,0.9-1.1,1.1-1.2c0.5-0.3,2.8-2.8,3.3-3c0.4-0.2,1.5-1.7,2.3-2.2
	c0.1-0.1,0.2-0.1,0.3-0.1c0.8-0.2,2.6-1.7,3.8-1.9c1.2-0.1,1.9-0.7,3-0.8s3.1,0,3.4,0.3c0.3,0.3,0.2,0.7,0.5,0.9
	c0.3,0.2,0.8-1.1,1-1.8c0.2-0.8,1.5-3.4,1.8-3.8c0.3-0.3,1.4-2,1.8-2.5c0.4-0.5,0.7-2.3,1.3-2.8c0.6-0.4,1.5-1.8,1.5-2
	C248.2,167.7,247.8,167.2,247.7,167.2z"/>
</svg>
