<?xml version="1.0" encoding="utf-8"?>
<!-- Generator: Adobe Illustrator 27.2.0, SVG Export Plug-In . SVG Version: 6.00 Build 0)  -->
<svg version="1.1" id="Layer_1" xmlns="http://www.w3.org/2000/svg" xmlns:xlink="http://www.w3.org/1999/xlink" x="0px" y="0px"
	 viewBox="0 0 321.1 321.1" style="enable-background:new 0 0 321.1 321.1;" xml:space="preserve">
<style type="text/css">
	.st0{fill:#FE8E69;}
</style>
<path id="North_Dakota_2_" class="st0" d="M232.7,206.6C232.7,206.6,232.7,206.5,232.7,206.6c0-1.5,0.4-3.1,0-5.4
	c-0.4-2.3-3-7.8-3.5-8.9c0-0.1-0.1-0.1-0.1-0.2c-0.4-1.1,0.3-2.6,0.4-4.8c0.2-2.3-0.6-4.5-1-5.3c-0.1-0.2-0.2-1.2-0.3-2.5
	c0-0.6-0.1-1.2-0.1-1.8c-0.1-2-0.1-4.4-0.2-6.4c0-1.9,0-3.3,0-3.6c0-0.1,0-0.4-0.1-0.7c-0.5-1.9-2.6-6.8-3.1-7.8
	c-0.4-0.9-0.8-2.9-0.9-4.2c0-0.2,0-0.4,0-0.5c0-0.1,0-0.3,0.1-0.4c0.3-1,0.5-5.7,0.3-6.7c-0.1-0.8-0.4-0.8-0.5-1.1
	c0-0.1-0.1-0.2-0.1-0.4c0-0.8,1-2.6,1-2.9c0-0.4-0.4-1.1-1.2-3.6c-0.4-1.2-0.6-2.3-0.7-3.3c-3.6,0-7.6-0.1-11.8-0.1
	c-5.2-0.1-10.9-0.2-17-0.4c-2.7-0.1-5.4-0.2-8.3-0.3c-3.4-0.1-7-0.3-10.7-0.5c-6.6-0.3-13.6-0.7-21-1.1c-2.8-0.2-5.6-0.4-8.4-0.6
	c-4.8-0.3-9.7-0.7-14.7-1.1c-5.7-0.5-11.6-0.9-17.7-1.5l0,0h0l-0.7,8.3l-0.5,5.7l-0.8,9.7l-1.2,13.8l-0.1,1.7l-1.4,16.3l-0.2,2.5
	l-0.6,6.6l-0.7,8.3c3.6,0.2,9.9,0.6,17.8,1.1c0.3,0,0.7,0,1,0.1c4.8,0.3,10.1,0.6,15.8,0.9c7.8,0.4,16.3,0.9,24.9,1.3
	c3.5,0.2,7,0.3,10.6,0.5c0.9,0,1.7,0.1,2.6,0.1c4.1,0.2,8.2,0.4,12.2,0.5c1.5,0.1,3,0.1,4.4,0.2c4.2,0.2,8.3,0.3,12.2,0.4
	c0.1,0,0.2,0,0.4,0c4.5,0.1,8.6,0.2,12.4,0.3c4.5,0.1,8.4,0.1,11.6,0C233,208,232.7,207.4,232.7,206.6z"/>
</svg>
