<?xml version="1.0" encoding="utf-8"?>
<!-- Generator: Adobe Illustrator 27.2.0, SVG Export Plug-In . SVG Version: 6.00 Build 0)  -->
<svg version="1.1" id="Layer_1" xmlns="http://www.w3.org/2000/svg" xmlns:xlink="http://www.w3.org/1999/xlink" x="0px" y="0px"
	 viewBox="0 0 321.1 321.1" style="enable-background:new 0 0 321.1 321.1;" xml:space="preserve">
<style type="text/css">
	.st0{fill:#FE8E69;}
</style>
<path id="Nebraska_00000150787662261241753270000011331003742362203052_" class="st0" d="M247.4,206c-0.5-1-2.3-2.5-2.3-3
	c0,0,0-0.1,0-0.1c-0.1-0.5-0.5-1-1.1-1.5c-0.7-0.6-1.3-2.6-1.6-3.7c-0.2-0.6-0.1-0.9-0.1-1.1c0-0.2-0.1-0.3-0.4-0.6
	c-0.2-0.2-0.4-0.6-0.7-1.1c-0.6-1.2-1.3-3.1-1.7-4.1c-0.1-0.1-0.1-0.2-0.1-0.3c-0.4-1.2,0.1-1.6,0.4-2.3c0.1-0.2,0.1-0.5,0.1-0.9
	c-0.1-1.1-0.6-2.6-0.6-3.2c0-0.1,0-0.2,0-0.3c0-0.7,0-1.7-0.1-2.4c0-0.2-0.1-0.4-0.1-0.5c-0.1-0.2-0.2-0.3-0.4-0.4
	c-0.2-0.2-0.5-0.4-0.6-0.9c-0.1-0.7,0-2.4,0-3.9c0-0.1,0-0.2,0-0.3c0-0.7-0.5-1.8-1.1-3c-0.6-1.3-1.4-2.7-2-3.9
	c-0.2-0.5-0.4-0.9-0.5-1.3c-0.7-2.1-0.3-2.5-0.5-3.4c0-0.1-0.1-0.2-0.1-0.4c-0.2-0.6-0.7-1.8-1.1-2.9c-0.5-1.2-1-2.4-1.3-3
	c-0.6-1.2-0.9-1.7-0.8-2.3c0,0,0-0.1,0-0.1c0.2-0.3,0-0.8-0.1-1.2c-0.1-0.3-0.3-0.5-0.4-0.6c-0.2-0.3,0-3.7-0.2-4.3
	c-0.1-0.3-0.7-0.4-1.4-0.6c-0.8-0.2-1.8-0.3-2.4-0.5c-0.2-0.1-0.4-0.2-0.6-0.3c-0.6-0.4-0.6-1-1.2-1.7c-0.7-0.8-0.1-1.1-0.3-1.5
	c-0.1-0.2-0.6-0.5-1.4-0.9c-1-0.5-2.3-1.1-3-1.3c-0.2-0.1-0.6-0.2-0.9-0.3c-0.7-0.2-1.6-0.5-2.3-0.8c-0.6-0.2-0.9-0.4-0.9-0.5
	c0-0.4,0-1-0.4-0.9c-0.4,0.1-1.3-1-2.2-0.9s-0.7,0.8-1.5,0.8c-0.6,0-0.5-0.4-0.7-0.5c-0.1,0-0.1,0-0.2,0c-0.5,0.2-0.5,0.7-1,0.6
	c-0.5-0.1-0.2-0.8-1-0.7c-0.3,0.1-0.4,0.2-0.5,0.3c-0.1,0.2-0.1,0.5-0.5,0.5c-0.6,0-0.4-1.1-0.9-1c-0.5,0.2-0.2,1-0.7,0.9
	c-0.5-0.1-0.4-0.9-1.1-0.9c-0.7,0-0.7,0.7-0.7,1s-1,1.6-2.3,1.6c-1.2,0-2-1.1-2.6-1.7c0,0,0,0,0,0c-0.6-0.6-1.6-0.8-2.8-1.1
	c-0.1,0-0.1,0-0.2-0.1c-1.2-0.5-3.2-3.1-3.2-3.1s-0.1,0-0.3,0c-1.2,0-6.4-0.2-12.6-0.4c-1.7-0.1-3.5-0.1-5.3-0.2
	c-4-0.1-8.2-0.2-11.7-0.3c-4.4-0.1-7.9-0.2-9.4-0.2c-1.1,0-4.3-0.2-8.7-0.5c-4.1-0.3-9.1-0.7-14.5-1.1c-4.1-0.3-8.4-0.7-12.5-1
	c-1.2-0.1-2.4-0.2-3.5-0.3c-3.1-0.3-6.1-0.5-8.8-0.7c-4.1-0.3-7.6-0.6-9.8-0.8l-0.8,9.8L93.6,155l-0.6,7.3l-0.3,3l-0.3,4.1l-0.8,9
	c3,0.2,5.9,0.4,8.7,0.6c1.2,0.1,2.3,0.2,3.5,0.2c4.8,0.3,9.2,0.6,12.8,0.9c0.3,0,0.6,0,0.9,0.1c5.2,0.4,8.8,0.6,9.9,0.7
	c0.2,0,0.3,0,0.3,0l0,0.7l-0.4,5.9l-0.1,1.4l-0.4,6l-0.2,2.4l-0.5,7.3c3.1,0.3,7,0.7,11.6,1.1c0.5,0,1,0.1,1.5,0.1
	c3.2,0.3,6.7,0.6,10.5,0.8c0.1,0,0.3,0,0.4,0c3.2,0.2,6.5,0.4,10,0.6c3.2,0.2,6.6,0.3,10.1,0.5c2.6,0.1,5.3,0.2,8,0.3
	c0.8,0,1.7,0,2.5,0.1c1.9,0,3.8,0.1,5.8,0.1c0.2,0,0.3,0,0.5,0c1.3,0,2.6,0,3.9,0c1.4,0,2.7,0,4,0c2.2,0,4.3,0,6.4,0.1
	c0.6,0,1.2,0,1.8,0c2.9,0,5.6,0,8.3,0.1c2.9,0,5.7,0,8.4,0c0.7,0,1.5,0,2.2,0c2.1,0,4.1,0,6,0c1.4,0,2.7,0,4,0c1.5,0,3,0,4.4,0
	c1.4,0,2.8,0,4,0c3.1,0,5.9,0,8.2-0.1v-0.6C248.1,207.2,247.6,206.4,247.4,206z"/>
</svg>
