<?xml version="1.0" encoding="utf-8"?>
<!-- Generator: Adobe Illustrator 27.2.0, SVG Export Plug-In . SVG Version: 6.00 Build 0)  -->
<svg version="1.1" id="Layer_1" xmlns="http://www.w3.org/2000/svg" xmlns:xlink="http://www.w3.org/1999/xlink" x="0px" y="0px"
	 viewBox="0 0 321.1 321.1" style="enable-background:new 0 0 321.1 321.1;" xml:space="preserve">
<style type="text/css">
	.st0{fill:#FE8E69;}
</style>
<path id="New_Hampshire_00000105414556671405477340000016123161203066244006_" class="st0" d="M173.9,177.1
	C173.9,177.1,173.9,177.1,173.9,177.1c-0.2-0.4-0.9-3-1-3.1c-0.1-0.1-3.5-0.6-3.7-2.3c-0.1-0.9-0.1-1.9-0.3-3
	c-0.2-1.2-0.6-2.5-1.2-4c-0.1-0.3-0.4-1.1-0.7-2.1c-0.8-2.3-2-6-3.3-10.2c-3-9.4-6.8-21.2-7.9-24.9c-0.2,0.1-0.3,0.2-0.3,0.3
	c-0.1,0.3,0.3,0.6,0,1.2c-0.2,0.5-0.6,0.7-1.4,0.6c-0.8-0.1-1.2-1-1.6-1c-0.4,0-0.5,0.7-1,1.3c-0.5,0.6-0.7,0.8-0.7,1.2
	c0,0.4,0.1,4.8-0.3,5.1c-0.1,0-0.3,0.2-0.7,0.3c0.6,0.8,1.6,2.2,1.7,2.3c0.1,0.2-1.2,3.7-1.1,4.2c0.1,0.4,1.8,2,2.2,2.7
	c0.4,0.7-0.4,1.6-0.4,1.9c0,0.4,0.3,0.3,0.3,0.8c0,0.5-0.8,2.1-1.5,2.9c-0.2,0.3-0.4,0.4-0.6,0.5c-0.4,0.3-0.6,0.3-0.7,0.5
	c-0.1,0.1-0.4,0.4-0.9,0.8c-0.7,0.5-1.6,1.2-2,1.6c-0.6,0.6-0.6,1-0.4,2.4c0.2,1.1,0.5,1.5,0.6,1.9c0,0.1,0.1,0.2,0.1,0.4
	c0,0.6,0.4,1.2,0.1,1.8c-0.2,0.6-0.5,1.7-0.4,2c0.1,0.3,0.6,0.1,0.4,1c-0.2,0.9-1,1.1-0.9,1.8c0.1,0.7,0.4,1.3,0.4,2.2
	c0,0.1,0,0.3-0.1,0.4c-0.2,0.7-0.9,1.4-1.1,1.8c-0.2,0.4,0.1,1.6,0.1,2.3c0,0.1,0,0.2-0.1,0.3c-0.2,0.5-0.8,0.3-0.7,1
	c0.1,0.7,0.7,4.6,0.8,5c0.1,0.3,0.5,0.7,0.7,1.9c0,0.5,0,0.9,0,1.4c-0.1,0.6-0.1,1.2,0.1,1.6c0.1,0.2,0.2,0.3,0.2,0.4
	c0.2,0.3,0.3,0.5,0.2,1.2c-0.1,1-0.1,1,0.1,1.7c0.3,0.6,0.2,0.8-0.2,1.3c-0.5,0.4-0.8,0.3-0.6,1.1c0.2,0.7-0.4,1.4-0.1,1.8
	c0.2,0.2,1.5,1.5,2.7,2.4l3.3-0.7l5.8-1.3l0,0l10.9-2.4l0.4-1.3c0,0,0.6,0.1,0.8,0.1l0,0c0,0,0,0,0,0c0,0,0,0,0.1,0c0,0,0,0,0,0
	s0,0,0,0c0.1,0-0.6-0.7-0.3-1.4c0.3-0.7,1.1-0.3,1.9-0.6c0.8-0.2,0.1-1,0.4-1.6c0.4-0.7,1.3-1.5,1.9-1.5c0.4,0,1.2,0,1.9,0
	c0-0.1,0-0.2,0-0.3c0-1.6,0.5-4,0.7-4.4c0,0,0,0,0.1-0.1C175.7,178,174.2,177.4,173.9,177.1z"/>
</svg>
