<?xml version="1.0" encoding="utf-8"?>
<!-- Generator: Adobe Illustrator 27.2.0, SVG Export Plug-In . SVG Version: 6.00 Build 0)  -->
<svg version="1.1" id="Layer_1" xmlns="http://www.w3.org/2000/svg" xmlns:xlink="http://www.w3.org/1999/xlink" x="0px" y="0px"
	 viewBox="0 0 321.1 321.1" style="enable-background:new 0 0 321.1 321.1;" xml:space="preserve">
<style type="text/css">
	.st0{fill:#FE8E69;}
</style>
<path id="New_Mexico_00000107587047559948634270000002170165168497749415_" class="st0" d="M228.2,105.1c-5.3,0.3-10.6,0.6-16,0.8
	c-0.5,0-0.9,0-1.4,0.1c-7.3,0.3-14.6,0.6-21.9,0.8c-0.6,0-1.1,0-1.7,0c-3.2,0.1-6.5,0.1-9.7,0.2c-1.7,0-3.4,0.1-5.2,0.1
	c-3,0-5.9,0.1-8.9,0.1c-5.8,0-11.6,0.1-17.3,0c-0.5,0-1.1,0-1.6,0c-5.9,0-11.8-0.1-17.5-0.2c-4.1-0.1-8.2-0.1-12.2-0.2l-0.4,25
	l-0.4,24.9l-0.2,9.1l-0.3,19.1l-0.2,13.7l-0.2,10.5l-0.1,8.5l-0.4,26.3c9.6,0.2,17.1,0.3,17.1,0.3s0-10,0.1-10.7
	c0,0,0.1-0.1,0.4-0.1c1.8-0.3,10.3-0.3,18.3-0.3c6.1,0.1,11.9,0.2,14.4,0.3l-1.9-5.2l6.3-0.2l7.6-0.3l21.9-0.8l1.6-0.1l16.5-0.6
	l0.8,0l5.7-0.2l7.6-0.3l5.6-0.2l-0.1-1.7l-0.5-10.2l-0.5-10.7l-0.5-10.7l-0.2-4.5l-0.3-5.6l-0.6-12l-0.5-10.6l-0.2-5l-0.3-5.6
	l-0.5-10.8l-0.1-2.3l-0.4-7.7l-0.5-10.8l-0.6-12.4C228.7,105.1,228.4,105.1,228.2,105.1z"/>
</svg>
