<?xml version="1.0" encoding="utf-8"?>
<!-- Generator: Adobe Illustrator 27.2.0, SVG Export Plug-In . SVG Version: 6.00 Build 0)  -->
<svg version="1.1" id="Layer_1" xmlns="http://www.w3.org/2000/svg" xmlns:xlink="http://www.w3.org/1999/xlink" x="0px" y="0px"
	 viewBox="0 0 321.1 321.1" style="enable-background:new 0 0 321.1 321.1;" xml:space="preserve">
<style type="text/css">
	.st0{fill:#FE8E69;}
</style>
<path id="Nevada_2_" class="st0" d="M226.7,98.4c-4.2-0.8-8.6-1.7-13.3-2.7c-10-2.1-21-4.4-33.1-7.1c-0.4-0.1-0.7-0.2-1-0.2
	c-0.2,0-0.3-0.1-0.5-0.1c-7-1.6-13.8-3.1-20.4-4.7c-6.7-1.6-13.2-3.2-19.4-4.7c-0.2,0-0.4-0.1-0.6-0.1c-3.8-1-7.6-1.9-11.2-2.9
	c-1.1,4.3-3,11.2-5.1,19.1c-2.9,11.1-6.3,24.1-8.9,34c-0.6,2.5-1.2,4.8-1.7,6.8c-0.3,1.1-0.5,2.2-0.8,3.1c-0.3,1.2-0.5,2.3-0.7,3.1
	c-0.1,0.6-0.2,1-0.3,1.4c-0.1,0.4-0.1,0.7-0.2,1c0,0.2,0,0.3,0,0.4c0,0.2,0.8,1.5,2.3,3.8c0.9,1.5,2.1,3.4,3.6,5.6
	c1,1.6,2.1,3.3,3.3,5.2c1,1.5,2,3.1,3.1,4.8c3.1,4.7,6.5,10,10.3,15.7c2.5,3.8,5.2,7.8,7.9,11.9c3.1,4.7,6.3,9.5,9.5,14.4
	c6.4,9.7,12.9,19.5,18.7,28.3c1.3,1.9,2.5,3.8,3.7,5.6c6.5,9.9,12,18.1,15.5,23.3c0.4-1.1,1-2.3,1.5-3c1-1.2,0.6-8,0.5-9
	c-0.1-1,0.2-14.1,0.8-14.6c0.6-0.5,3.3-0.7,4-0.6c0.7,0.1,3.6,0.9,3.9,1.3c0.3,0.3,0.5,1.9,1.1,2.5c0.6,0.6,2.1,1.7,3.2-0.5
	c1.1-2.3,2-2.6,2-3.6c0-0.2,1-5.5,2.6-14c0.3-1.5,0.6-3.1,0.9-4.8c0.8-4,1.6-8.6,2.6-13.5c0.8-4.1,1.6-8.5,2.5-13.1
	c0.6-3.2,1.2-6.5,1.9-9.8c0.2-0.9,0.4-1.8,0.5-2.8c1.3-6.7,2.6-13.6,3.9-20.4c0.6-2.9,1.1-5.8,1.7-8.7c0.3-1.7,0.7-3.4,1-5.1
	c1.4-7.5,2.8-14.6,4.1-21.1c1.9-9.9,3.5-18.2,4.5-23.4C229.4,99,228.1,98.7,226.7,98.4z"/>
</svg>
