<?xml version="1.0" encoding="utf-8"?>
<!-- Generator: Adobe Illustrator 27.2.0, SVG Export Plug-In . SVG Version: 6.00 Build 0)  -->
<svg version="1.1" id="Layer_1" xmlns="http://www.w3.org/2000/svg" xmlns:xlink="http://www.w3.org/1999/xlink" x="0px" y="0px"
	 viewBox="0 0 321.1 321.1" style="enable-background:new 0 0 321.1 321.1;" xml:space="preserve">
<style type="text/css">
	.st0{fill:#FE8E69;}
</style>
<path id="Ohio_00000021826308087132761740000007706963774322969263_" class="st0" d="M209.6,162.2c-0.1-0.4-0.1-0.8,0-1.3
	c0.2-0.8-1.1-1.9-1.4-2.6c-0.1-0.3-0.2-0.4-0.3-0.5c-0.1-0.2,0-0.3,0.3-0.6c0.4-0.3,1.3-0.8,2.1-1.3c-0.3-1.6-0.6-3.3-0.8-5
	c-0.1-0.4-0.1-0.7-0.2-1.1c-0.3-1.8-0.6-3.5-0.9-5.3c0-0.1,0-0.3-0.1-0.4c-0.5-3-1-6-1.5-8.7c-0.5-3.2-1-6.1-1.4-8.3
	c-0.2-1.3-0.4-2.4-0.6-3.3c-2,0.9-5.3,3.5-7.9,4.7c-0.5,0.2-1,0.4-1.5,0.5c-2.7,0.6-5.4,4.9-6.2,5.9c-0.1,0.1-0.1,0.2-0.2,0.2
	c-0.4,0.3-0.4,0-0.8,0.3c-0.3,0.2-0.9,2.3-1.9,2.8c-1,0.5-0.7,0.8-1.6,0.8c-0.9,0-1-0.1-1.4,0.1c-0.4,0.3-0.4,0.3-1,0.3
	c-0.6,0-0.8-0.2-1.3-0.3c0,0,0,0,0,0c-0.5-0.1-0.7-0.2-1.2-0.1c-0.5,0.1-2.5,1.3-2.8,1.7c-0.3,0.4-0.3,0.8-1,1
	c-0.7,0.1-0.9-0.1-1.3,0.1l0,0c-0.4,0.2-1.2,0.9-1.6,1.2c-0.4,0.3-0.5,0.7-1.6,0.3c-1.1-0.3-2.7-1.6-2.9-1.8c-0.2-0.2-0.4,0-0.4,0.1
	c0,0.1,0.3,0.3,0.3,0.5c0,0.3,0.3,0.4-0.3,0.3c-0.5-0.2-0.6-0.3-0.8-0.1c-0.2,0.3-0.2,0.7-0.4,0.4c-0.2-0.3-0.3-0.7-0.5-0.6
	c-0.3,0.1-0.5-0.1-0.8,0.2c-0.2,0.2-0.5,0.6-0.8,0.8c-0.1,0.1-0.3,0.2-0.4,0.2c-0.3,0.1-0.8,0.1-1-0.1c-0.1,0-0.1-0.1-0.1-0.2
	c-0.1-0.4-0.3-0.7,0.5-0.7c0.8-0.1,2-0.6,2.7-0.7c0.7-0.1,1.3-0.3,1.4-0.6c0.1-0.3-0.1-0.7-0.5-0.7c-0.4,0-1.2,0.2-1.4,0
	c-0.2-0.2-0.6-1-0.7-1c-0.1-0.1-0.6,0.3-0.6,0.5s0.2,0.5,0.1,0.7c-0.1,0.2-0.6,0.9-1,0.9c-0.4,0-1.1-0.2-1.7-0.8
	c-0.6-0.5-1.3-1-1.8-1.1c-0.1,0-0.3,0-0.5-0.1c-0.7-0.1-1.9-0.3-2.4-0.7c-0.6-0.4-0.9-0.7-1.2-0.9c-0.3-0.1-0.1,0.1-0.5,0.3
	c-0.4,0.2-1.5,0.4-1.7,0c-0.2-0.4-0.1-0.2,0.1-0.6c0.1-0.3,0-0.3,0-0.6l-5.6,1l-2,0.4l-8.4,1.5l-0.8,0.1l-7.5,1.3l0.5,4.2l0.3,2.2
	l0.5,3.9l0.1,0.6l0.8,6.2l0.2,1.6l0.6,4.6l0.5,4l0.6,5.1l0.1,1.1l0.9,7.3l0.3,2.1l0.6,4.8l0.5,3.8l0.1,1.1l0.6,5.1l0.6,4.5
	c0,0-0.1,0.2-0.3,0.4c1.1,0.1,3,0.2,3.7,0.2c0.1,0,0.2,0,0.3,0c0.6-0.2,1.3-0.8,1.7-0.8c0.1,0,0.2,0,0.4,0.1
	c0.8,0.2,2.6,0.8,3.4,1.2c0.2,0.1,0.4,0.2,0.4,0.3c0.1,0.4,1.2,2.3,1.4,3.1c0,0.2,0.1,0.3,0,0.5c0,0.4-0.1,0.6,0.5,0.8
	c0,0,0,0,0.1,0c0.9,0.3,2.1,0.9,3.1,0.9l0,0c0.7,0,1.9-0.3,2.7-0.4c0.3,0,0.5,0,0.7,0c0.5,0.1,1.9,2,2.7,2.4
	c0.2,0.1,0.4,0.2,0.6,0.3c0.6,0.2,1.1,0.3,1.3,0.1c0.1-0.1,0.1-0.3,0.1-0.6c0-0.4,0.1-0.9,0.8-1.1c1.1-0.3,1.7-0.6,2.4-0.2
	c0.8,0.4,2.6,1.5,3.3,1.5c0.1,0,0.2,0,0.3,0c0.5-0.2,0.7-0.9,1.1-0.7c0.4,0.1,0.8,0.2,1.1-0.1c0.4-0.3,0.6-1.1,1.3-1.8
	c0.2-0.2,0.4-0.3,0.5-0.5c0.7-0.6,1.5-1.1,2.2-1.1c0.8,0,0.7,0.7,1,1.7c0.3,1,0.9,2.1,1.6,2.5c0,0,0,0,0.1,0
	c0.7,0.3,2.3,0.4,2.8,0.9c0,0,0.1,0.1,0.1,0.1c0.2,0.6,0.6,1.8,1.3,2.2c0.1,0.1,0.2,0.1,0.4,0.1c0.5,0,0.9-0.2,1.4-0.4
	c0.3-0.2,0.7-0.4,1.1-0.5c0.8-0.3,1.2,0,1.8-0.4c0.5-0.4,0.1-2.8,0.6-3.5c0,0,0,0,0,0c0.6-0.7,0.3-0.1,1.1-0.4l0,0
	c0.9-0.4,1.2-1.1,0.7-1.7c-0.5-0.5-0.7-0.6-0.6-1.3c0.1-0.7-0.1-0.8-0.5-1.2c-0.4-0.3-0.6-0.6-0.4-0.8c0.2-0.3,1.2-0.5,1.2-1.2
	c0-0.7-0.4-1.2,0-1.6c0.4-0.4,0.5-1,0.6-1.6c0-0.2,0.1-0.4,0.2-0.6c0.1-0.4,0.4-0.8,0.6-0.9c0.4-0.2,0.1,0.5,0.9,0.7
	c0.7,0.1,1.1-0.4,1.3-0.2c0.1,0.2,0.6,1.1,0.4,1.7c-0.2,0.6-0.6,1.1,0.2,1c0.1,0,0.2,0,0.3,0c0.6,0,1,0,1-0.7c0-0.9-0.3-1.5,0.1-1
	c0.4,0.4,0.4,1,1,0.7c0.6-0.3,1.3-0.5,0.8-0.8c-0.5-0.3-1-0.2-0.7-0.8c0.3-0.5,0.6-1,0.3-1.2c-0.3-0.2-1.3-0.8-1.3-1
	c0-0.2,1,0,1.2-0.5c0-0.1,0-0.1,0-0.2c-0.1-0.7-0.6-1.1-0.6-1.7c0-0.1,0-0.2,0.1-0.3c0.3-0.8,0.7-0.5,0.7-1c0-0.5-0.4-0.6-0.1-0.9
	c0,0,0.1,0,0.1-0.1c0.3-0.2,0.8-0.3,1.4-0.3c0.6,0,1.1,0.3,1.1-0.8c0-1.2-0.4-1.2,0.2-1.6c0.6-0.3,0.9-0.6,1-1.1
	c0.1-0.5,0.7-0.5,1,0c0.2,0.5,0.3,1.3,0.9,1.2c0.2,0,0.3-0.1,0.4-0.2c0.2-0.2,0.4-0.6,0.8-0.9c0.6-0.5,0.7-0.1,1.2-0.3
	c0.5-0.2,0.6-0.7,0.7-1c0.1-0.3,0.9-0.4,1.4-1.3c0,0,0,0,0,0c0.4-0.8,0.7-1.9,1.3-2.7c0.1-0.1,0.1-0.1,0.2-0.2
	c0.8-0.8,0.5-1,1.3-1.2l0,0c0.8-0.3,1-0.5,1-1.1c0-0.6-0.4-1,0.1-1.3c0.4-0.2,0.7-0.6,0.4-0.8c0,0-0.1-0.1-0.1-0.1
	c-0.5-0.3-1-0.6-0.7-1c0.3-0.4,0.1-0.9,0.4-1.5c0-0.1,0.1-0.1,0.1-0.2c0.3-0.4,0.6-0.5,0.4-1c-0.3-0.6-0.7-0.8-0.4-0.8
	c0.3,0,0.6,0.2,0.6-0.3c0.1-0.3,0-1.7,0-2.7c0-0.5,0-0.8,0.1-1.1c0.2-0.7,0-1.2,0.1-2c0,0,0-0.1,0-0.1c0-0.3,0.1-0.5,0.1-0.8
	c0.1-0.6,0.2-1.2,0.6-1.5c0.5-0.3,0.7-1.4,0.3-2.4C209.8,162.8,209.7,162.5,209.6,162.2z"/>
</svg>
