<?xml version="1.0" encoding="utf-8"?>
<!-- Generator: Adobe Illustrator 27.2.0, SVG Export Plug-In . SVG Version: 6.00 Build 0)  -->
<svg version="1.1" id="Layer_1" xmlns="http://www.w3.org/2000/svg" xmlns:xlink="http://www.w3.org/1999/xlink" x="0px" y="0px"
	 viewBox="0 0 321.1 321.1" style="enable-background:new 0 0 321.1 321.1;" xml:space="preserve">
<style type="text/css">
	.st0{fill:#FE8E69;}
</style>
<path id="Pennsylvania_2_" class="st0" d="M224.3,174C224.3,174,224.3,174,224.3,174c-0.6-0.5-2.2-1.5-3.5-2.6c-1-0.8-1.9-1.6-2.2-2
	c-0.6-1.1-0.2-2-1.5-2.3c-1.1-0.3-1.8-0.3-2.2-0.8c-0.1-0.1-0.1-0.3-0.2-0.5c-0.2-1-0.8-3.2-0.4-3.8c0.4-0.5,0.8,0.3,1-0.2
	c0.2-0.5,0.8-1.8,0.8-2.3c0-0.5-1.4-1.5-1.6-2.1c0,0,0-0.1,0-0.1c0-0.4,0.8-1.6,1.4-2.5c0.3-0.4,0.4-0.7,0.5-0.9
	c0-0.2,0-0.3,0.1-0.4c0.1-0.2,0.2-0.3,0.5-0.8c0.5-0.7,0.7-1.5,0.6-2.5c0-0.9,0.1-1.9,1.1-2.8c0.5-0.4,0.9-1,1.3-1.5
	c-0.4-0.1-0.7-0.2-0.7-0.2c-0.2-0.1-1-0.9-1-0.9s-0.1,0-0.3,0.1c-0.5,0.2-1.8,0.5-2.8-0.3c-0.7-0.5-1.8-1.5-2.9-2.7
	c-0.9-1.1-1.8-2.3-2.1-3.6c-0.3-1-0.7-1.4-1.1-1.5c-0.7-0.2-1.5,0.3-1.9-0.2c-0.7-0.8-0.4-2.6-2.2-2.6c0,0-0.1,0-0.3,0
	c-0.4,0-1.1,0.2-2.1,0.3c-2.3,0.4-6.1,1.1-10.7,2c-0.2,0-0.5,0.1-0.8,0.1c-2.2,0.4-4.7,0.9-7.2,1.4c-2.1,0.4-4.2,0.8-6.4,1.2
	c-0.2,0-0.4,0.1-0.6,0.1c-3.7,0.7-7.5,1.5-11.3,2.2c-0.8,0.2-1.6,0.3-2.4,0.5c-2.7,0.5-5.4,1.1-8,1.6c-0.6,0.1-1.3,0.2-1.9,0.4
	c-3.7,0.7-7.2,1.4-10.3,2c-1,0.2-1.9,0.4-2.8,0.6c-4,0.8-7.2,1.4-9.4,1.9c-2,0.4-3.1,0.6-3.1,0.6l-1-6.1c-1.3,1-4.1,3.5-4.4,3.6
	c-0.4,0.1,0.1-0.4-0.4-0.4c-0.5,0-0.8,0.3-0.9,0.9c-0.1,0.6-0.3,0.7-1.1,1.3c-0.7,0.6-2.3,2.6-4.5,3.3c-0.1,0-0.3,0.1-0.5,0.2
	c0.1,0.8,0.3,1.9,0.6,3.3c0.4,2.2,0.9,5.1,1.4,8.3c0.5,2.7,1,5.6,1.5,8.7c0,0.1,0,0.3,0.1,0.4c0.3,1.7,0.6,3.5,0.9,5.3
	c0.1,0.4,0.1,0.7,0.2,1.1c0.3,1.7,0.6,3.3,0.8,5c0.2,1.3,0.4,2.6,0.7,3.9c0.1,0.7,0.2,1.4,0.4,2.1c0.3,2,0.7,3.9,1,5.6
	c0.2,1.2,0.4,2.4,0.6,3.4c0.1,0.4,0.1,0.8,0.2,1.2c0.4,2.6,0.7,4.4,0.9,5.1c0,0.2,0.1,0.4,0.1,0.4l2-0.4l8.5-1.6l3.3-0.6l5-0.9
	l1.4-0.3l8.9-1.7l2-0.4l8.1-1.5l0.7-0.1l4.2-0.8l10.9-2.1l4.6-0.9l3.9-0.7l3.8-0.7l3.8-0.7l5.5-1l3.2-0.6l5.2-1
	c0.5-1.1,1.3-2.6,2.4-3.1c0.2-0.1,0.5-0.2,0.7-0.2c1.2-0.3,2.7-0.2,3.7,0c0.2-0.4,0.4-0.8,0.6-1c0.5-0.7,0.4,0.1,2-1
	c0.3-0.2,0.5-0.4,0.7-0.7c0.2-0.2,0.3-0.4,0.4-0.7c0.4-0.9,0.7-1.9,1.2-2.7c0.1-0.2,0.3-0.4,0.5-0.5c0.2-0.2,0.4-0.3,0.6-0.5
	c1.2-1.1,2.3-2,2.3-2s-0.1-1.1,0.2-1.2c0.3-0.1,1,0.3,1.4-0.1C225.7,175.1,225.2,174.7,224.3,174z"/>
</svg>
