<?xml version="1.0" encoding="utf-8"?>
<!-- Generator: Adobe Illustrator 27.2.0, SVG Export Plug-In . SVG Version: 6.00 Build 0)  -->
<svg version="1.1" id="Layer_1" xmlns="http://www.w3.org/2000/svg" xmlns:xlink="http://www.w3.org/1999/xlink" x="0px" y="0px"
	 viewBox="0 0 321.1 321.1" style="enable-background:new 0 0 321.1 321.1;" xml:space="preserve">
<style type="text/css">
	.st0{fill:#FE8E69;}
</style>
<path class="st0" d="M162.8,162.5c-0.1-0.3-0.7-0.4-0.7-0.8c0-0.4,0.5-0.4,0.5-0.7c0-0.4-0.4-0.7-0.5-1c0,0,0,0,0-0.1
	c0-0.4-0.1-0.6-0.4-0.6c-0.3,0-0.6,0-0.5-0.2c0-0.2,0.4-0.3,0.6-0.1c0.2,0.1,0.4,0.4,0.6,0.4s0-0.6,0-0.9s-0.1-0.4-0.3-0.9
	c-0.2-0.4-0.4-0.5,0.1-0.6s0.4,0.2,0.7,0.6c0.3,0.5,0.5,0.5,0.6,0.5s0.2-0.2,0.2-0.7c0-0.2,0.1-0.4,0.2-0.4
	c-0.1-0.2-0.1-0.3-0.5-0.3c-0.7,0-0.8-0.1-1-1c-0.1-0.3-0.1-0.5-0.2-0.8c-0.2-0.7-0.5-1.2-0.5-1.2l-0.8,0.3l-0.6-2.2L160,151
	l-2.1,0.7l-5,1.6c0.3,1.1,1.1,3.8,1.9,6.5c0.2,0.6,0.4,1.3,0.6,1.9c0.1,0.3,0.2,0.6,0.3,0.9c0.6,2.2,1.1,3.9,1.1,4
	c0,0.2-0.8,0.1-0.8,0.6c0,0.3,0.1,2,0.2,2.9h0.1c0.6,0,0.1-0.5,0.8-0.7s1.7-0.5,2-0.9c0.2-0.4,1.1-1.3,1.9-1.6
	c0.8-0.3,1.1-0.3,1.2-0.1c0.1,0.2,0.5,0.2,0.5,0s-0.2-0.5,0-0.8c0.2-0.2,0.3-0.5,0.3-0.7c0-0.1-0.4-0.1-0.3-0.4
	c0.1-0.3,0.3-0.2,0.4-0.4c0.1-0.2-0.3-0.7-0.3-1.2C162.8,162.9,162.9,162.8,162.8,162.5z M167,158.6c-0.3-0.6-0.7-0.8-1.7-1
	c-0.1,0.1-0.1,0.3-0.2,0.5c-0.1,0.6-0.5,0.7-0.6,1.3c-0.1,0.5-0.5,2.8-0.3,3.2c0.2,0.3,0.5,0.4,0.3,0.6c-0.2,0.2-0.6,0.3-0.5,0.6
	s0.1,0.5,0.4,0.2c0.3-0.3,0.8-0.3,0.8-0.6s-0.2-0.4,0.1-0.5s0.5,0.4,0.7,0.2s-0.3-0.8-0.2-1.3s0.3-0.8,0.4-0.5
	c0.2,0.4-0.1,0.8,0.2,1.1s0.3,0.5,0.3,0.7s0.7-0.3,0.9-0.7c0.2-0.3,0-0.5,0.4-0.6l0,0C167.7,160.6,167.1,159,167,158.6z
	 M163.4,161.6c0-0.3-0.4-0.9-0.4-0.5c0,0-0.1,0.4,0,1s0.4,1,0.3,1.2c-0.1,0.2-0.2,0.7-0.1,0.9c0.2,0.3,0.1-0.1,0.3-0.5
	c0.2-0.3,0.4-0.7,0.2-1.1C163.7,162.2,163.4,161.9,163.4,161.6z M163,158.8c-0.1,0.2-0.3,1,0,1.1s0.6-0.1,0.5-0.5
	C163.3,159.1,163,158.5,163,158.8z M163.7,159.6c0,0-0.3,0.8-0.1,1c0.1,0.3,0.2,0.2,0.3-0.2C164,160,163.8,159.2,163.7,159.6z
	 M164.6,158.3c0.2,0,0.3-0.1,0.2-0.6c0-0.1,0-0.1,0-0.1l0,0c-0.4-0.1-0.6-0.2-0.7-0.3c-0.1,0.1-0.2,0.2-0.1,0.4
	C164.2,158,164.4,158.3,164.6,158.3z"/>
</svg>
