<?xml version="1.0" encoding="utf-8"?>
<!-- Generator: Adobe Illustrator 27.2.0, SVG Export Plug-In . SVG Version: 6.00 Build 0)  -->
<svg version="1.1" id="Layer_1" xmlns="http://www.w3.org/2000/svg" xmlns:xlink="http://www.w3.org/1999/xlink" x="0px" y="0px"
	 viewBox="0 0 321.1 321.1" style="enable-background:new 0 0 321.1 321.1;" xml:space="preserve">
<style type="text/css">
	.st0{fill:#FE8E69;}
</style>
<path id="South_Carolina_2_" class="st0" d="M216,153.5l-9.9-6.9l-8.5-6l-0.6-0.4l-4.8-3.4l-0.4-0.3c0,0-1.7,0.3-4.1,0.7
	c-2.2,0.4-5.1,0.8-7.9,1.3c-1.7,0.3-3.4,0.5-4.8,0.7c-2.4,0.3-4.1,0.6-4.3,0.5c-0.7-0.3,0.3-1.9,0-2.4c-0.1-0.2-0.7-1-1.4-1.7
	c-0.5-0.6-1.1-1.2-1.5-1.5c-0.2-0.2-0.4-0.3-0.5-0.3c-0.4,0.1-1.6,1.9-2,1.8c-0.4-0.2-0.7-1.1-0.2-1.8c0.3-0.4,0.3-0.7-0.4-0.8
	c-0.4,0-0.9,0-1.7,0c-0.5,0-1.9,0.2-3.8,0.4c-0.3,0-0.6,0.1-0.9,0.1c-2.2,0.2-5,0.5-7.7,0.8c-0.7,0.1-1.3,0.1-2,0.2
	c-0.7,0.1-1.3,0.1-1.9,0.2c-1.8,0.2-3.4,0.3-4.7,0.4c-1.5,0.1-2.5,0.2-2.8,0.2c0,0,0,0-0.1,0c-0.7,0-2.4,1.3-4,2.6
	c-1.2,0.9-2.4,1.8-3.2,2c0,0-0.1,0-0.1,0c-0.6,0.2-1.6,0.5-2.6,1c-0.5,0.2-1.1,0.5-1.6,0.7c-0.7,0.3-1.4,0.6-2,0.9
	c-0.1,0.1-0.2,0.1-0.3,0.2c0.3,0.3,0.4,0.9-0.3,1.6c-1.1,1.2-3,3-3.1,4.3c0,0.3,0.1,0.6,0.3,1c0.2,0.3,0.4,0.5,0.7,0.8
	c0.8,0.8,2.1,1.6,3.1,2.3c0.5,0.3,0.9,0.6,1.2,0.9c0.5,0.4,0.8,0.7,1.2,1c0.3,0.2,0.6,0.3,0.9,0.3c0.1,0,0.3,0,0.4-0.1
	c0.9-0.2,1.3-1.1,2.3,0.1c0.8,0.9,1.8,2.7,2.6,4.1c0.3,0.5,0.6,1,0.8,1.3c0.1,0.1,0.2,0.3,0.3,0.4c0.6,0.7,1.9,2.6,2.9,4.1
	c0.3,0.4,0.5,0.7,0.7,1c0.2,0.4,0.5,0.6,0.6,0.8c0.6,0.7,2.2,1.3,2.9,1.3c0.7,0,3.2,1.3,3.9,2.5c0.2,0.4,0.5,0.8,0.8,1.2
	c0.6,0.8,1.4,1.7,2.1,2.1c0.1,0.1,0.3,0.1,0.4,0.2c0.3,0.1,0.8,0.4,1.4,0.9c0.1,0.1,0.3,0.2,0.4,0.3c1.4,1.1,2.9,2.7,3,3.2
	c0.2,0.9-0.2,1.6,1.1,2.6c0,0,0.1,0,0.1,0.1c0.5,0.4,1.4,0.8,2.3,1.2c1.1,0.6,2.4,1.2,3.3,1.8c0.3,0.2,0.6,0.4,0.8,0.6
	c0.2,0.2,0.5,0.4,0.7,0.7c1.3,1.4,2.4,3.4,3.2,5.2c0.2,0.5,0.4,1.1,0.5,1.6c0.3,1.5,0.4,2.7,0.9,3.2c0,0,0.1,0.1,0.1,0.1
	c0.4,0.3,1.3,0.6,2.2,0.9c1.2,0.5,2.4,1.1,2.7,2.2c0.3,1.2,0.5,3.3,1,5c0.3,0.9,0.6,1.7,1.1,2.2c1.1,1,3.7,1.2,5,1.3
	c0-0.2,0.1-0.4,0.2-0.6c0.1-0.2,0.2-0.3,0.2-0.4c0.1-0.4,0-0.4,0.2-0.4c0.3-0.1,0.5,0.1,0.7-0.1c0.2-0.2,2.2-2.2,2.3-2.9
	c0.1-0.7-0.2-0.8,0.2-1c0.3-0.2,3.6-1.8,3.8-2.1c0.2-0.4,0.8-1.5,0.3-2.3c-0.5-0.7-0.7-0.8-0.9-0.9c-0.2-0.1-0.4-0.6-0.3-0.9
	c0-0.1,0-0.1,0.1-0.2c0.3-0.3,0.3-0.2,0.7,0c0.4,0.2,0.6,0.1,1-0.1c0.2-0.1,0.3-0.1,0.4,0c0.1,0.1,0.2,0.1,0.4,0.2
	c0,0,0.1,0,0.1-0.1c0.3-0.2,0.9-1,1.5-1.7c0.4-0.5,0.8-0.9,1.1-1c0.7-0.3,2.9-1.9,3.3-1.9c0.4,0,0.6-0.3,0.6-0.7
	c0-0.4,1.2-0.6,1.4-1.3s-0.1-1.2,0.2-1.7c0.3-0.5,2-1.6,2.2-1.8c0.2-0.2,0-0.8,0.5-1.2c0.5-0.4,1.4-1.3,1.9-1.6
	c0.5-0.3,0.4-0.6,0.4-0.9c-0.1-0.3-0.9,0-0.9-0.3c0-0.4,0.3-1.1,0.7-1.5c0.3-0.3,0.4-0.7,0.8-0.8c0.4,0,0.6,0.8,0.9,0.7
	c0.4-0.1,0.6-0.6,1-0.6c0.4,0,1.4,0.1,1.6,0s0.1-0.9,0.2-1.6c0.1-0.5,0.3-0.9,0.6-1.1c0.1-0.1,0.1-0.1,0.2-0.1
	c0.4-0.2,1.8-1.5,1.8-2.2c0-0.7-0.4-0.9-0.4-1.3c0-0.5-0.1-3.4,0.4-4.5c0.3-0.7,1.1-2.5,1.8-4c0.5-1,1-1.9,1.2-2.1
	c0.6-0.6,2.2-3.7,4.2-4.7c0.8-0.4,1.6-0.9,2.4-1.4L216,153.5z"/>
</svg>
