<?xml version="1.0" encoding="utf-8"?>
<!-- Generator: Adobe Illustrator 27.2.0, SVG Export Plug-In . SVG Version: 6.00 Build 0)  -->
<svg version="1.1" id="Layer_1" xmlns="http://www.w3.org/2000/svg" xmlns:xlink="http://www.w3.org/1999/xlink" x="0px" y="0px"
	 viewBox="0 0 321.1 321.1" style="enable-background:new 0 0 321.1 321.1;" xml:space="preserve">
<style type="text/css">
	.st0{fill:#FE8E69;}
</style>
<path id="South_Dakota_00000117678293333135920260000005216202005305390977_" class="st0" d="M236.9,157.9c0-0.2,0-0.4,0-0.5
	c0-0.7-0.1-1.8-0.1-3.2c-0.1-2.4-0.2-5.5-0.4-7.5c-0.1-0.6-0.1-1-0.2-1.4c0-0.1-0.1-0.3-0.1-0.4c-0.5-1.8-2.7-1-3.4-1.7
	c-0.6-0.6-1.5-2.6-2.1-3.9c-0.1-0.3-0.2-0.5-0.3-0.7c-0.4-1,0-1.1,0.9-1.7c0.9-0.5,3.2-3.5,3.7-4.8c0.2-0.5,0.2-0.9,0.1-1.2
	c-3.2,0.1-7.1,0.1-11.6,0c-3.8-0.1-8-0.1-12.4-0.3c-0.1,0-0.2,0-0.4,0c-3.9-0.1-8-0.3-12.2-0.4c-1.5-0.1-2.9-0.1-4.4-0.2
	c-4-0.2-8.1-0.3-12.2-0.5c-0.9,0-1.7-0.1-2.6-0.1c-3.5-0.2-7-0.3-10.6-0.5c-8.6-0.4-17.1-0.9-24.9-1.3c-5.7-0.3-11-0.6-15.8-0.9
	c-0.4,0-0.7,0-1-0.1c-7.9-0.5-14.2-0.8-17.8-1.1l0,0l-0.1,0.9l-1.3,15.8l-0.5,5.6l0,0l-0.9,10.2l-0.8,9l-0.1,1.2l-0.6,6.8l-0.7,8.3
	l-0.1,0.8l-0.9,11c2.2,0.2,5.7,0.5,9.8,0.8c2.7,0.2,5.7,0.5,8.8,0.7c1.2,0.1,2.4,0.2,3.5,0.3c4.1,0.3,8.4,0.7,12.5,1
	c5.4,0.4,10.4,0.8,14.5,1.1c4.4,0.3,7.6,0.5,8.7,0.5c1.5,0,5,0.1,9.4,0.2c3.6,0.1,7.7,0.2,11.7,0.3c1.8,0.1,3.6,0.1,5.3,0.2
	c6.2,0.2,11.4,0.3,12.6,0.4c0.2,0,0.3,0,0.3,0s2,2.6,3.2,3.1c0.1,0,0.1,0,0.2,0.1c1.2,0.3,2.1,0.4,2.8,1.1c0,0,0,0,0,0
	c0.6,0.6,1.4,1.7,2.6,1.7c1.2,0,2.3-1.4,2.3-1.6s0-1,0.7-1c0.7,0,0.7,0.8,1.1,0.9c0.5,0.1,0.2-0.7,0.7-0.9c0.5-0.2,0.3,1,0.9,1
	c0.4,0,0.4-0.3,0.5-0.5c0.1-0.1,0.2-0.3,0.5-0.3c0.7-0.2,0.4,0.6,1,0.7c0.5,0.1,0.5-0.4,1-0.6c0.1-0.1,0.2-0.1,0.2,0
	c0.2,0.1,0.1,0.5,0.7,0.5c0.7-0.1,0.6-0.7,1.5-0.8c0.9-0.1,1.8,1,2.2,0.9c0.4-0.1,0.4,0.6,0.4,0.9c0,0.1,0.4,0.3,0.9,0.5
	c0.7,0.3,1.6,0.5,2.3,0.8c0.3,0.1,0.7,0.2,0.9,0.3c0.7,0.3,2,0.8,3,1.3c0.7,0.4,1.3,0.7,1.4,0.9c0.2,0.4-0.4,0.7,0.3,1.5
	c0.6,0.7,0.6,1.3,1.2,1.7c0.1,0.1,0.3,0.2,0.6,0.3c0.6,0.2,1.6,0.3,2.4,0.5c-0.1-0.3-0.2-0.7-0.3-1.1c-0.3-1.1-0.6-2.1-0.9-2.5
	c-0.6-0.6-1.3,0-1-2c0.1-0.9,0.7-2.6,1.2-4.2c0.5-1.7,1.1-3.3,1.3-4.1c0-0.1,0.1-0.3,0.1-0.4c0.1-1-0.2-2.3-0.6-2.8
	c-0.4-0.4-1.5-0.2-1.8-1.1c0-0.1,0-0.1-0.1-0.2c-0.1-1.1,0.3-1.3,0.7-1.2c0.4,0.1,0.6-0.6,0.5-1.1c-0.1-0.5-1.6-1.3-1.6-2.3
	c0-0.2,0-0.5,0.1-0.6c0-0.5,0-0.7,0-0.7s0.9,0,2.5,0c0-1.8,0.1-4.7,0.1-8c0-2.6,0.1-5.5,0.1-8.3c0-2.9,0.1-5.8,0.1-8.2
	c0-0.8,0-1.5,0-2.2C236.9,160.3,236.9,158.7,236.9,157.9z"/>
</svg>
