<?xml version="1.0" encoding="utf-8"?>
<!-- Generator: Adobe Illustrator 27.2.0, SVG Export Plug-In . SVG Version: 6.00 Build 0)  -->
<svg version="1.1" id="Layer_1" xmlns="http://www.w3.org/2000/svg" xmlns:xlink="http://www.w3.org/1999/xlink" x="0px" y="0px"
	 viewBox="0 0 321.1 321.1" style="enable-background:new 0 0 321.1 321.1;" xml:space="preserve">
<style type="text/css">
	.st0{fill:#FE8E69;}
</style>
<path id="Tennessee_2_" class="st0" d="M251.7,141.3l-0.6,0.1l-3.1,0.3l-2.2,0.2l-0.2,1.2c0,0-1.4,0.2-3.7,0.5
	c-0.6,0.1-1.2,0.1-1.8,0.2c-0.3,0-0.6,0.1-1,0.1c-1.9,0.2-4,0.5-6.3,0.8c-1.4,0.2-2.9,0.4-4.3,0.5c-0.8,0.1-1.7,0.2-2.6,0.3
	c-3.1,0.4-6.3,0.8-9.3,1.1c-1.4,0.2-2.7,0.3-4,0.5c-1.8,0.2-3.5,0.4-5,0.6c-0.3,0-0.6,0.1-0.9,0.1c-2.3,0.3-3.9,0.5-4.6,0.5
	c-0.1,0-0.2,0-0.2,0c-0.2,0-0.5,0-0.8,0.1c-2.2,0.2-5.8,0.5-9.3,0.8c-1.7,0.1-3.4,0.3-4.8,0.4c-2,0.1-3.5,0.2-4.1,0.2
	c-0.1,0-0.3,0-0.6,0v0c-1.8,0.1-6.2,0.7-10.1,1.2l0,0c-1.3,0.2-2.5,0.3-3.5,0.4c-1.3,0.1-2.3,0.2-2.8,0.2c-0.4,0-0.9,0-1.4,0.1
	c-1.3,0.1-2.9,0.2-4.2,0.4c-1,0.1-1.8,0.3-2.2,0.4c-0.2,0.1-0.4,0.1-0.6,0.1c-1.2,0.2-3,0-3.7-0.1c-0.2,0-0.3,0-0.3,0l-5.5,0.6
	l-1,0.1l-4.1,0.5l-5.8,0.7l-1,0.1l-3.1,0.4c0,0,0.1-0.9-0.3-1c-0.4-0.1-3.4,0-3.9,0c0,0-0.1,0-0.1,0c-0.3,0.3,0.4,2.2,1.1,3.4
	c0.6,0.9,0,1.1-0.4,1.1c-0.2,0-0.3,0-0.3,0l-7.9,0.5l-0.7,0l-5.3,0.3l-0.9,0.1l-9.5,0.6l-1.2,0.1c-0.1,0.4-0.2,0.7-0.3,1
	c-0.3,1.1-0.9,0.5-0.9,0.1c0-0.4,0.1-1.7-0.5-2.5c-0.5-0.8-1.1-0.1-1.5,0.8c-0.4,1,0.8,1.6,0.8,2.5c0,0.9,1.1,0.8,0.7,2
	c-0.2,0.5-0.5,0.5-0.5,0.5c-0.2-0.1-0.4-0.4-0.8-0.3c-0.6,0.3-0.1,0.7,0.6,1.1c0.7,0.4,0.4,1.3-0.4,1.8c-0.9,0.5-1.5-0.7-1.8-0.3
	c-0.3,0.3,0,0.8,0.7,1.5c0.1,0.1,0.3,0.2,0.4,0.4c1.1,0.9,1.2,0.8,0.3,1.6c-0.9,0.8-0.9,0.3-0.9,1s-0.4,0.5-0.7,1.8c0,0,0,0.1,0,0.1
	c-0.1,0.9,0.7,1.1,1.2,1.3c0.2,0.1,0.3,0.1,0.3,0.2c0.1,0.3-0.6,0.7-1.3,0.4c-0.7-0.3-1.1,0.1-1.2,0.4c-0.1,0.3,0.5,0.6,1.1,0.7
	c0.6,0.1,0.2,1.2-0.4,1.5c-0.6,0.3-0.7-0.1-1,0.3c-0.3,0.3-0.6,0.6-1.4,1.1c-0.8,0.5-0.9-0.1-1.3,0.2c-0.4,0.3-0.1,1.4,0.3,1.9
	c0.4,0.6,1-0.7,1.1-0.6c0.2,0.1,0.1,0.7-0.2,1.3c-0.4,0.6-1.3,0.7-1.4,0.9c-0.1,0.1,0.2,0.4,0.5,0.9c0.1,0.2,0.3,0.4,0.4,0.7
	c0.4,0.9-0.6,0.7-0.9,0.5c-0.3-0.1-0.6-1-1.1-0.7c-0.4,0.3-0.1,1.2,0,1.7c0.1,0.3,0,0.9-0.1,1.4c-0.1,0.3-0.3,0.5-0.5,0.5
	c-0.5,0-1.1-2-1.3-1.6c-0.1,0.2-0.1,0.5,0,0.9c0.1,0.6,0.3,1.5,0.5,1.9c0.2,0.7-0.5,0.7-1.1,1.1c-0.6,0.4,0.9,0.7,1.6,1
	c0.6,0.3-0.2,1.3-0.2,1.6c0,0.4,0.9,0.6,1,1c0.1,0.4-0.3,1-1,1.1c-0.7,0.1-1.3-0.6-1.6-0.1c-0.3,0.5-0.4,1.5-0.8,1.9
	c-0.4,0.3-1.5-0.3-1.6,0.4c0,0.1,0,0.4,0,0.6c2.9-0.2,6.7-0.4,11.3-0.7c0.5,0,1.1-0.1,1.7-0.1c1.8-0.1,3.7-0.3,5.7-0.4
	c1-0.1,2-0.1,3-0.2c1.2-0.1,2.4-0.2,3.7-0.3c1.2-0.1,2.3-0.2,3.5-0.3c0.3,0,0.5,0,0.8-0.1c2.6-0.2,5.3-0.4,8-0.6c0.1,0,0.2,0,0.3,0
	c0.9-0.1,1.8-0.1,2.7-0.2c1.5-0.1,3.1-0.2,4.6-0.4c2.4-0.2,4.9-0.4,7.4-0.6c2.5-0.2,5-0.4,7.6-0.6c2.5-0.2,5-0.4,7.4-0.6
	c0.3,0,0.5,0,0.8-0.1c3.2-0.3,6.4-0.6,9.6-0.8c2.9-0.3,5.7-0.5,8.6-0.8c1.7-0.2,3.4-0.3,5.1-0.5c1-0.1,2-0.2,2.9-0.3
	c0.6-0.1,1.1-0.1,1.7-0.2c0.7-0.1,1.4-0.1,2-0.2c1.9-0.2,3.7-0.4,5.6-0.6c1-0.1,2.1-0.2,3.1-0.3c0.2,0,0.4,0,0.7-0.1
	c1.1-0.1,2.1-0.2,3.1-0.4c1.9-0.2,3.8-0.5,5.7-0.7c-0.1-1.6-0.1-4.7,0.1-5.6c0-0.1,0.1-0.2,0.1-0.3c0.5-0.6,1-1.3,2.2-1.3
	c1.2,0,1.9,0.1,2.3-0.8c0-0.1,0.1-0.2,0.1-0.4c0.3-1.1,0.6-3.3,0.9-4.1c0-0.1,0.1-0.2,0.1-0.2c0.1-0.1,0.2-0.3,0.5-0.4
	c1.1-0.9,3.9-2.3,4.4-2.6c0.1,0,0.2-0.1,0.4-0.1c0.9-0.2,2.8-0.2,3.3-0.4c0.6-0.3,4.3-3.1,4.3-3.6c0-0.4-0.3-0.5-0.1-0.7
	c0.1-0.1,0.1-0.1,0.3-0.2c0.7-0.4,4.3-2,4.6-2.2c0.1,0,0.1-0.2,0.2-0.4c0.2-0.8,0.4-2.8,0.7-3.3c0,0,0,0,0,0
	c0.5-0.7,4.3-3.4,4.7-3.7c0.2-0.2,0.5-0.1,0.6,0.2c0.1,0.2,0.2,0.5,0.2,0.9c0,0.9,0,1.6,0.6,1.4c0.6-0.2,0.9-0.7,1.3-0.9
	c0.1-0.1,0.3-0.1,0.4-0.2c0.2-0.1,0.3-0.4,0.6-1c0.4-0.8,0.6-1.2,1.1-1.6c0.1-0.1,0.2-0.2,0.3-0.2c0.8-0.5,1.7-1.8,2.5-2
	c0,0,0.1,0,0.1,0c0.7-0.1,2.5,1.2,3.2,0.8c0.1,0,0.1-0.1,0.2-0.2c0.3-0.7,1.2-2.5,1.6-3.7c0.2-0.4,0.3-0.7,0.3-0.9
	c0-0.1,0-0.2,0.1-0.2c0.3-0.8,1-1.8,1.6-2c0.7-0.2,0.8,0.8,1.3,0.5c0.1-0.1,0.2-0.6,0.3-1.3c0.1-1.5,0.2-3.7,0.5-4.6
	c-0.4,0.1-0.6,0.1-0.6,0.1L251.7,141.3z"/>
</svg>
