<?xml version="1.0" encoding="utf-8"?>
<!-- Generator: Adobe Illustrator 27.2.0, SVG Export Plug-In . SVG Version: 6.00 Build 0)  -->
<svg version="1.1" id="Layer_1" xmlns="http://www.w3.org/2000/svg" xmlns:xlink="http://www.w3.org/1999/xlink" x="0px" y="0px"
	 viewBox="0 0 321.1 321.1" style="enable-background:new 0 0 321.1 321.1;" xml:space="preserve">
<style type="text/css">
	.st0{fill:#FE8E69;}
</style>
<path class="st0" d="M232,175.2c0.4,0.6,1.1,2.1,1.5,3.1c-0.2,0-0.3,0.1-0.5,0.1c-0.2-0.7-0.5-1.4-0.7-1.8c-0.5-1-0.5-0.4-0.5-0.4
	c0,0.3,0,0.6-0.3,0c-0.3-0.5-0.2-0.9-0.3-1.1c-0.1-0.2-0.2,0.1-0.4,0.9c-0.2,0.7,0.4,2,0.4,2.4c0,0.1,0,0.3,0,0.4
	c-0.1,0-0.2,0.1-0.3,0.1c0,0-0.1-0.1-0.1-0.2c-0.3-0.5-0.8-0.7-0.8-0.4c0,0.1,0.1,0.4,0.3,0.7c-0.5,0.1-1.1,0.3-1.7,0.4
	c-0.9,0.2-1.9,0.5-2.9,0.7c-1.2,0.3-2.5,0.6-3.8,0.9c-0.1,0-0.1,0-0.2,0c-0.2,0-0.3,0.1-0.5,0.1c-2.2,0.5-4.6,1-7,1.5
	c-0.5,0.1-1,0.2-1.5,0.3c-1.3,0.3-2.6,0.5-3.9,0.8c-0.8,0.2-1.6,0.3-2.4,0.5c-2.8,0.6-5.8,1.1-8.7,1.7c-0.8,0.1-1.6,0.3-2.3,0.4
	c-0.9,0.2-1.8,0.3-2.7,0.5c-1.7,0.3-3.5,0.6-5.2,0.9c-1.1,0.2-2.2,0.4-3.3,0.6c-1.7,0.3-3.3,0.6-5,0.9c-0.3,0-0.6,0.1-0.9,0.1
	c-2.1,0.4-4.3,0.7-6.4,1.1c-0.6,0.1-1.1,0.2-1.7,0.3c-0.7,0.1-1.4,0.2-2.1,0.3c-0.9,0.1-1.7,0.3-2.6,0.4c-0.3,0.1-0.7,0.1-1,0.2
	c-1.2,0.2-2.4,0.4-3.7,0.6c-2,0.3-4,0.6-5.9,0.9c-0.2,0-0.3,0.1-0.5,0.1c-2.6,0.4-5.1,0.8-7.5,1.2c-1.1,0.2-2.2,0.3-3.3,0.5
	c-1.5,0.2-2.9,0.4-4.3,0.7c-0.4,0.1-0.7,0.1-1.1,0.2c-3.4,0.5-6.4,1-8.8,1.3c-2.8,0.4-4.8,0.7-5.7,0.8c-0.4,0.1-0.6,0.1-0.6,0.1
	l1.4-1.4l-0.6,0.1L121,197l-2.2,0.2l-0.2,1.2c0,0-1.4,0.2-3.7,0.5c-0.6,0.1-1.2,0.1-1.8,0.2c-0.3,0-0.6,0.1-1,0.1
	c-1.9,0.2-4,0.5-6.3,0.8c-1.4,0.2-2.9,0.4-4.3,0.5c-0.8,0.1-1.7,0.2-2.6,0.3c-3.1,0.4-6.3,0.8-9.3,1.1c-1.4,0.2-2.7,0.3-4,0.5
	c1.2-0.8,2.8-1.8,3.8-2.2c0.1,0,0.2-0.1,0.3-0.1c1.6-0.3,3-1.2,3.8-1.8c0.8-0.6,1.8-0.3,2-0.9c0.2-0.6,0.5-2.3,0.7-2.4
	c0.2-0.2,1.7,0,2.4-0.4c0.5-0.3,1-0.7,1.1-1.3c0.1-0.2,0.1-0.4,0.1-0.6c0-0.4,0-0.8,0-1.1c0.1-0.5,0.3-1,1.1-1.2
	c1.3-0.4,1.6-0.7,1.5-1.4c-0.1-0.7-0.4-1.3,1.5-2.6c0.5-0.3,0.9-0.6,1.2-0.8c1-0.7,1.5-1,2.5-1.7c0.4-0.3,1-0.9,1.5-1.6
	c1.2-1.5,2.7-3.5,3.4-4.2c0.6-0.6,1.6-1.8,2.3-2.6c0.1,0.1,0.2,0.1,0.2,0.3c0,0.5-0.7,0.6-0.5,1.2c0,0.1,0.1,0.1,0.1,0.2
	c0.3,0.4,0.8,0.5,1.2,0.9c0.4,0.4-0.5,0.6,0.3,1.5c0.9,0.9,2.3,2.1,2.9,2.1c0.3,0,0.7,0.1,1,0.3c0.3,0.1,0.5,0.3,0.8,0.5
	c0.5,0.4,1.7,0.2,2.5-0.3c0.8-0.5,2.8-2.4,3-3.2c0.1-0.2,0.2-0.2,0.5-0.1c0.7,0.2,1.8,1.4,2.5,1.5c0.2,0,0.3,0,0.5,0
	c0.7-0.1,1.4-0.7,2.4-1c0.5-0.1,1-0.2,1.4-0.4c0.8-0.2,1.5-0.5,1.8-0.8c0.5-0.6,0-1.1,0-1.6c0-0.3,0.1-1,0.2-1.5
	c0.1-0.3,0.1-0.6,0.2-0.6c0,0,0.1,0.1,0.2,0.2c0.4,0.5,1.1,1.5,1.6,1.3c0.7-0.3,4.7-3.3,4.7-3.3s0.5,1.1,0.6,1.1
	c0,0,0.1-0.1,0.3-0.2c0.8-0.6,2.9-2.3,2.9-2.3s-1.5,0-0.9-1c0.4-0.7,1.2-1.3,1.6-1.7c0.2-0.2,0.3-0.3,0.3-0.4
	c-0.1-0.2-1.5-0.3-1.6-1.2c0-0.1,0-0.1,0-0.2c0-1.1,1.8-4.6,2.6-5.8c0.2-0.3,0.4-0.6,0.6-1c0.5-0.9,1.1-2,1.5-2.8
	c0.2-0.5,0.3-0.9,0.3-1.1c-0.1-0.6-0.5-1.7-0.3-2.1s1.6-1.3,1.8-2.1c0,0,0-0.1,0-0.1c0.2-0.7-0.4-0.6,0-1.4c0.3-0.8,1.5-1.5,1.6-3.7
	c0-2.2,0-3.4,0-3.4s0.1,0,0.4,0c0.7,0.1,2.3,0.4,2.6,1c0.4,0.8-0.4,1.5,1.1,1.7c1,0.2,2.1,0.2,2.8,0.2c0.4,0,0.7-0.1,0.7-0.1
	c0,0,0.2-0.6,0.5-1.3c0.6-1.7,1.6-4.6,1.7-5.5c0.1-0.5,0.3-1.1,0.5-1.8c0.4-1.2,0.9-2.3,0.9-2.3s2.2,1.2,2.3,1.3
	c0,0,0.1-0.1,0.3-0.4c0.2-0.5,0.6-1.5,0.8-2c0.3-0.8,0.7-0.5,1.7-1.7c1-1.2,1.3-2,1.8-2.9c0.1-0.1,0.1-0.2,0.2-0.3
	c0.3-0.5,0.5-0.8,0.7-1.2c0.1-0.2,0.3-0.4,0.5-0.7c0.6-0.7,0.9-1,0.7-1.8c-0.3-0.8,0-1,0.1-1.4c0.1-0.4-1.5,0-0.4-1.4
	c1.1-1.4,0-2.1,0.1-3.1c0-0.4,0-0.7-0.1-0.8c-0.1-0.3,0-0.3,0.9,0.2c0.3,0.2,1,0.5,1.8,1c1.2,0.6,2.8,1.5,4.2,2.2
	c1.7,0.9,3.2,1.7,3.7,1.9c0.1,0.1,0.2,0.1,0.2,0.1c0.1,0,1-3.6,1.2-4.3c0-0.1,0.1-0.3,0.1-0.4c0.2,0.1,0.4,0.2,0.8,0.2
	c0.1,0,0.3,0,0.5,0c1.1,0,1.8-0.5,1.9-0.1c0.2,0.5,0.4,1.1,1.3,1.2c0.1,0,0.3,0.1,0.4,0.1c0.5,0.2,0.4,0.7,0.1,1.1
	c-0.4,0.5-0.9,0.7-0.3,1.6c0.6,0.9,1.5,1.4,2.6,1.2c0.6-0.1,1-0.3,1.3-0.4c0.3-0.1,0.6,0,1,0.3c0.9,0.7,0.1,1.1,1,1.4
	c0.6,0.2,1.5-0.1,2.3,0.3c0.1,0,0.2,0.1,0.3,0.1c0.3,0.2,0.5,0.4,0.7,0.7c0.7,1,1,1.9,1,2.7c0,0,0,0,0,0c0,0.5-0.1,0.9-0.3,1.3
	c-0.1,0.2-0.2,0.4-0.3,0.7c-0.4,0.8-1.1,1.9-1.5,2.5c0,0,0,0-0.1-0.1c-0.3-0.3,0.1-0.5,0.1-0.6c-0.1-0.1-0.2,0-0.6,0.3
	c0,0-0.1,0.1-0.1,0.2c-0.2,0.5-0.1,1.8-0.4,2.6c-0.1,0.2-0.1,0.5-0.1,0.7c0,0.7,0.1,1.3,0.1,1.9c0,0.9,0.4,0.9,0.8,1.2
	c0.4,0.4,0,0.4-0.4,0.6c-0.3,0.2-0.5,0-0.4,0.2c0.1,0.1,0.3,0.1,0.6,0.1c0.4,0,1-0.1,1.3-0.2c0.4-0.1,0.3-0.3,0.5-0.3
	c0.2-0.1,0.3,0,0.8-0.3c0.4-0.3,0.1-0.5,0.4-0.6c0.2-0.1,0.5,0,0.9-0.2c0.4-0.2,0.4-1.1,0.8-1c0.4,0,0.9,1.1,1,1.6
	c0.1,0.5-0.1,0.4-0.3,0.5c-0.2,0.1-0.1,0.2,0.3,0.4c0.1,0.1,0.2,0.1,0.4,0.2c0.3,0.1,0.6,0.3,0.9,0.3c0.4,0.1,0.1,0.9,0.2,1.3
	c0,0.3,0.6,0,0.7,0c0.1,0,0.5,0.5,1.2,0.6c0.8,0.1,1.3-0.3,1.7-0.3c0.4,0.1,0.6,0.6,1.2,1c0.7,0.4-0.1-1-0.1-1.2
	c0-0.2,0.5,0,0.6,0.1c0.1,0.1,0.2,0.4,0.5,0.5c0.3,0.1,0.3-0.4,0.7-0.4c0.4,0,0.5,0.3,0.7,0.5s-0.2,0.1-0.2,0.5c0,0.4,1,0.4,1.6,0.4
	c0.5,0,0.6,0.6,0.3,0.6c-0.3,0-0.3,0-0.2,0.4c0,0,0,0.1,0,0.1c0.2,0.2,0.9-0.2,1.4-0.2c0.5-0.1,0.4,0.3,0,0.4
	c-0.4,0.1-0.3,0.3,0,0.4c0.3,0.1,0.9,0,1.3,0.2c0.5,0.2,2.2,0.8,3.1,0.9s0.5,1.5,0.5,1.9c0,0.4-0.1,0.5-0.5,0.5
	c-0.4,0-0.5-0.4-0.5,0c0,0.4,0.9,0.5,0.8,0.8c0,0.2-0.4,0.3-0.3,0.4c0.1,0.2,0.2,0.2,0.1,0.6c-0.1,0.3-0.3,0-0.3,0.4
	c0,0.4,0.3,0.2,0.4,0.7c0,0.1,0,0.2,0,0.2c-0.1,0.1-0.3,0-0.4,0.3c-0.1,0.3,0.2,0.8,0.4,0.8c0.2-0.1,0.4-0.4,0.5-0.2
	c0.1,0.3,0.7,0.5,0.7,0.7c0,0.2-0.8,0.4-1,0.4c-0.2,0-0.2-0.2-0.6-0.1c-0.4,0.1-0.3,0.2-0.5,0.1c-0.2-0.1-1.2-0.4-1.3-0.4
	s-0.6-0.1-0.7-0.4c-0.2-0.3,0.2-0.7,0.1-1c-0.1-0.3-0.3-0.1-0.5,0.2c-0.3,0.3,0.1,0.9,0.2,1.2c0.1,0.3-0.2,0.5-0.6,0.4
	c-0.4-0.1-0.4-0.3-0.6-0.5c-0.2-0.3-0.2-0.6-0.4-0.9s-0.4-0.2-0.7-0.5c-0.2-0.4,0-0.6-0.1-1c-0.1-0.3-0.9,0-1.3-0.2c0,0,0,0-0.1,0
	c-0.4-0.2-0.2-0.3-0.7-0.3c-0.4,0-0.7-0.1-1.1-0.4c-0.3-0.3-0.3-0.8-0.5-0.8c-0.2,0-0.4-0.3-0.6-0.6c-0.2-0.4-0.7-0.3-1.3-0.4
	c-0.6-0.1-0.3-0.2-0.4-0.6c0-0.4-0.2-0.3-0.4-0.3s-0.5-0.1-0.7-0.7c-0.2-0.5-0.4-0.9-0.7-1.1c-0.1-0.1-0.1-0.1-0.2-0.1
	c-0.3-0.2-0.1,0.1,0.1,0.5c0,0,0,0.1,0.1,0.1c0.2,0.4,0.3,1.3,0.5,1.5c0.2,0.2,0.5,0,0.5,0.1c0.1,0.1,0.2,0.3,0.3,0.4
	c0.1,0,0.2,0.1,0.4,0.4c0.2,0.3,0.2,0,0.5,0.2c0.3,0.2,0.1,0.2,0.3,0.3c0.2,0.1,0.4,0,0.7,0.4c0.3,0.4,1.1,1,1.4,1.6
	c0.3,0.6,0.4,0.1,0.8,0.1c0.3,0,0.3,0.3,0.4,0.5c0,0,0,0.1,0.1,0.1c0.2,0.3,0.6-0.1,0.9-0.1c0.3,0,0.9,1.1,1,1.7s0.7,1,1.3,1.2
	s0.4-0.2,1.3-0.4c0.9-0.2,0.7,0.1,0.8,0.5c0.1,0.3,0.2,0.2,0.7,0.1c0.5,0,0.4-0.2,0.6-0.2c0.2,0,0.5,0.1,0.7,0.2
	c0.2,0.1,0.9,0,0.8,0.3c-0.1,0.3-0.3,0.8-0.7,0.9c-0.3,0.1-0.4-0.2-0.5,0.2c0,0,0,0.1,0,0.1c0.1,0.3,0.8,0.3,0.9,0.2
	c0.1-0.2,0.2-0.7,0.4-0.7s0.4,0.1,0.6,0.3c0.2,0.2,0.4,0.4,0.6,0.9c0.2,0.5,0.3,0.2,0.2,0.8c0,0.5,0.2,0.4,0.4,0.8
	c0.2,0.4-0.1,0.4-0.3,0.8c-0.2,0.4-0.2,0.4,0,1.1c0.2,0.7,0,0.7-0.3,0.8c-0.3,0.1-0.3,0-0.3-0.3c-0.1-0.3-0.5-0.5-0.7-0.8
	c-0.2-0.3-0.3-0.3-0.7-0.3c-0.4,0.1-0.4-0.1-0.8-0.6c-0.4-0.5-0.2-0.7-0.4-0.7c-0.2-0.1-0.3,0.2-0.2,0.6c0,0,0,0,0,0
	c0.1,0.4,0.5,0.8,0.5,1c0,0.2-0.3,0.1-0.6-0.1c-0.3-0.3-0.5-0.3-0.8-0.2c-0.3,0-0.1,0.5,0.2,0.5c0.3,0,1,0.3,1,0.5
	c0,0.3,0.2,0.3,0.9,0.7c0.7,0.4-0.1,0.7-0.3,1.1c-0.3,0.3-1.4,0.7-1.7,0.7c-0.2-0.1-0.4-0.5-0.5-0.5c-0.2,0-0.9-0.5-1.2-0.8
	c-0.3-0.3-0.3-0.4-0.5-0.4s-1.3-1.3-1.5-1.3c-0.2-0.1-0.4,0-0.6-0.2c-0.2-0.2-0.1-0.4-0.4-0.7c0,0,0,0,0,0c-0.3-0.3-1.3-1-1.5-1.3
	c0,0,0,0,0-0.1c-0.1-0.2-0.3-0.3-0.6-0.1c0,0,0,0,0,0c-0.2,0.2-0.1,0.4,0.1,0.7c0.2,0.3,0.6,0.1,0.9,0.3c0,0,0.1,0.1,0.1,0.1
	c0.4,0.4,1.3,1.3,1.8,1.8c0.1,0.1,0.2,0.2,0.3,0.3c0.6,0.6,1.7,1.6,2.1,1.7c0.4,0.1,0.3-0.1,0.7,0.2c0.4,0.3,0.9,0.7,1.6,0.9
	c0.7,0.1,0.4-0.4,1-0.6c0.6-0.2,0.6-0.3,0.7-0.3c0.1,0,0.1,0.2-0.1,0.5c-0.2,0.3-0.1,0.1,0,0.3c0.1,0.1,0.1,0.2,0.1,0.4
	c0,0.2,0.1,0.4,0.1,0.6c0.1,0.4,0.4-0.2,0.6-0.3c0.2-0.2,0.4-0.1,0.4,0.3c0,0.3,0.1,0.2,0.5,0.3c0.3,0.1,0.6,0.2,0.9,0.5
	c0.1,0.1,0.1,0.1,0.2,0.2c0.2,0.2,0.3,0.4,0.3,0.6c0,0.3-0.1,0.5-0.1,0.7c-0.1,0.3-0.2,0.5-0.1,1c0.1,0.5-0.2,0.6-0.6,0.6
	s-0.1-0.4-0.4-0.3c-0.3,0.2-0.6,0.5-0.8,0.9c0,0,0,0,0,0c-0.1,0.5-0.5,0.7-0.9,0.5c-0.4-0.2-0.6-0.8-0.7-1.2
	c-0.1-0.4-0.3-0.1-0.7-0.1s-0.5-0.1-0.6-0.4c-0.1-0.3-0.3-0.6-0.5-0.4c-0.2,0.2,0,0.2-0.5,0.1c-0.4-0.1-0.7-0.6-1-0.7
	c-0.3-0.1-0.3-0.1-0.2-0.6c0-0.4,0-0.7-0.1-0.8c0,0,0,0,0-0.1c-0.1-0.1-0.3-0.5-0.5-0.8c-0.2-0.3-0.5-0.3-0.9-0.2s-0.2,0.3-0.4,0.4
	c-0.1,0.1-0.5,0-0.5,0.2s0,0.5-0.5,0.5c-0.4,0-0.5-0.4-0.6-0.6c-0.2-0.2-0.7-0.4-1-0.4c-0.3,0.1-0.3,0.3-0.6,0.3
	c-0.3,0-0.2-0.4-0.4-0.2c0,0,0,0,0,0c-0.1,0.2-0.4,0.4-0.7,0.6c-0.1,0-0.1,0.1-0.2,0.1c-0.2,0.2,0.3,0.3,0.5,0.4
	c0.3,0.1,0.4-0.1,0.8-0.3c0.3-0.2,0.8-0.3,1.1-0.1c0.3,0.1,1,0.6,1.2,1c0.2,0.4,0.6,0.2,0.8-0.2c0.2-0.4,0.1-0.9,0.3-1.1
	c0.2-0.2,0.3,0.2,0.6,0.4c0.3,0.2,0.1,0.3,0.1,1c0,0.3,0.1,0.4,0.2,0.5c0.1,0.1,0.2,0.1,0.3,0.3c0.1,0.4,0,1,0.1,1.5
	c0.1,0.5,0.3,0,0.8-0.1c0.5-0.1,0.5-0.1,0.9,0.1c0.3,0.2-0.3,0.4,0.2,0.5c0.5,0.1,1,0.3,1.4,0.6c0.4,0.3,0.6,0.1,0.7,0.4
	c0.1,0.3-0.4,0.2-0.5,0.4c-0.1,0.2,0.2,0.3,0.5,0.2c0.1,0,0.1,0,0.2,0c0.1,0.1,0,0.5-0.1,0.7c-0.1,0.2-0.4,0.3-0.6,0.8
	c-0.1,0.5-0.5,0.9-0.4,1c0.1,0.1,0.5-0.3,0.6-0.6c0.1-0.3,0.3-0.5,0.3-0.6c0.1-0.1,0.3-0.2,0.4-0.5c0.1-0.3,0.2-0.4,0.6-0.4
	c0.1,0,0.3,0,0.4,0c0.2,0,0.4,0,0.5-0.1c0.2-0.2,0.1-0.5,0.3-0.5c0.2,0,0.4,0.3,0.3,0.6c0,0.3,0.1,0.6,0.4,0.6c0.1,0,0.1,0,0.2-0.1
	c0.2-0.1,0.2-0.4,0.2-0.7c0-0.3-0.2,0-0.6-0.2c-0.4-0.2-0.4-1.3-0.3-1.5c0.2-0.2,0.7-0.3,1.2-0.3c0.6,0,0.5,0.1,0.9,0.6
	c0.2,0.2,0.9,0.2,1.6,0.1c0.5-0.1,1-0.2,1.3-0.2c0.7-0.1,0.5-0.7,1.2-0.5c0.7,0.2,0.8,0.2,0.9,1.2
	C229.7,171.8,231.5,174.5,232,175.2z M230.8,164c0.5-1,0.7-1.5,0.5-1.7c-0.2-0.2-0.5-0.1-0.5,0c0,0-0.8,1.8-0.9,2.4
	C229.9,165.3,230.3,165,230.8,164z M231.2,161c-0.1-0.1-0.3-0.1-0.3,0c0,0.1-0.4,0.6,0,0.7C231.2,161.9,231.2,161.1,231.2,161z
	 M229.7,160.4c0.2-0.7,0.2-1.5,0-1.2c0,0-0.8,0.9-0.7,1.3c0,0.4-0.1,1,0.3,0.8C229.6,161.2,229.6,161.1,229.7,160.4z M229.6,164.2
	c0.1-1-0.1-1,0.1-1.8c0.2-0.8,0.4-0.9,0.4-1c-0.1-0.1,0-0.3-0.3-0.1c0,0-0.4,0.2-0.5,0.4c-0.2,0.2-0.4,1.2-0.2,1.8
	C229.2,164.1,229.5,165.2,229.6,164.2z M222.4,144.6c0.1,0.3,0.1,0.5,0.1,0.9c0,0.4,0.6,1.1,1.1,1.3c0.4,0.2,0.3-0.3,0.3-0.6
	c0-0.3-0.2-1.1-0.2-1.5c0-0.4,0.1-0.2,0.2-0.5c0-0.3-0.5-0.4-0.7-0.5c-0.2-0.1-0.8,0.3-0.8,0.3C222.3,144,222.3,144.3,222.4,144.6z
	 M222.6,143c0.7,0,0.4-0.4,0.1-1.1c-0.1-0.3-0.2-0.6-0.2-0.8c-0.3,0.3-0.8,0.7-1.2,1C221.5,142.6,222,143.1,222.6,143z M230.7,143.3
	c-0.2,0.1-0.4,0.2-0.4,0.3c-0.2,0.3-0.6,0.6-1,0.9c0,0,0,0,0,0c0.3,0.1-0.3,0.2-0.4,0.4c-0.2,0.3-0.7,0.8,0,0.8
	c0.6,0,0.7-0.6,0.9-0.3c0.2,0.4,0.3,2.1-0.1,2.4c-0.4,0.3-1-0.4-1.1-0.3c-0.1,0.1-0.6,0.3-0.6,0.6c0,0.4,0,0.7,0.3,0.7
	c0.3,0,0.2-0.3,0.4-0.3c0.2,0,0.5,0.2,0.2,0.6c-0.3,0.4-1.5,2.2-1.6,3.8c0,0.6-0.1,1.3-0.2,2c-0.1,1.1-0.3,2.4-0.2,3.7
	c0.2,2.1-0.4,2.2-0.1,3.2c0.3,1,1,2.1,1.3,2.7c0.3,0.6-0.1,0.9,0.4,1.1c0.4,0.1,0.8,0,0.7-0.4c-0.1-0.4-0.6-2.6-0.4-4
	c0.2-1.5,0-2,0.5-2.4c0.5-0.4,0.9-0.4,1.2-0.5c0.3-0.1,0-0.4-0.2-0.6c-0.2-0.2-0.3-1.3,0-1.6c0,0,0.1,0,0.1-0.1
	c0.3-0.2,0.8-0.3,0.9-0.5c0.1-0.2,0.1,0-0.2-0.4c-0.3-0.4-0.3-0.9-0.1-1.1c0.2-0.2,0.6,0.1,0.7,0.6c0.1,0.5,0.7,0.9,0.7,1.1
	c0,0.1-0.9,0.2-0.9,0.4c0,0.2,0.6,0.1,0.4,1.6c-0.1,1.4-0.6,2.2-0.6,2.4c0,0.3,0.3,0.4,0.6-0.4c0.3-0.7,0.7-2.9,0.7-3.4
	c0-0.4-0.2-0.7,0-0.9c0.2-0.2,0.6,0,0.6-0.8c0-0.8-0.6-4.5-0.3-5.1c0.3-0.6,1.2-4,1.4-4.2c0.2-0.2,0.2,0.1,0.3-1.1
	c0.1-1.2-0.2-1.5,0.1-1.8c0.3-0.3,0.8-0.4,0.7-1.1C233.4,142.2,231.5,142.8,230.7,143.3z"/>
</svg>
