<?xml version="1.0" encoding="utf-8"?>
<!-- Generator: Adobe Illustrator 27.2.0, SVG Export Plug-In . SVG Version: 6.00 Build 0)  -->
<svg version="1.1" id="Layer_1" xmlns="http://www.w3.org/2000/svg" xmlns:xlink="http://www.w3.org/1999/xlink" x="0px" y="0px"
	 viewBox="0 0 321.1 321.1" style="enable-background:new 0 0 321.1 321.1;" xml:space="preserve">
<style type="text/css">
	.st0{fill:#FE8E69;}
</style>
<path id="Wyoming_2_" class="st0" d="M220.1,127.6c-0.5-0.1-0.9-0.1-1.4-0.2c-4.6-0.5-9.8-1.1-15.3-1.7c-1.3-0.1-2.7-0.3-4-0.5
	c-8.8-1-18.2-2.1-27.4-3.2c-2.1-0.2-4.2-0.5-6.2-0.7c-2.1-0.2-4.1-0.5-6.1-0.7c-7.2-0.9-14-1.7-19.9-2.5
	c-11.1-1.5-19.1-2.8-20.8-3.5c-0.2-0.1-0.3-0.1-0.3-0.2l-1.2,7.7l-0.7,4.7l0,0l-1.8,11.6l-1.9,11.8l-0.6,4l-1.1,7.2l-2,12.4l-2,12.4
	l-1.6,9.9l-1.2,7.7l-1,6.1c0,0,7.1,1.1,17.8,2.6c0.3,0,0.6,0.1,0.8,0.1c5.2,0.7,11.1,1.6,17.4,2.5c6.3,0.9,12.9,1.8,19.6,2.7
	c3.6,0.5,7.2,1,10.8,1.4c2.8,0.4,5.5,0.7,8.1,1c3.4,0.4,6.8,0.8,10,1.2c0.8,0.1,1.5,0.2,2.2,0.3c6.5,0.7,12.2,1.3,16.7,1.6
	c0.6,0,1.2,0.1,1.8,0.1c1.2,0.1,2.5,0.2,3.7,0.2c5.4,0.3,10.9,0.7,16.3,1.1l0.8-9l0.3-4.1l0.3-3l0.6-7.3l1.2-14.8l0.8-9.8l0.9-11
	l0.1-0.8l0.7-8.3l0.6-6.8l0.1-1.2l0.8-9l0.9-10.2C233.7,129.1,227.8,128.4,220.1,127.6z"/>
</svg>
